%TF.GenerationSoftware,KiCad,Pcbnew,(5.1.10)-1*%
%TF.CreationDate,2023-06-15T14:08:20-05:00*%
%TF.ProjectId,1 Player,3120506c-6179-4657-922e-6b696361645f,rev?*%
%TF.SameCoordinates,Original*%
%TF.FileFunction,Copper,L2,Bot*%
%TF.FilePolarity,Positive*%
%FSLAX46Y46*%
G04 Gerber Fmt 4.6, Leading zero omitted, Abs format (unit mm)*
G04 Created by KiCad (PCBNEW (5.1.10)-1) date 2023-06-15 14:08:20*
%MOMM*%
%LPD*%
G01*
G04 APERTURE LIST*
%TA.AperFunction,ComponentPad*%
%ADD10C,3.500000*%
%TD*%
%TA.AperFunction,ComponentPad*%
%ADD11C,1.600000*%
%TD*%
%TA.AperFunction,ComponentPad*%
%ADD12R,1.600000X1.600000*%
%TD*%
%TA.AperFunction,ViaPad*%
%ADD13C,0.800000*%
%TD*%
%TA.AperFunction,Conductor*%
%ADD14C,0.250000*%
%TD*%
G04 APERTURE END LIST*
D10*
%TO.P,PLAYER1,1*%
%TO.N,/VCC*%
X171704000Y-76708000D03*
%TO.P,PLAYER1,2*%
%TO.N,/CLOCK*%
X171704000Y-80568000D03*
%TO.P,PLAYER1,4*%
%TO.N,/DATA1*%
X171704000Y-88288000D03*
%TO.P,PLAYER1,3*%
%TO.N,/LATCH*%
X171704000Y-84468000D03*
%TO.P,PLAYER1,5*%
%TO.N,Net-(PLAYER1-Pad5)*%
X171704000Y-94668000D03*
%TO.P,PLAYER1,6*%
%TO.N,Net-(PLAYER1-Pad6)*%
X171704000Y-98518000D03*
%TO.P,PLAYER1,7*%
%TO.N,/GND*%
X171704000Y-102338000D03*
%TD*%
D11*
%TO.P,MCU1,24*%
%TO.N,Net-(MCU1-Pad24)*%
X181610000Y-76200000D03*
%TO.P,MCU1,23*%
%TO.N,/GND*%
X181610000Y-78740000D03*
%TO.P,MCU1,22*%
%TO.N,Net-(MCU1-Pad22)*%
X181610000Y-81280000D03*
%TO.P,MCU1,21*%
%TO.N,/VCC*%
X181610000Y-83820000D03*
%TO.P,MCU1,20*%
%TO.N,Net-(MCU1-Pad20)*%
X181610000Y-86360000D03*
%TO.P,MCU1,19*%
%TO.N,Net-(MCU1-Pad19)*%
X181610000Y-88900000D03*
%TO.P,MCU1,18*%
%TO.N,/DATA2*%
X181610000Y-91440000D03*
%TO.P,MCU1,17*%
%TO.N,/DATA1*%
X181610000Y-93980000D03*
%TO.P,MCU1,16*%
%TO.N,Net-(MCU1-Pad16)*%
X181610000Y-96520000D03*
%TO.P,MCU1,15*%
%TO.N,Net-(MCU1-Pad15)*%
X181610000Y-99060000D03*
%TO.P,MCU1,14*%
%TO.N,Net-(MCU1-Pad14)*%
X181610000Y-101600000D03*
%TO.P,MCU1,13*%
%TO.N,Net-(MCU1-Pad13)*%
X181610000Y-104140000D03*
%TO.P,MCU1,12*%
%TO.N,Net-(MCU1-Pad12)*%
X166370000Y-104140000D03*
%TO.P,MCU1,11*%
%TO.N,Net-(MCU1-Pad11)*%
X166370000Y-101600000D03*
%TO.P,MCU1,10*%
%TO.N,Net-(MCU1-Pad10)*%
X166370000Y-99060000D03*
%TO.P,MCU1,9*%
%TO.N,Net-(MCU1-Pad9)*%
X166370000Y-96520000D03*
%TO.P,MCU1,8*%
%TO.N,Net-(MCU1-Pad8)*%
X166370000Y-93980000D03*
%TO.P,MCU1,7*%
%TO.N,Net-(MCU1-Pad7)*%
X166370000Y-91440000D03*
%TO.P,MCU1,6*%
%TO.N,/CLOCK*%
X166370000Y-88900000D03*
%TO.P,MCU1,5*%
%TO.N,/LATCH*%
X166370000Y-86360000D03*
%TO.P,MCU1,4*%
%TO.N,/GND*%
X166370000Y-83820000D03*
%TO.P,MCU1,3*%
X166370000Y-81280000D03*
%TO.P,MCU1,2*%
%TO.N,Net-(MCU1-Pad2)*%
X166370000Y-78740000D03*
D12*
%TO.P,MCU1,1*%
%TO.N,Net-(MCU1-Pad1)*%
X166370000Y-76200000D03*
%TD*%
D13*
%TO.N,/DATA1*%
X175514000Y-94742000D03*
%TD*%
D14*
%TO.N,/GND*%
X166370000Y-81280000D02*
X166370000Y-83820000D01*
%TO.N,/VCC*%
X178816000Y-83820000D02*
X171704000Y-76708000D01*
X181610000Y-83820000D02*
X178816000Y-83820000D01*
%TO.N,/DATA1*%
X180848000Y-94742000D02*
X181610000Y-93980000D01*
X175514000Y-94742000D02*
X180848000Y-94742000D01*
%TO.N,/CLOCK*%
X171704000Y-80568000D02*
X174194000Y-83058000D01*
X174194000Y-83058000D02*
X174194000Y-91390000D01*
X174194000Y-91390000D02*
X173636000Y-91948000D01*
X169418000Y-91948000D02*
X166370000Y-88900000D01*
X173636000Y-91948000D02*
X169418000Y-91948000D01*
%TO.N,/LATCH*%
X169812000Y-86360000D02*
X171704000Y-84468000D01*
X169812000Y-86360000D02*
X166370000Y-86360000D01*
%TD*%
M02*
