%TF.GenerationSoftware,KiCad,Pcbnew,(5.1.10)-1*%
%TF.CreationDate,2023-06-15T14:08:20-05:00*%
%TF.ProjectId,1 Player,3120506c-6179-4657-922e-6b696361645f,rev?*%
%TF.SameCoordinates,Original*%
%TF.FileFunction,Soldermask,Top*%
%TF.FilePolarity,Negative*%
%FSLAX46Y46*%
G04 Gerber Fmt 4.6, Leading zero omitted, Abs format (unit mm)*
G04 Created by KiCad (PCBNEW (5.1.10)-1) date 2023-06-15 14:08:20*
%MOMM*%
%LPD*%
G01*
G04 APERTURE LIST*
%ADD10C,0.010000*%
%ADD11C,3.500000*%
%ADD12C,1.600000*%
%ADD13R,1.600000X1.600000*%
G04 APERTURE END LIST*
D10*
%TO.C,G\u002A\u002A\u002A*%
G36*
X176408832Y-79284285D02*
G01*
X176372723Y-79596971D01*
X176307411Y-79877939D01*
X176217317Y-80122816D01*
X176106865Y-80327228D01*
X175980478Y-80486802D01*
X175842577Y-80597167D01*
X175697586Y-80653948D01*
X175549928Y-80652773D01*
X175404024Y-80589269D01*
X175264298Y-80459063D01*
X175245177Y-80434864D01*
X175099044Y-80191898D01*
X174986132Y-79896442D01*
X174908849Y-79561711D01*
X174869603Y-79200921D01*
X174870801Y-78827285D01*
X174900349Y-78542142D01*
X174944895Y-78308454D01*
X175008849Y-78104442D01*
X175105583Y-77887463D01*
X175105670Y-77887285D01*
X175237179Y-77672331D01*
X175382326Y-77525486D01*
X175536366Y-77447308D01*
X175694553Y-77438355D01*
X175852142Y-77499184D01*
X176004387Y-77630352D01*
X176108566Y-77769496D01*
X176257920Y-78067234D01*
X176358595Y-78415623D01*
X176409827Y-78810808D01*
X176410853Y-79248937D01*
X176408832Y-79284285D01*
G37*
X176408832Y-79284285D02*
X176372723Y-79596971D01*
X176307411Y-79877939D01*
X176217317Y-80122816D01*
X176106865Y-80327228D01*
X175980478Y-80486802D01*
X175842577Y-80597167D01*
X175697586Y-80653948D01*
X175549928Y-80652773D01*
X175404024Y-80589269D01*
X175264298Y-80459063D01*
X175245177Y-80434864D01*
X175099044Y-80191898D01*
X174986132Y-79896442D01*
X174908849Y-79561711D01*
X174869603Y-79200921D01*
X174870801Y-78827285D01*
X174900349Y-78542142D01*
X174944895Y-78308454D01*
X175008849Y-78104442D01*
X175105583Y-77887463D01*
X175105670Y-77887285D01*
X175237179Y-77672331D01*
X175382326Y-77525486D01*
X175536366Y-77447308D01*
X175694553Y-77438355D01*
X175852142Y-77499184D01*
X176004387Y-77630352D01*
X176108566Y-77769496D01*
X176257920Y-78067234D01*
X176358595Y-78415623D01*
X176409827Y-78810808D01*
X176410853Y-79248937D01*
X176408832Y-79284285D01*
G36*
X176502785Y-83817449D02*
G01*
X176374620Y-83811282D01*
X176267622Y-83798144D01*
X176222659Y-83786960D01*
X176156296Y-83784140D01*
X176064893Y-83825284D01*
X175982468Y-83880224D01*
X175887152Y-83946049D01*
X175816338Y-83990067D01*
X175790880Y-84001428D01*
X175776375Y-83969270D01*
X175768481Y-83889210D01*
X175768000Y-83860459D01*
X175780531Y-83752333D01*
X175827322Y-83683433D01*
X175859029Y-83659844D01*
X175950059Y-83600199D01*
X175868240Y-83489534D01*
X175822585Y-83411452D01*
X175794290Y-83314424D01*
X175778203Y-83176822D01*
X175773369Y-83091434D01*
X175760316Y-82804000D01*
X176058286Y-82804000D01*
X176058286Y-83041659D01*
X176078579Y-83250106D01*
X176136042Y-83417663D01*
X176225544Y-83535858D01*
X176341957Y-83596218D01*
X176397687Y-83602285D01*
X176428351Y-83597497D01*
X176447366Y-83574600D01*
X176456491Y-83520794D01*
X176457481Y-83423283D01*
X176452095Y-83269265D01*
X176449996Y-83221285D01*
X176433051Y-82840285D01*
X176711428Y-82840285D01*
X176711428Y-83820000D01*
X176502785Y-83817449D01*
G37*
X176502785Y-83817449D02*
X176374620Y-83811282D01*
X176267622Y-83798144D01*
X176222659Y-83786960D01*
X176156296Y-83784140D01*
X176064893Y-83825284D01*
X175982468Y-83880224D01*
X175887152Y-83946049D01*
X175816338Y-83990067D01*
X175790880Y-84001428D01*
X175776375Y-83969270D01*
X175768481Y-83889210D01*
X175768000Y-83860459D01*
X175780531Y-83752333D01*
X175827322Y-83683433D01*
X175859029Y-83659844D01*
X175950059Y-83600199D01*
X175868240Y-83489534D01*
X175822585Y-83411452D01*
X175794290Y-83314424D01*
X175778203Y-83176822D01*
X175773369Y-83091434D01*
X175760316Y-82804000D01*
X176058286Y-82804000D01*
X176058286Y-83041659D01*
X176078579Y-83250106D01*
X176136042Y-83417663D01*
X176225544Y-83535858D01*
X176341957Y-83596218D01*
X176397687Y-83602285D01*
X176428351Y-83597497D01*
X176447366Y-83574600D01*
X176456491Y-83520794D01*
X176457481Y-83423283D01*
X176452095Y-83269265D01*
X176449996Y-83221285D01*
X176433051Y-82840285D01*
X176711428Y-82840285D01*
X176711428Y-83820000D01*
X176502785Y-83817449D01*
G36*
X176704656Y-85207928D02*
G01*
X176695387Y-85273161D01*
X176671659Y-85309386D01*
X176615567Y-85326585D01*
X176509202Y-85334737D01*
X176474046Y-85336464D01*
X176245833Y-85326924D01*
X176061086Y-85276275D01*
X175928732Y-85187317D01*
X175903382Y-85157424D01*
X175859047Y-85075515D01*
X175820729Y-84968212D01*
X175794841Y-84860353D01*
X175787796Y-84776776D01*
X175797244Y-84746279D01*
X175843240Y-84733192D01*
X175929274Y-84727184D01*
X175937333Y-84727142D01*
X176020874Y-84735034D01*
X176053876Y-84768750D01*
X176058286Y-84812963D01*
X176080417Y-84901756D01*
X176133491Y-84994392D01*
X176180342Y-85045257D01*
X176234404Y-85074037D01*
X176316872Y-85086893D01*
X176448943Y-85089989D01*
X176462361Y-85090000D01*
X176716026Y-85090000D01*
X176704656Y-85207928D01*
G37*
X176704656Y-85207928D02*
X176695387Y-85273161D01*
X176671659Y-85309386D01*
X176615567Y-85326585D01*
X176509202Y-85334737D01*
X176474046Y-85336464D01*
X176245833Y-85326924D01*
X176061086Y-85276275D01*
X175928732Y-85187317D01*
X175903382Y-85157424D01*
X175859047Y-85075515D01*
X175820729Y-84968212D01*
X175794841Y-84860353D01*
X175787796Y-84776776D01*
X175797244Y-84746279D01*
X175843240Y-84733192D01*
X175929274Y-84727184D01*
X175937333Y-84727142D01*
X176020874Y-84735034D01*
X176053876Y-84768750D01*
X176058286Y-84812963D01*
X176080417Y-84901756D01*
X176133491Y-84994392D01*
X176180342Y-85045257D01*
X176234404Y-85074037D01*
X176316872Y-85086893D01*
X176448943Y-85089989D01*
X176462361Y-85090000D01*
X176716026Y-85090000D01*
X176704656Y-85207928D01*
G36*
X176701812Y-85597284D02*
G01*
X176667613Y-85632816D01*
X176647928Y-85635389D01*
X176603779Y-85639500D01*
X176623152Y-85658760D01*
X176647928Y-85673478D01*
X176695723Y-85737568D01*
X176710325Y-85832564D01*
X176689252Y-85923614D01*
X176667885Y-85953600D01*
X176581762Y-85994150D01*
X176480518Y-85978821D01*
X176400484Y-85921792D01*
X176356965Y-85865138D01*
X176355266Y-85815649D01*
X176393173Y-85740363D01*
X176454053Y-85634285D01*
X176337812Y-85634841D01*
X176243985Y-85643065D01*
X176181646Y-85662055D01*
X176119734Y-85733939D01*
X176072708Y-85839124D01*
X176058286Y-85922186D01*
X176046888Y-85971066D01*
X175999808Y-85992706D01*
X175913143Y-85997142D01*
X175825153Y-85991831D01*
X175780924Y-85965710D01*
X175773236Y-85903501D01*
X175794871Y-85789925D01*
X175801699Y-85761285D01*
X175856061Y-85605838D01*
X175938999Y-85496274D01*
X176060955Y-85426345D01*
X176232366Y-85389799D01*
X176438120Y-85380285D01*
X176548143Y-85380285D01*
X176548143Y-85779428D01*
X176502983Y-85797840D01*
X176500669Y-85818435D01*
X176538130Y-85855924D01*
X176548143Y-85857442D01*
X176590689Y-85829193D01*
X176595616Y-85818435D01*
X176578101Y-85785349D01*
X176548143Y-85779428D01*
X176548143Y-85380285D01*
X176711428Y-85380285D01*
X176711428Y-85507285D01*
X176701812Y-85597284D01*
G37*
X176701812Y-85597284D02*
X176667613Y-85632816D01*
X176647928Y-85635389D01*
X176603779Y-85639500D01*
X176623152Y-85658760D01*
X176647928Y-85673478D01*
X176695723Y-85737568D01*
X176710325Y-85832564D01*
X176689252Y-85923614D01*
X176667885Y-85953600D01*
X176581762Y-85994150D01*
X176480518Y-85978821D01*
X176400484Y-85921792D01*
X176356965Y-85865138D01*
X176355266Y-85815649D01*
X176393173Y-85740363D01*
X176454053Y-85634285D01*
X176337812Y-85634841D01*
X176243985Y-85643065D01*
X176181646Y-85662055D01*
X176119734Y-85733939D01*
X176072708Y-85839124D01*
X176058286Y-85922186D01*
X176046888Y-85971066D01*
X175999808Y-85992706D01*
X175913143Y-85997142D01*
X175825153Y-85991831D01*
X175780924Y-85965710D01*
X175773236Y-85903501D01*
X175794871Y-85789925D01*
X175801699Y-85761285D01*
X175856061Y-85605838D01*
X175938999Y-85496274D01*
X176060955Y-85426345D01*
X176232366Y-85389799D01*
X176438120Y-85380285D01*
X176548143Y-85380285D01*
X176548143Y-85779428D01*
X176502983Y-85797840D01*
X176500669Y-85818435D01*
X176538130Y-85855924D01*
X176548143Y-85857442D01*
X176590689Y-85829193D01*
X176595616Y-85818435D01*
X176578101Y-85785349D01*
X176548143Y-85779428D01*
X176548143Y-85380285D01*
X176711428Y-85380285D01*
X176711428Y-85507285D01*
X176701812Y-85597284D01*
G36*
X176693285Y-88228714D02*
G01*
X176466571Y-88239515D01*
X176231806Y-88228666D01*
X176048009Y-88169393D01*
X175912571Y-88058928D01*
X175822887Y-87894500D01*
X175776348Y-87673342D01*
X175768000Y-87497591D01*
X175770829Y-87358655D01*
X175778338Y-87249105D01*
X175789061Y-87188047D01*
X175792190Y-87182476D01*
X175841987Y-87165872D01*
X175930149Y-87158327D01*
X175937333Y-87158285D01*
X176058286Y-87158285D01*
X176058286Y-87482833D01*
X176060439Y-87643952D01*
X176069329Y-87751190D01*
X176088600Y-87823175D01*
X176121895Y-87878530D01*
X176139928Y-87900158D01*
X176234990Y-87973300D01*
X176345022Y-88016679D01*
X176468474Y-88040423D01*
X176448642Y-87581211D01*
X176428810Y-87122000D01*
X176713319Y-87122000D01*
X176693285Y-88228714D01*
G37*
X176693285Y-88228714D02*
X176466571Y-88239515D01*
X176231806Y-88228666D01*
X176048009Y-88169393D01*
X175912571Y-88058928D01*
X175822887Y-87894500D01*
X175776348Y-87673342D01*
X175768000Y-87497591D01*
X175770829Y-87358655D01*
X175778338Y-87249105D01*
X175789061Y-87188047D01*
X175792190Y-87182476D01*
X175841987Y-87165872D01*
X175930149Y-87158327D01*
X175937333Y-87158285D01*
X176058286Y-87158285D01*
X176058286Y-87482833D01*
X176060439Y-87643952D01*
X176069329Y-87751190D01*
X176088600Y-87823175D01*
X176121895Y-87878530D01*
X176139928Y-87900158D01*
X176234990Y-87973300D01*
X176345022Y-88016679D01*
X176468474Y-88040423D01*
X176448642Y-87581211D01*
X176428810Y-87122000D01*
X176713319Y-87122000D01*
X176693285Y-88228714D01*
G36*
X176295074Y-89262857D02*
G01*
X176178008Y-89259373D01*
X176109945Y-89242324D01*
X176067408Y-89201816D01*
X176041074Y-89155802D01*
X176001506Y-89053756D01*
X175985714Y-88964310D01*
X175957950Y-88882232D01*
X175887437Y-88793989D01*
X175876857Y-88784354D01*
X175804739Y-88706750D01*
X175773557Y-88621472D01*
X175768000Y-88526156D01*
X175778305Y-88408143D01*
X175811513Y-88348983D01*
X175825396Y-88341453D01*
X175929218Y-88314766D01*
X175990984Y-88338734D01*
X176021672Y-88421460D01*
X176029083Y-88491785D01*
X176041119Y-88599053D01*
X176065685Y-88653373D01*
X176112469Y-88674310D01*
X176120043Y-88675509D01*
X176166466Y-88691094D01*
X176193018Y-88733125D01*
X176207412Y-88819672D01*
X176212968Y-88893224D01*
X176218413Y-88940792D01*
X176223891Y-88921896D01*
X176228800Y-88842642D01*
X176232538Y-88709134D01*
X176232853Y-88691357D01*
X176239714Y-88283142D01*
X176493714Y-88283142D01*
X176493714Y-89262857D01*
X176295074Y-89262857D01*
G37*
X176295074Y-89262857D02*
X176178008Y-89259373D01*
X176109945Y-89242324D01*
X176067408Y-89201816D01*
X176041074Y-89155802D01*
X176001506Y-89053756D01*
X175985714Y-88964310D01*
X175957950Y-88882232D01*
X175887437Y-88793989D01*
X175876857Y-88784354D01*
X175804739Y-88706750D01*
X175773557Y-88621472D01*
X175768000Y-88526156D01*
X175778305Y-88408143D01*
X175811513Y-88348983D01*
X175825396Y-88341453D01*
X175929218Y-88314766D01*
X175990984Y-88338734D01*
X176021672Y-88421460D01*
X176029083Y-88491785D01*
X176041119Y-88599053D01*
X176065685Y-88653373D01*
X176112469Y-88674310D01*
X176120043Y-88675509D01*
X176166466Y-88691094D01*
X176193018Y-88733125D01*
X176207412Y-88819672D01*
X176212968Y-88893224D01*
X176218413Y-88940792D01*
X176223891Y-88921896D01*
X176228800Y-88842642D01*
X176232538Y-88709134D01*
X176232853Y-88691357D01*
X176239714Y-88283142D01*
X176493714Y-88283142D01*
X176493714Y-89262857D01*
X176295074Y-89262857D01*
G36*
X176117217Y-89598500D02*
G01*
X176100374Y-89766951D01*
X176078278Y-89967119D01*
X176055387Y-90158802D01*
X176052831Y-90179071D01*
X176012505Y-90496571D01*
X175890253Y-90496571D01*
X175807516Y-90490487D01*
X175775523Y-90457769D01*
X175772539Y-90378643D01*
X175779639Y-90290451D01*
X175794810Y-90153915D01*
X175815352Y-89992456D01*
X175825899Y-89916000D01*
X175856520Y-89699903D01*
X175879890Y-89545297D01*
X175899596Y-89441916D01*
X175919227Y-89379495D01*
X175942372Y-89347766D01*
X175972620Y-89336464D01*
X176013560Y-89335324D01*
X176028855Y-89335428D01*
X176141278Y-89335428D01*
X176117217Y-89598500D01*
G37*
X176117217Y-89598500D02*
X176100374Y-89766951D01*
X176078278Y-89967119D01*
X176055387Y-90158802D01*
X176052831Y-90179071D01*
X176012505Y-90496571D01*
X175890253Y-90496571D01*
X175807516Y-90490487D01*
X175775523Y-90457769D01*
X175772539Y-90378643D01*
X175779639Y-90290451D01*
X175794810Y-90153915D01*
X175815352Y-89992456D01*
X175825899Y-89916000D01*
X175856520Y-89699903D01*
X175879890Y-89545297D01*
X175899596Y-89441916D01*
X175919227Y-89379495D01*
X175942372Y-89347766D01*
X175972620Y-89336464D01*
X176013560Y-89335324D01*
X176028855Y-89335428D01*
X176141278Y-89335428D01*
X176117217Y-89598500D01*
G36*
X175768000Y-91766571D02*
G01*
X175768000Y-90569143D01*
X176058286Y-90569143D01*
X176058286Y-91512571D01*
X176421143Y-91512571D01*
X176421143Y-90614500D01*
X176533727Y-90591983D01*
X176622352Y-90581999D01*
X176678558Y-90589400D01*
X176678869Y-90589589D01*
X176689922Y-90630933D01*
X176699366Y-90732107D01*
X176706511Y-90880374D01*
X176710662Y-91062996D01*
X176711428Y-91188141D01*
X176711428Y-91766571D01*
X175768000Y-91766571D01*
G37*
X175768000Y-91766571D02*
X175768000Y-90569143D01*
X176058286Y-90569143D01*
X176058286Y-91512571D01*
X176421143Y-91512571D01*
X176421143Y-90614500D01*
X176533727Y-90591983D01*
X176622352Y-90581999D01*
X176678558Y-90589400D01*
X176678869Y-90589589D01*
X176689922Y-90630933D01*
X176699366Y-90732107D01*
X176706511Y-90880374D01*
X176710662Y-91062996D01*
X176711428Y-91188141D01*
X176711428Y-91766571D01*
X175768000Y-91766571D01*
G36*
X176704292Y-92923565D02*
G01*
X176695967Y-92970212D01*
X176674192Y-92998336D01*
X176623769Y-93012624D01*
X176529497Y-93017760D01*
X176396484Y-93018428D01*
X176186484Y-93005504D01*
X176026474Y-92961836D01*
X175910604Y-92880076D01*
X175833026Y-92752881D01*
X175787890Y-92572904D01*
X175769348Y-92332799D01*
X175768056Y-92229214D01*
X175768000Y-91839143D01*
X176058286Y-91839143D01*
X176058286Y-92215249D01*
X176060128Y-92391485D01*
X176067432Y-92511924D01*
X176082865Y-92593286D01*
X176109090Y-92652292D01*
X176133491Y-92686963D01*
X176211840Y-92757307D01*
X176315040Y-92781797D01*
X176346669Y-92782571D01*
X176474924Y-92789070D01*
X176595663Y-92804793D01*
X176599971Y-92805637D01*
X176679550Y-92830796D01*
X176706028Y-92875882D01*
X176704292Y-92923565D01*
G37*
X176704292Y-92923565D02*
X176695967Y-92970212D01*
X176674192Y-92998336D01*
X176623769Y-93012624D01*
X176529497Y-93017760D01*
X176396484Y-93018428D01*
X176186484Y-93005504D01*
X176026474Y-92961836D01*
X175910604Y-92880076D01*
X175833026Y-92752881D01*
X175787890Y-92572904D01*
X175769348Y-92332799D01*
X175768056Y-92229214D01*
X175768000Y-91839143D01*
X176058286Y-91839143D01*
X176058286Y-92215249D01*
X176060128Y-92391485D01*
X176067432Y-92511924D01*
X176082865Y-92593286D01*
X176109090Y-92652292D01*
X176133491Y-92686963D01*
X176211840Y-92757307D01*
X176315040Y-92781797D01*
X176346669Y-92782571D01*
X176474924Y-92789070D01*
X176595663Y-92804793D01*
X176599971Y-92805637D01*
X176679550Y-92830796D01*
X176706028Y-92875882D01*
X176704292Y-92923565D01*
G36*
X178793856Y-81020773D02*
G01*
X178785988Y-81147025D01*
X178767819Y-81245935D01*
X178734933Y-81340111D01*
X178682917Y-81452158D01*
X178673404Y-81471473D01*
X178548762Y-81673971D01*
X178386760Y-81865291D01*
X178206817Y-82025235D01*
X178043542Y-82126635D01*
X177939049Y-82168242D01*
X177798767Y-82214167D01*
X177687859Y-82245261D01*
X177408937Y-82280693D01*
X177123247Y-82251371D01*
X176845397Y-82161890D01*
X176589992Y-82016848D01*
X176384372Y-81834989D01*
X176239525Y-81653606D01*
X176124505Y-81464020D01*
X176043933Y-81278726D01*
X176002429Y-81110218D01*
X176004615Y-80970991D01*
X176036628Y-80894781D01*
X176120337Y-80831713D01*
X176265154Y-80795021D01*
X176270589Y-80794285D01*
X176501986Y-80731164D01*
X176733764Y-80609717D01*
X176948884Y-80442069D01*
X177130306Y-80240342D01*
X177202714Y-80131070D01*
X177260964Y-80008906D01*
X177315954Y-79856316D01*
X177343377Y-79757089D01*
X177386449Y-79598583D01*
X177432306Y-79499763D01*
X177490655Y-79448074D01*
X177571202Y-79430961D01*
X177595800Y-79430613D01*
X177807944Y-79464487D01*
X178030830Y-79555227D01*
X178247068Y-79692799D01*
X178439270Y-79867174D01*
X178519947Y-79963732D01*
X178641420Y-80139076D01*
X178722391Y-80298138D01*
X178770162Y-80464238D01*
X178792038Y-80660693D01*
X178795839Y-80844571D01*
X178793856Y-81020773D01*
G37*
X178793856Y-81020773D02*
X178785988Y-81147025D01*
X178767819Y-81245935D01*
X178734933Y-81340111D01*
X178682917Y-81452158D01*
X178673404Y-81471473D01*
X178548762Y-81673971D01*
X178386760Y-81865291D01*
X178206817Y-82025235D01*
X178043542Y-82126635D01*
X177939049Y-82168242D01*
X177798767Y-82214167D01*
X177687859Y-82245261D01*
X177408937Y-82280693D01*
X177123247Y-82251371D01*
X176845397Y-82161890D01*
X176589992Y-82016848D01*
X176384372Y-81834989D01*
X176239525Y-81653606D01*
X176124505Y-81464020D01*
X176043933Y-81278726D01*
X176002429Y-81110218D01*
X176004615Y-80970991D01*
X176036628Y-80894781D01*
X176120337Y-80831713D01*
X176265154Y-80795021D01*
X176270589Y-80794285D01*
X176501986Y-80731164D01*
X176733764Y-80609717D01*
X176948884Y-80442069D01*
X177130306Y-80240342D01*
X177202714Y-80131070D01*
X177260964Y-80008906D01*
X177315954Y-79856316D01*
X177343377Y-79757089D01*
X177386449Y-79598583D01*
X177432306Y-79499763D01*
X177490655Y-79448074D01*
X177571202Y-79430961D01*
X177595800Y-79430613D01*
X177807944Y-79464487D01*
X178030830Y-79555227D01*
X178247068Y-79692799D01*
X178439270Y-79867174D01*
X178519947Y-79963732D01*
X178641420Y-80139076D01*
X178722391Y-80298138D01*
X178770162Y-80464238D01*
X178792038Y-80660693D01*
X178795839Y-80844571D01*
X178793856Y-81020773D01*
G36*
X176704696Y-89518733D02*
G01*
X176691959Y-89658900D01*
X176670215Y-89856713D01*
X176657345Y-89970428D01*
X176637385Y-90148410D01*
X176620710Y-90299985D01*
X176608880Y-90410766D01*
X176603454Y-90466364D01*
X176603279Y-90469357D01*
X176570893Y-90487513D01*
X176492416Y-90496394D01*
X176478232Y-90496571D01*
X176380450Y-90482210D01*
X176337967Y-90435491D01*
X176337298Y-90433071D01*
X176323508Y-90388351D01*
X176317822Y-90414118D01*
X176316495Y-90433071D01*
X176292941Y-90478405D01*
X176219869Y-90495698D01*
X176185286Y-90496571D01*
X176093958Y-90484864D01*
X176061771Y-90452488D01*
X176061838Y-90451214D01*
X176067841Y-90400085D01*
X176081801Y-90291757D01*
X176101786Y-90140925D01*
X176125865Y-89962285D01*
X176132163Y-89916000D01*
X176156858Y-89732799D01*
X176177771Y-89573807D01*
X176193008Y-89453718D01*
X176200674Y-89387224D01*
X176201181Y-89380785D01*
X176234788Y-89348178D01*
X176312285Y-89335428D01*
X176363067Y-89338497D01*
X176363067Y-90131492D01*
X176357341Y-90181666D01*
X176356990Y-90206285D01*
X176360773Y-90272301D01*
X176370192Y-90280081D01*
X176373584Y-90269785D01*
X176379227Y-90177757D01*
X176373584Y-90142785D01*
X176363067Y-90131492D01*
X176363067Y-89338497D01*
X176375682Y-89339260D01*
X176399352Y-89356342D01*
X176399352Y-89804921D01*
X176393626Y-89855095D01*
X176393275Y-89879714D01*
X176397058Y-89945729D01*
X176406477Y-89953509D01*
X176409870Y-89943214D01*
X176415513Y-89851185D01*
X176409870Y-89816214D01*
X176399352Y-89804921D01*
X176399352Y-89356342D01*
X176408490Y-89362938D01*
X176421556Y-89424735D01*
X176425352Y-89525928D01*
X176428835Y-89626021D01*
X176434978Y-89662677D01*
X176446003Y-89633451D01*
X176464131Y-89535898D01*
X176474799Y-89471500D01*
X176496090Y-89381732D01*
X176533325Y-89343387D01*
X176604215Y-89335428D01*
X176648966Y-89336148D01*
X176680560Y-89344919D01*
X176699826Y-89371661D01*
X176707595Y-89426293D01*
X176704696Y-89518733D01*
G37*
X176704696Y-89518733D02*
X176691959Y-89658900D01*
X176670215Y-89856713D01*
X176657345Y-89970428D01*
X176637385Y-90148410D01*
X176620710Y-90299985D01*
X176608880Y-90410766D01*
X176603454Y-90466364D01*
X176603279Y-90469357D01*
X176570893Y-90487513D01*
X176492416Y-90496394D01*
X176478232Y-90496571D01*
X176380450Y-90482210D01*
X176337967Y-90435491D01*
X176337298Y-90433071D01*
X176323508Y-90388351D01*
X176317822Y-90414118D01*
X176316495Y-90433071D01*
X176292941Y-90478405D01*
X176219869Y-90495698D01*
X176185286Y-90496571D01*
X176093958Y-90484864D01*
X176061771Y-90452488D01*
X176061838Y-90451214D01*
X176067841Y-90400085D01*
X176081801Y-90291757D01*
X176101786Y-90140925D01*
X176125865Y-89962285D01*
X176132163Y-89916000D01*
X176156858Y-89732799D01*
X176177771Y-89573807D01*
X176193008Y-89453718D01*
X176200674Y-89387224D01*
X176201181Y-89380785D01*
X176234788Y-89348178D01*
X176312285Y-89335428D01*
X176363067Y-89338497D01*
X176363067Y-90131492D01*
X176357341Y-90181666D01*
X176356990Y-90206285D01*
X176360773Y-90272301D01*
X176370192Y-90280081D01*
X176373584Y-90269785D01*
X176379227Y-90177757D01*
X176373584Y-90142785D01*
X176363067Y-90131492D01*
X176363067Y-89338497D01*
X176375682Y-89339260D01*
X176399352Y-89356342D01*
X176399352Y-89804921D01*
X176393626Y-89855095D01*
X176393275Y-89879714D01*
X176397058Y-89945729D01*
X176406477Y-89953509D01*
X176409870Y-89943214D01*
X176415513Y-89851185D01*
X176409870Y-89816214D01*
X176399352Y-89804921D01*
X176399352Y-89356342D01*
X176408490Y-89362938D01*
X176421556Y-89424735D01*
X176425352Y-89525928D01*
X176428835Y-89626021D01*
X176434978Y-89662677D01*
X176446003Y-89633451D01*
X176464131Y-89535898D01*
X176474799Y-89471500D01*
X176496090Y-89381732D01*
X176533325Y-89343387D01*
X176604215Y-89335428D01*
X176648966Y-89336148D01*
X176680560Y-89344919D01*
X176699826Y-89371661D01*
X176707595Y-89426293D01*
X176704696Y-89518733D01*
G36*
X176141351Y-84763428D02*
G01*
X176118219Y-84518500D01*
X176102176Y-84309356D01*
X176095914Y-84133152D01*
X176099422Y-84001665D01*
X176112689Y-83926675D01*
X176118762Y-83916762D01*
X176168558Y-83900157D01*
X176256720Y-83892613D01*
X176263905Y-83892571D01*
X176384857Y-83892571D01*
X176384857Y-84763428D01*
X176141351Y-84763428D01*
G37*
X176141351Y-84763428D02*
X176118219Y-84518500D01*
X176102176Y-84309356D01*
X176095914Y-84133152D01*
X176099422Y-84001665D01*
X176112689Y-83926675D01*
X176118762Y-83916762D01*
X176168558Y-83900157D01*
X176256720Y-83892613D01*
X176263905Y-83892571D01*
X176384857Y-83892571D01*
X176384857Y-84763428D01*
X176141351Y-84763428D01*
G36*
X176130857Y-86868000D02*
G01*
X176130857Y-85960857D01*
X176384857Y-85960857D01*
X176384857Y-86868000D01*
X176130857Y-86868000D01*
G37*
X176130857Y-86868000D02*
X176130857Y-85960857D01*
X176384857Y-85960857D01*
X176384857Y-86868000D01*
X176130857Y-86868000D01*
G36*
X177793040Y-76547917D02*
G01*
X177776376Y-76769391D01*
X177749467Y-76925714D01*
X177666127Y-77186955D01*
X177556903Y-77425620D01*
X177431134Y-77623714D01*
X177327830Y-77738238D01*
X177171813Y-77842041D01*
X177015212Y-77875729D01*
X176861498Y-77841641D01*
X176714143Y-77742120D01*
X176576619Y-77579508D01*
X176452397Y-77356145D01*
X176345318Y-77075543D01*
X176307305Y-76930750D01*
X176281438Y-76767502D01*
X176265363Y-76566612D01*
X176257907Y-76363285D01*
X176254841Y-76173040D01*
X176254773Y-75997912D01*
X176257530Y-75856642D01*
X176262942Y-75767974D01*
X176263370Y-75764571D01*
X176308835Y-75535338D01*
X176380930Y-75306559D01*
X176472542Y-75092924D01*
X176576561Y-74909125D01*
X176685877Y-74769853D01*
X176780634Y-74695883D01*
X176924383Y-74649816D01*
X177082946Y-74641975D01*
X177227131Y-74671478D01*
X177301024Y-74711595D01*
X177408791Y-74823862D01*
X177519198Y-74985655D01*
X177619445Y-75175592D01*
X177696734Y-75372290D01*
X177697009Y-75373154D01*
X177737813Y-75548546D01*
X177768513Y-75774283D01*
X177788414Y-76029799D01*
X177796821Y-76294532D01*
X177793040Y-76547917D01*
G37*
X177793040Y-76547917D02*
X177776376Y-76769391D01*
X177749467Y-76925714D01*
X177666127Y-77186955D01*
X177556903Y-77425620D01*
X177431134Y-77623714D01*
X177327830Y-77738238D01*
X177171813Y-77842041D01*
X177015212Y-77875729D01*
X176861498Y-77841641D01*
X176714143Y-77742120D01*
X176576619Y-77579508D01*
X176452397Y-77356145D01*
X176345318Y-77075543D01*
X176307305Y-76930750D01*
X176281438Y-76767502D01*
X176265363Y-76566612D01*
X176257907Y-76363285D01*
X176254841Y-76173040D01*
X176254773Y-75997912D01*
X176257530Y-75856642D01*
X176262942Y-75767974D01*
X176263370Y-75764571D01*
X176308835Y-75535338D01*
X176380930Y-75306559D01*
X176472542Y-75092924D01*
X176576561Y-74909125D01*
X176685877Y-74769853D01*
X176780634Y-74695883D01*
X176924383Y-74649816D01*
X177082946Y-74641975D01*
X177227131Y-74671478D01*
X177301024Y-74711595D01*
X177408791Y-74823862D01*
X177519198Y-74985655D01*
X177619445Y-75175592D01*
X177696734Y-75372290D01*
X177697009Y-75373154D01*
X177737813Y-75548546D01*
X177768513Y-75774283D01*
X177788414Y-76029799D01*
X177796821Y-76294532D01*
X177793040Y-76547917D01*
G36*
X176421143Y-92564857D02*
G01*
X176421143Y-92226190D01*
X176423582Y-92075979D01*
X176430125Y-91954334D01*
X176439608Y-91878703D01*
X176445333Y-91863333D01*
X176495130Y-91846729D01*
X176583291Y-91839185D01*
X176590476Y-91839143D01*
X176711428Y-91839143D01*
X176711428Y-92564857D01*
X176421143Y-92564857D01*
G37*
X176421143Y-92564857D02*
X176421143Y-92226190D01*
X176423582Y-92075979D01*
X176430125Y-91954334D01*
X176439608Y-91878703D01*
X176445333Y-91863333D01*
X176495130Y-91846729D01*
X176583291Y-91839185D01*
X176590476Y-91839143D01*
X176711428Y-91839143D01*
X176711428Y-92564857D01*
X176421143Y-92564857D01*
G36*
X176825344Y-93414491D02*
G01*
X176740715Y-93487961D01*
X176641889Y-93508285D01*
X176532615Y-93478615D01*
X176456638Y-93403438D01*
X176422495Y-93303508D01*
X176438721Y-93199579D01*
X176487500Y-93132909D01*
X176547934Y-93101508D01*
X176547934Y-93241084D01*
X176501272Y-93246843D01*
X176493714Y-93273567D01*
X176512514Y-93321137D01*
X176527858Y-93326857D01*
X176576137Y-93304661D01*
X176575934Y-93262003D01*
X176547934Y-93241084D01*
X176547934Y-93101508D01*
X176592397Y-93078404D01*
X176638857Y-93080643D01*
X176638857Y-93151158D01*
X176587345Y-93156860D01*
X176593500Y-93169460D01*
X176616571Y-93170948D01*
X176616571Y-93381366D01*
X176595232Y-93385821D01*
X176567774Y-93417571D01*
X176609037Y-93433669D01*
X176647928Y-93435158D01*
X176700319Y-93429063D01*
X176686358Y-93407527D01*
X176676875Y-93401267D01*
X176616571Y-93381366D01*
X176616571Y-93170948D01*
X176667789Y-93174252D01*
X176684214Y-93169460D01*
X176688772Y-93156216D01*
X176638857Y-93151158D01*
X176638857Y-93080643D01*
X176700771Y-93083627D01*
X176792761Y-93139589D01*
X176848500Y-93237302D01*
X176856571Y-93299908D01*
X176825344Y-93414491D01*
G37*
X176825344Y-93414491D02*
X176740715Y-93487961D01*
X176641889Y-93508285D01*
X176532615Y-93478615D01*
X176456638Y-93403438D01*
X176422495Y-93303508D01*
X176438721Y-93199579D01*
X176487500Y-93132909D01*
X176547934Y-93101508D01*
X176547934Y-93241084D01*
X176501272Y-93246843D01*
X176493714Y-93273567D01*
X176512514Y-93321137D01*
X176527858Y-93326857D01*
X176576137Y-93304661D01*
X176575934Y-93262003D01*
X176547934Y-93241084D01*
X176547934Y-93101508D01*
X176592397Y-93078404D01*
X176638857Y-93080643D01*
X176638857Y-93151158D01*
X176587345Y-93156860D01*
X176593500Y-93169460D01*
X176616571Y-93170948D01*
X176616571Y-93381366D01*
X176595232Y-93385821D01*
X176567774Y-93417571D01*
X176609037Y-93433669D01*
X176647928Y-93435158D01*
X176700319Y-93429063D01*
X176686358Y-93407527D01*
X176676875Y-93401267D01*
X176616571Y-93381366D01*
X176616571Y-93170948D01*
X176667789Y-93174252D01*
X176684214Y-93169460D01*
X176688772Y-93156216D01*
X176638857Y-93151158D01*
X176638857Y-93080643D01*
X176700771Y-93083627D01*
X176792761Y-93139589D01*
X176848500Y-93237302D01*
X176856571Y-93299908D01*
X176825344Y-93414491D01*
G36*
X178393073Y-100389446D02*
G01*
X178340092Y-100610119D01*
X178259462Y-100771709D01*
X178122832Y-100913962D01*
X177948269Y-101006630D01*
X177751637Y-101048835D01*
X177548799Y-101039701D01*
X177355620Y-100978349D01*
X177187965Y-100863902D01*
X177157155Y-100832682D01*
X177067802Y-100691573D01*
X177004491Y-100503065D01*
X176970162Y-100288556D01*
X176967755Y-100069445D01*
X177000211Y-99867128D01*
X177017060Y-99813258D01*
X177096654Y-99635745D01*
X177194663Y-99513018D01*
X177325639Y-99427396D01*
X177340186Y-99420613D01*
X177538874Y-99361395D01*
X177643851Y-99356677D01*
X177643851Y-99762318D01*
X177481893Y-99798204D01*
X177357154Y-99886538D01*
X177278863Y-100021154D01*
X177255714Y-100171300D01*
X177268365Y-100299194D01*
X177299815Y-100415755D01*
X177310518Y-100439583D01*
X177384829Y-100542650D01*
X177486457Y-100599607D01*
X177633954Y-100619824D01*
X177668252Y-100620285D01*
X177861673Y-100598592D01*
X177999682Y-100531157D01*
X178085903Y-100414449D01*
X178123960Y-100244934D01*
X178126571Y-100173409D01*
X178097214Y-100002992D01*
X178010127Y-99876210D01*
X177866787Y-99795023D01*
X177833802Y-99785045D01*
X177643851Y-99762318D01*
X177643851Y-99356677D01*
X177747217Y-99352031D01*
X177945547Y-99389831D01*
X178114194Y-99472106D01*
X178188339Y-99536604D01*
X178299769Y-99706228D01*
X178371785Y-99917946D01*
X178403262Y-100152203D01*
X178393073Y-100389446D01*
G37*
X178393073Y-100389446D02*
X178340092Y-100610119D01*
X178259462Y-100771709D01*
X178122832Y-100913962D01*
X177948269Y-101006630D01*
X177751637Y-101048835D01*
X177548799Y-101039701D01*
X177355620Y-100978349D01*
X177187965Y-100863902D01*
X177157155Y-100832682D01*
X177067802Y-100691573D01*
X177004491Y-100503065D01*
X176970162Y-100288556D01*
X176967755Y-100069445D01*
X177000211Y-99867128D01*
X177017060Y-99813258D01*
X177096654Y-99635745D01*
X177194663Y-99513018D01*
X177325639Y-99427396D01*
X177340186Y-99420613D01*
X177538874Y-99361395D01*
X177643851Y-99356677D01*
X177643851Y-99762318D01*
X177481893Y-99798204D01*
X177357154Y-99886538D01*
X177278863Y-100021154D01*
X177255714Y-100171300D01*
X177268365Y-100299194D01*
X177299815Y-100415755D01*
X177310518Y-100439583D01*
X177384829Y-100542650D01*
X177486457Y-100599607D01*
X177633954Y-100619824D01*
X177668252Y-100620285D01*
X177861673Y-100598592D01*
X177999682Y-100531157D01*
X178085903Y-100414449D01*
X178123960Y-100244934D01*
X178126571Y-100173409D01*
X178097214Y-100002992D01*
X178010127Y-99876210D01*
X177866787Y-99795023D01*
X177833802Y-99785045D01*
X177643851Y-99762318D01*
X177643851Y-99356677D01*
X177747217Y-99352031D01*
X177945547Y-99389831D01*
X178114194Y-99472106D01*
X178188339Y-99536604D01*
X178299769Y-99706228D01*
X178371785Y-99917946D01*
X178403262Y-100152203D01*
X178393073Y-100389446D01*
G36*
X178372327Y-102602148D02*
G01*
X178365493Y-102712238D01*
X178354025Y-102794260D01*
X178337203Y-102859333D01*
X178314308Y-102918579D01*
X178311908Y-102924045D01*
X178261615Y-103022173D01*
X178202737Y-103093864D01*
X178123871Y-103142835D01*
X178013612Y-103172802D01*
X177860558Y-103187482D01*
X177653304Y-103190591D01*
X177500519Y-103188495D01*
X176983571Y-103178428D01*
X176983571Y-102815571D01*
X177467395Y-102797428D01*
X177686486Y-102786942D01*
X177843293Y-102771246D01*
X177948102Y-102745447D01*
X178011199Y-102704649D01*
X178042870Y-102643961D01*
X178053401Y-102558487D01*
X178054000Y-102518350D01*
X178054000Y-102398285D01*
X176965428Y-102398285D01*
X176965428Y-101962857D01*
X178054000Y-101962857D01*
X178054066Y-101808642D01*
X178054132Y-101654428D01*
X177828358Y-101667126D01*
X177677009Y-101670108D01*
X177492070Y-101665968D01*
X177312078Y-101655607D01*
X177302149Y-101654797D01*
X177001714Y-101629771D01*
X177001714Y-101199255D01*
X177682071Y-101209128D01*
X178362428Y-101219000D01*
X178372228Y-101992264D01*
X178374975Y-102253282D01*
X178375248Y-102452870D01*
X178372327Y-102602148D01*
G37*
X178372327Y-102602148D02*
X178365493Y-102712238D01*
X178354025Y-102794260D01*
X178337203Y-102859333D01*
X178314308Y-102918579D01*
X178311908Y-102924045D01*
X178261615Y-103022173D01*
X178202737Y-103093864D01*
X178123871Y-103142835D01*
X178013612Y-103172802D01*
X177860558Y-103187482D01*
X177653304Y-103190591D01*
X177500519Y-103188495D01*
X176983571Y-103178428D01*
X176983571Y-102815571D01*
X177467395Y-102797428D01*
X177686486Y-102786942D01*
X177843293Y-102771246D01*
X177948102Y-102745447D01*
X178011199Y-102704649D01*
X178042870Y-102643961D01*
X178053401Y-102558487D01*
X178054000Y-102518350D01*
X178054000Y-102398285D01*
X176965428Y-102398285D01*
X176965428Y-101962857D01*
X178054000Y-101962857D01*
X178054066Y-101808642D01*
X178054132Y-101654428D01*
X177828358Y-101667126D01*
X177677009Y-101670108D01*
X177492070Y-101665968D01*
X177312078Y-101655607D01*
X177302149Y-101654797D01*
X177001714Y-101629771D01*
X177001714Y-101199255D01*
X177682071Y-101209128D01*
X178362428Y-101219000D01*
X178372228Y-101992264D01*
X178374975Y-102253282D01*
X178375248Y-102452870D01*
X178372327Y-102602148D01*
G36*
X178132992Y-93254285D02*
G01*
X178120710Y-92857966D01*
X178113856Y-92680091D01*
X178104214Y-92558761D01*
X178088505Y-92477954D01*
X178063451Y-92421646D01*
X178025772Y-92373813D01*
X178020460Y-92368109D01*
X177953987Y-92305627D01*
X177906427Y-92275155D01*
X177902532Y-92274571D01*
X177891580Y-92308650D01*
X177882424Y-92402074D01*
X177875871Y-92541623D01*
X177872729Y-92714077D01*
X177872571Y-92764428D01*
X177872571Y-93254285D01*
X177546000Y-93254285D01*
X177546000Y-92274571D01*
X177001714Y-92274571D01*
X177001714Y-91839143D01*
X177465740Y-91839143D01*
X177665301Y-91840544D01*
X177808895Y-91846192D01*
X177913094Y-91858251D01*
X177994474Y-91878885D01*
X178069608Y-91910260D01*
X178090838Y-91920785D01*
X178193610Y-91979873D01*
X178269157Y-92045681D01*
X178321858Y-92130224D01*
X178356090Y-92245513D01*
X178376230Y-92403562D01*
X178386656Y-92616383D01*
X178389474Y-92740307D01*
X178398714Y-93254343D01*
X178132992Y-93254285D01*
G37*
X178132992Y-93254285D02*
X178120710Y-92857966D01*
X178113856Y-92680091D01*
X178104214Y-92558761D01*
X178088505Y-92477954D01*
X178063451Y-92421646D01*
X178025772Y-92373813D01*
X178020460Y-92368109D01*
X177953987Y-92305627D01*
X177906427Y-92275155D01*
X177902532Y-92274571D01*
X177891580Y-92308650D01*
X177882424Y-92402074D01*
X177875871Y-92541623D01*
X177872729Y-92714077D01*
X177872571Y-92764428D01*
X177872571Y-93254285D01*
X177546000Y-93254285D01*
X177546000Y-92274571D01*
X177001714Y-92274571D01*
X177001714Y-91839143D01*
X177465740Y-91839143D01*
X177665301Y-91840544D01*
X177808895Y-91846192D01*
X177913094Y-91858251D01*
X177994474Y-91878885D01*
X178069608Y-91910260D01*
X178090838Y-91920785D01*
X178193610Y-91979873D01*
X178269157Y-92045681D01*
X178321858Y-92130224D01*
X178356090Y-92245513D01*
X178376230Y-92403562D01*
X178386656Y-92616383D01*
X178389474Y-92740307D01*
X178398714Y-93254343D01*
X178132992Y-93254285D01*
G36*
X178385869Y-93961857D02*
G01*
X178375229Y-94216695D01*
X178355150Y-94410495D01*
X178321458Y-94554598D01*
X178269982Y-94660347D01*
X178196548Y-94739083D01*
X178096984Y-94802149D01*
X178072149Y-94814568D01*
X177995580Y-94846122D01*
X177909651Y-94867218D01*
X177798087Y-94879793D01*
X177644610Y-94885782D01*
X177461972Y-94887143D01*
X177001714Y-94887143D01*
X177004014Y-94297500D01*
X177006972Y-94091152D01*
X177013645Y-93904593D01*
X177023205Y-93752470D01*
X177034824Y-93649431D01*
X177042479Y-93617161D01*
X177136029Y-93464904D01*
X177266066Y-93370610D01*
X177421553Y-93339101D01*
X177434314Y-93341812D01*
X177434314Y-93808119D01*
X177402598Y-93816161D01*
X177366133Y-93834492D01*
X177343969Y-93871350D01*
X177332626Y-93942171D01*
X177328622Y-94062391D01*
X177328285Y-94145731D01*
X177328285Y-94451714D01*
X177582286Y-94451714D01*
X177582286Y-94165871D01*
X177574871Y-93987349D01*
X177550182Y-93872974D01*
X177504552Y-93815609D01*
X177434314Y-93808119D01*
X177434314Y-93341812D01*
X177591455Y-93375204D01*
X177593768Y-93376164D01*
X177707637Y-93439623D01*
X177787481Y-93527160D01*
X177838257Y-93650647D01*
X177864921Y-93821951D01*
X177872436Y-94043500D01*
X177876035Y-94231011D01*
X177888618Y-94351867D01*
X177913110Y-94411729D01*
X177952434Y-94416258D01*
X178009514Y-94371116D01*
X178030233Y-94349071D01*
X178057121Y-94305851D01*
X178074906Y-94237943D01*
X178085224Y-94131943D01*
X178089710Y-93974450D01*
X178090286Y-93857128D01*
X178090286Y-93431541D01*
X178398714Y-93453857D01*
X178385869Y-93961857D01*
G37*
X178385869Y-93961857D02*
X178375229Y-94216695D01*
X178355150Y-94410495D01*
X178321458Y-94554598D01*
X178269982Y-94660347D01*
X178196548Y-94739083D01*
X178096984Y-94802149D01*
X178072149Y-94814568D01*
X177995580Y-94846122D01*
X177909651Y-94867218D01*
X177798087Y-94879793D01*
X177644610Y-94885782D01*
X177461972Y-94887143D01*
X177001714Y-94887143D01*
X177004014Y-94297500D01*
X177006972Y-94091152D01*
X177013645Y-93904593D01*
X177023205Y-93752470D01*
X177034824Y-93649431D01*
X177042479Y-93617161D01*
X177136029Y-93464904D01*
X177266066Y-93370610D01*
X177421553Y-93339101D01*
X177434314Y-93341812D01*
X177434314Y-93808119D01*
X177402598Y-93816161D01*
X177366133Y-93834492D01*
X177343969Y-93871350D01*
X177332626Y-93942171D01*
X177328622Y-94062391D01*
X177328285Y-94145731D01*
X177328285Y-94451714D01*
X177582286Y-94451714D01*
X177582286Y-94165871D01*
X177574871Y-93987349D01*
X177550182Y-93872974D01*
X177504552Y-93815609D01*
X177434314Y-93808119D01*
X177434314Y-93341812D01*
X177591455Y-93375204D01*
X177593768Y-93376164D01*
X177707637Y-93439623D01*
X177787481Y-93527160D01*
X177838257Y-93650647D01*
X177864921Y-93821951D01*
X177872436Y-94043500D01*
X177876035Y-94231011D01*
X177888618Y-94351867D01*
X177913110Y-94411729D01*
X177952434Y-94416258D01*
X178009514Y-94371116D01*
X178030233Y-94349071D01*
X178057121Y-94305851D01*
X178074906Y-94237943D01*
X178085224Y-94131943D01*
X178089710Y-93974450D01*
X178090286Y-93857128D01*
X178090286Y-93431541D01*
X178398714Y-93453857D01*
X178385869Y-93961857D01*
G36*
X178393218Y-96413498D02*
G01*
X178385301Y-96583134D01*
X178369965Y-96709093D01*
X178345055Y-96801003D01*
X178308416Y-96868495D01*
X178257895Y-96921196D01*
X178191336Y-96968738D01*
X178151814Y-96993311D01*
X178096330Y-97021859D01*
X178030376Y-97041649D01*
X177940171Y-97054220D01*
X177811935Y-97061108D01*
X177631886Y-97063851D01*
X177516975Y-97064150D01*
X176998092Y-97064285D01*
X177008975Y-96855642D01*
X177019857Y-96647000D01*
X177473428Y-96660149D01*
X177687651Y-96663654D01*
X177840984Y-96656445D01*
X177944878Y-96633551D01*
X178010789Y-96589999D01*
X178050168Y-96520818D01*
X178074469Y-96421036D01*
X178078441Y-96397500D01*
X178099781Y-96266000D01*
X177001714Y-96266000D01*
X177001714Y-95830571D01*
X178090286Y-95830571D01*
X178090286Y-95504000D01*
X177001714Y-95504000D01*
X177001714Y-95067004D01*
X177696915Y-95076859D01*
X178392115Y-95086714D01*
X178395415Y-95904677D01*
X178395871Y-96190556D01*
X178393218Y-96413498D01*
G37*
X178393218Y-96413498D02*
X178385301Y-96583134D01*
X178369965Y-96709093D01*
X178345055Y-96801003D01*
X178308416Y-96868495D01*
X178257895Y-96921196D01*
X178191336Y-96968738D01*
X178151814Y-96993311D01*
X178096330Y-97021859D01*
X178030376Y-97041649D01*
X177940171Y-97054220D01*
X177811935Y-97061108D01*
X177631886Y-97063851D01*
X177516975Y-97064150D01*
X176998092Y-97064285D01*
X177008975Y-96855642D01*
X177019857Y-96647000D01*
X177473428Y-96660149D01*
X177687651Y-96663654D01*
X177840984Y-96656445D01*
X177944878Y-96633551D01*
X178010789Y-96589999D01*
X178050168Y-96520818D01*
X178074469Y-96421036D01*
X178078441Y-96397500D01*
X178099781Y-96266000D01*
X177001714Y-96266000D01*
X177001714Y-95830571D01*
X178090286Y-95830571D01*
X178090286Y-95504000D01*
X177001714Y-95504000D01*
X177001714Y-95067004D01*
X177696915Y-95076859D01*
X178392115Y-95086714D01*
X178395415Y-95904677D01*
X178395871Y-96190556D01*
X178393218Y-96413498D01*
G36*
X177001714Y-97717428D02*
G01*
X177001714Y-97282000D01*
X178380571Y-97282000D01*
X178380571Y-97717428D01*
X177001714Y-97717428D01*
G37*
X177001714Y-97717428D02*
X177001714Y-97282000D01*
X178380571Y-97282000D01*
X178380571Y-97717428D01*
X177001714Y-97717428D01*
G36*
X178090286Y-99277714D02*
G01*
X178090286Y-98895065D01*
X178089137Y-98722285D01*
X178083654Y-98605871D01*
X178070777Y-98529628D01*
X178047450Y-98477361D01*
X178010615Y-98432876D01*
X178001221Y-98423350D01*
X177935923Y-98370810D01*
X177858345Y-98343792D01*
X177742427Y-98334671D01*
X177696812Y-98334285D01*
X177544049Y-98343526D01*
X177440604Y-98374514D01*
X177395805Y-98403581D01*
X177357975Y-98439500D01*
X177332535Y-98484311D01*
X177316385Y-98552936D01*
X177306429Y-98660297D01*
X177299566Y-98821317D01*
X177297861Y-98875295D01*
X177285579Y-99277714D01*
X177001714Y-99277714D01*
X177003167Y-98815071D01*
X177006446Y-98598006D01*
X177015576Y-98440696D01*
X177031867Y-98330468D01*
X177056624Y-98254649D01*
X177062137Y-98243571D01*
X177165053Y-98085249D01*
X177277862Y-97987467D01*
X177328285Y-97962621D01*
X177555522Y-97899563D01*
X177776830Y-97891354D01*
X177980016Y-97934503D01*
X178152888Y-98025517D01*
X178283252Y-98160906D01*
X178331077Y-98249783D01*
X178357913Y-98362073D01*
X178374425Y-98545295D01*
X178380534Y-98798534D01*
X178380571Y-98822977D01*
X178380571Y-99277714D01*
X178090286Y-99277714D01*
G37*
X178090286Y-99277714D02*
X178090286Y-98895065D01*
X178089137Y-98722285D01*
X178083654Y-98605871D01*
X178070777Y-98529628D01*
X178047450Y-98477361D01*
X178010615Y-98432876D01*
X178001221Y-98423350D01*
X177935923Y-98370810D01*
X177858345Y-98343792D01*
X177742427Y-98334671D01*
X177696812Y-98334285D01*
X177544049Y-98343526D01*
X177440604Y-98374514D01*
X177395805Y-98403581D01*
X177357975Y-98439500D01*
X177332535Y-98484311D01*
X177316385Y-98552936D01*
X177306429Y-98660297D01*
X177299566Y-98821317D01*
X177297861Y-98875295D01*
X177285579Y-99277714D01*
X177001714Y-99277714D01*
X177003167Y-98815071D01*
X177006446Y-98598006D01*
X177015576Y-98440696D01*
X177031867Y-98330468D01*
X177056624Y-98254649D01*
X177062137Y-98243571D01*
X177165053Y-98085249D01*
X177277862Y-97987467D01*
X177328285Y-97962621D01*
X177555522Y-97899563D01*
X177776830Y-97891354D01*
X177980016Y-97934503D01*
X178152888Y-98025517D01*
X178283252Y-98160906D01*
X178331077Y-98249783D01*
X178357913Y-98362073D01*
X178374425Y-98545295D01*
X178380534Y-98798534D01*
X178380571Y-98822977D01*
X178380571Y-99277714D01*
X178090286Y-99277714D01*
G36*
X178405961Y-83546556D02*
G01*
X178397440Y-83750936D01*
X178371288Y-84328000D01*
X178126571Y-84328000D01*
X178126571Y-83894933D01*
X178122999Y-83658920D01*
X178110971Y-83487382D01*
X178088523Y-83372513D01*
X178053688Y-83306509D01*
X178004502Y-83281563D01*
X177972298Y-83282269D01*
X177937092Y-83291097D01*
X177912963Y-83314173D01*
X177896950Y-83364163D01*
X177886091Y-83453735D01*
X177877426Y-83595557D01*
X177872041Y-83711143D01*
X177858809Y-83926406D01*
X177838709Y-84082755D01*
X177807675Y-84193793D01*
X177761642Y-84273122D01*
X177696542Y-84334346D01*
X177682788Y-84344282D01*
X177568527Y-84388395D01*
X177423020Y-84397525D01*
X177278783Y-84371345D01*
X177224691Y-84348864D01*
X177161417Y-84308812D01*
X177114070Y-84256264D01*
X177080415Y-84180960D01*
X177058219Y-84072642D01*
X177045245Y-83921050D01*
X177039261Y-83715925D01*
X177038000Y-83491721D01*
X177038000Y-82876571D01*
X177326238Y-82876571D01*
X177336333Y-83371608D01*
X177341518Y-83573620D01*
X177348571Y-83715090D01*
X177359194Y-83808044D01*
X177375087Y-83864512D01*
X177397954Y-83896522D01*
X177412054Y-83906822D01*
X177480957Y-83924648D01*
X177531285Y-83880317D01*
X177564018Y-83771327D01*
X177580140Y-83595181D01*
X177582286Y-83473765D01*
X177589222Y-83247068D01*
X177612177Y-83080987D01*
X177654373Y-82964707D01*
X177719031Y-82887408D01*
X177765846Y-82857326D01*
X177932104Y-82806689D01*
X178095218Y-82819338D01*
X178238831Y-82890203D01*
X178346587Y-83014212D01*
X178360902Y-83041766D01*
X178384642Y-83100380D01*
X178400340Y-83167031D01*
X178408675Y-83254853D01*
X178410323Y-83376983D01*
X178405961Y-83546556D01*
G37*
X178405961Y-83546556D02*
X178397440Y-83750936D01*
X178371288Y-84328000D01*
X178126571Y-84328000D01*
X178126571Y-83894933D01*
X178122999Y-83658920D01*
X178110971Y-83487382D01*
X178088523Y-83372513D01*
X178053688Y-83306509D01*
X178004502Y-83281563D01*
X177972298Y-83282269D01*
X177937092Y-83291097D01*
X177912963Y-83314173D01*
X177896950Y-83364163D01*
X177886091Y-83453735D01*
X177877426Y-83595557D01*
X177872041Y-83711143D01*
X177858809Y-83926406D01*
X177838709Y-84082755D01*
X177807675Y-84193793D01*
X177761642Y-84273122D01*
X177696542Y-84334346D01*
X177682788Y-84344282D01*
X177568527Y-84388395D01*
X177423020Y-84397525D01*
X177278783Y-84371345D01*
X177224691Y-84348864D01*
X177161417Y-84308812D01*
X177114070Y-84256264D01*
X177080415Y-84180960D01*
X177058219Y-84072642D01*
X177045245Y-83921050D01*
X177039261Y-83715925D01*
X177038000Y-83491721D01*
X177038000Y-82876571D01*
X177326238Y-82876571D01*
X177336333Y-83371608D01*
X177341518Y-83573620D01*
X177348571Y-83715090D01*
X177359194Y-83808044D01*
X177375087Y-83864512D01*
X177397954Y-83896522D01*
X177412054Y-83906822D01*
X177480957Y-83924648D01*
X177531285Y-83880317D01*
X177564018Y-83771327D01*
X177580140Y-83595181D01*
X177582286Y-83473765D01*
X177589222Y-83247068D01*
X177612177Y-83080987D01*
X177654373Y-82964707D01*
X177719031Y-82887408D01*
X177765846Y-82857326D01*
X177932104Y-82806689D01*
X178095218Y-82819338D01*
X178238831Y-82890203D01*
X178346587Y-83014212D01*
X178360902Y-83041766D01*
X178384642Y-83100380D01*
X178400340Y-83167031D01*
X178408675Y-83254853D01*
X178410323Y-83376983D01*
X178405961Y-83546556D01*
G36*
X177038000Y-85997142D02*
G01*
X177040456Y-85407500D01*
X177043450Y-85202934D01*
X177050128Y-85019873D01*
X177059669Y-84872426D01*
X177071249Y-84774701D01*
X177079083Y-84745285D01*
X177133864Y-84672052D01*
X177212699Y-84600142D01*
X177257481Y-84571788D01*
X177311631Y-84551883D01*
X177388048Y-84538968D01*
X177499632Y-84531584D01*
X177659282Y-84528274D01*
X177854428Y-84527571D01*
X178398714Y-84527571D01*
X178398714Y-84926714D01*
X177908857Y-84936441D01*
X177692016Y-84941907D01*
X177537263Y-84952859D01*
X177434125Y-84976100D01*
X177372131Y-85018436D01*
X177340807Y-85086670D01*
X177329683Y-85187607D01*
X177328285Y-85313679D01*
X177328285Y-85559774D01*
X177863500Y-85569815D01*
X178398714Y-85579857D01*
X178409596Y-85788500D01*
X178420479Y-85997142D01*
X177038000Y-85997142D01*
G37*
X177038000Y-85997142D02*
X177040456Y-85407500D01*
X177043450Y-85202934D01*
X177050128Y-85019873D01*
X177059669Y-84872426D01*
X177071249Y-84774701D01*
X177079083Y-84745285D01*
X177133864Y-84672052D01*
X177212699Y-84600142D01*
X177257481Y-84571788D01*
X177311631Y-84551883D01*
X177388048Y-84538968D01*
X177499632Y-84531584D01*
X177659282Y-84528274D01*
X177854428Y-84527571D01*
X178398714Y-84527571D01*
X178398714Y-84926714D01*
X177908857Y-84936441D01*
X177692016Y-84941907D01*
X177537263Y-84952859D01*
X177434125Y-84976100D01*
X177372131Y-85018436D01*
X177340807Y-85086670D01*
X177329683Y-85187607D01*
X177328285Y-85313679D01*
X177328285Y-85559774D01*
X177863500Y-85569815D01*
X178398714Y-85579857D01*
X178409596Y-85788500D01*
X178420479Y-85997142D01*
X177038000Y-85997142D01*
G36*
X178296678Y-87544489D02*
G01*
X178204415Y-87630664D01*
X178111091Y-87673885D01*
X177997321Y-87691119D01*
X177853386Y-87691092D01*
X177742840Y-87657058D01*
X177706381Y-87636303D01*
X177605582Y-87552399D01*
X177536351Y-87440937D01*
X177494428Y-87289592D01*
X177475554Y-87086039D01*
X177473428Y-86962302D01*
X177473428Y-86614000D01*
X177038000Y-86614000D01*
X177038000Y-86178571D01*
X178126571Y-86178571D01*
X178126571Y-86614000D01*
X177800000Y-86614000D01*
X177800000Y-86903009D01*
X177802344Y-87051487D01*
X177811745Y-87144001D01*
X177831754Y-87197072D01*
X177865920Y-87227225D01*
X177870186Y-87229580D01*
X177974420Y-87264296D01*
X178050023Y-87239108D01*
X178098939Y-87151391D01*
X178123115Y-86998519D01*
X178126571Y-86883551D01*
X178126571Y-86614000D01*
X178126571Y-86178571D01*
X178416857Y-86178571D01*
X178416857Y-87413351D01*
X178296678Y-87544489D01*
G37*
X178296678Y-87544489D02*
X178204415Y-87630664D01*
X178111091Y-87673885D01*
X177997321Y-87691119D01*
X177853386Y-87691092D01*
X177742840Y-87657058D01*
X177706381Y-87636303D01*
X177605582Y-87552399D01*
X177536351Y-87440937D01*
X177494428Y-87289592D01*
X177475554Y-87086039D01*
X177473428Y-86962302D01*
X177473428Y-86614000D01*
X177038000Y-86614000D01*
X177038000Y-86178571D01*
X178126571Y-86178571D01*
X178126571Y-86614000D01*
X177800000Y-86614000D01*
X177800000Y-86903009D01*
X177802344Y-87051487D01*
X177811745Y-87144001D01*
X177831754Y-87197072D01*
X177865920Y-87227225D01*
X177870186Y-87229580D01*
X177974420Y-87264296D01*
X178050023Y-87239108D01*
X178098939Y-87151391D01*
X178123115Y-86998519D01*
X178126571Y-86883551D01*
X178126571Y-86614000D01*
X178126571Y-86178571D01*
X178416857Y-86178571D01*
X178416857Y-87413351D01*
X178296678Y-87544489D01*
G36*
X178132992Y-89226571D02*
G01*
X178120710Y-88824152D01*
X178114150Y-88646280D01*
X178105322Y-88526052D01*
X178091129Y-88448544D01*
X178068473Y-88398836D01*
X178034254Y-88362002D01*
X178022766Y-88352438D01*
X177951936Y-88302998D01*
X177904837Y-88283142D01*
X177892835Y-88317179D01*
X177882856Y-88410307D01*
X177875824Y-88549056D01*
X177872659Y-88719954D01*
X177872571Y-88754857D01*
X177872571Y-89226571D01*
X177582286Y-89226571D01*
X177582286Y-88754857D01*
X177580758Y-88548744D01*
X177574057Y-88407100D01*
X177559004Y-88321847D01*
X177532420Y-88284911D01*
X177491127Y-88288214D01*
X177431948Y-88323682D01*
X177416864Y-88334524D01*
X177385259Y-88366716D01*
X177363111Y-88418182D01*
X177347782Y-88502690D01*
X177336636Y-88634010D01*
X177328285Y-88797167D01*
X177310143Y-89208428D01*
X177174071Y-89219690D01*
X177038000Y-89230952D01*
X177038223Y-88747976D01*
X177040727Y-88526787D01*
X177048791Y-88365727D01*
X177063598Y-88252485D01*
X177086329Y-88174751D01*
X177095062Y-88156142D01*
X177206988Y-87990097D01*
X177345252Y-87881750D01*
X177520322Y-87826011D01*
X177742665Y-87817790D01*
X177784840Y-87820664D01*
X178007948Y-87861409D01*
X178177664Y-87946098D01*
X178301470Y-88079166D01*
X178341711Y-88150824D01*
X178374194Y-88228334D01*
X178395933Y-88312702D01*
X178408946Y-88420446D01*
X178415248Y-88568082D01*
X178416857Y-88766313D01*
X178416857Y-89226571D01*
X178132992Y-89226571D01*
G37*
X178132992Y-89226571D02*
X178120710Y-88824152D01*
X178114150Y-88646280D01*
X178105322Y-88526052D01*
X178091129Y-88448544D01*
X178068473Y-88398836D01*
X178034254Y-88362002D01*
X178022766Y-88352438D01*
X177951936Y-88302998D01*
X177904837Y-88283142D01*
X177892835Y-88317179D01*
X177882856Y-88410307D01*
X177875824Y-88549056D01*
X177872659Y-88719954D01*
X177872571Y-88754857D01*
X177872571Y-89226571D01*
X177582286Y-89226571D01*
X177582286Y-88754857D01*
X177580758Y-88548744D01*
X177574057Y-88407100D01*
X177559004Y-88321847D01*
X177532420Y-88284911D01*
X177491127Y-88288214D01*
X177431948Y-88323682D01*
X177416864Y-88334524D01*
X177385259Y-88366716D01*
X177363111Y-88418182D01*
X177347782Y-88502690D01*
X177336636Y-88634010D01*
X177328285Y-88797167D01*
X177310143Y-89208428D01*
X177174071Y-89219690D01*
X177038000Y-89230952D01*
X177038223Y-88747976D01*
X177040727Y-88526787D01*
X177048791Y-88365727D01*
X177063598Y-88252485D01*
X177086329Y-88174751D01*
X177095062Y-88156142D01*
X177206988Y-87990097D01*
X177345252Y-87881750D01*
X177520322Y-87826011D01*
X177742665Y-87817790D01*
X177784840Y-87820664D01*
X178007948Y-87861409D01*
X178177664Y-87946098D01*
X178301470Y-88079166D01*
X178341711Y-88150824D01*
X178374194Y-88228334D01*
X178395933Y-88312702D01*
X178408946Y-88420446D01*
X178415248Y-88568082D01*
X178416857Y-88766313D01*
X178416857Y-89226571D01*
X178132992Y-89226571D01*
G36*
X178407684Y-90432872D02*
G01*
X178395623Y-90575797D01*
X178372714Y-90681207D01*
X178336591Y-90760754D01*
X178284888Y-90826091D01*
X178227938Y-90878306D01*
X178090222Y-90951001D01*
X177936286Y-90964944D01*
X177786093Y-90924290D01*
X177659610Y-90833193D01*
X177598783Y-90747389D01*
X177546191Y-90672599D01*
X177500573Y-90667387D01*
X177498383Y-90668940D01*
X177447154Y-90708290D01*
X177360951Y-90775289D01*
X177292000Y-90829167D01*
X177170283Y-90923502D01*
X177095370Y-90971337D01*
X177055974Y-90969669D01*
X177040808Y-90915493D01*
X177038586Y-90805807D01*
X177038755Y-90761784D01*
X177039510Y-90514714D01*
X177509714Y-90205818D01*
X177509714Y-89849204D01*
X177038000Y-89798688D01*
X177038009Y-89594272D01*
X177038017Y-89389857D01*
X178048493Y-89389857D01*
X178048493Y-89826708D01*
X177957582Y-89831845D01*
X177936071Y-89834314D01*
X177800000Y-89851368D01*
X177800000Y-90112606D01*
X177807211Y-90272719D01*
X177827150Y-90390543D01*
X177847755Y-90439153D01*
X177918744Y-90488197D01*
X177999437Y-90475225D01*
X178070230Y-90404613D01*
X178079768Y-90387393D01*
X178101952Y-90311571D01*
X178117361Y-90199104D01*
X178125201Y-90072420D01*
X178124683Y-89953947D01*
X178115013Y-89866114D01*
X178099357Y-89832485D01*
X178048493Y-89826708D01*
X178048493Y-89389857D01*
X178398714Y-89389857D01*
X178408724Y-89987861D01*
X178411263Y-90240777D01*
X178407684Y-90432872D01*
G37*
X178407684Y-90432872D02*
X178395623Y-90575797D01*
X178372714Y-90681207D01*
X178336591Y-90760754D01*
X178284888Y-90826091D01*
X178227938Y-90878306D01*
X178090222Y-90951001D01*
X177936286Y-90964944D01*
X177786093Y-90924290D01*
X177659610Y-90833193D01*
X177598783Y-90747389D01*
X177546191Y-90672599D01*
X177500573Y-90667387D01*
X177498383Y-90668940D01*
X177447154Y-90708290D01*
X177360951Y-90775289D01*
X177292000Y-90829167D01*
X177170283Y-90923502D01*
X177095370Y-90971337D01*
X177055974Y-90969669D01*
X177040808Y-90915493D01*
X177038586Y-90805807D01*
X177038755Y-90761784D01*
X177039510Y-90514714D01*
X177509714Y-90205818D01*
X177509714Y-89849204D01*
X177038000Y-89798688D01*
X177038009Y-89594272D01*
X177038017Y-89389857D01*
X178048493Y-89389857D01*
X178048493Y-89826708D01*
X177957582Y-89831845D01*
X177936071Y-89834314D01*
X177800000Y-89851368D01*
X177800000Y-90112606D01*
X177807211Y-90272719D01*
X177827150Y-90390543D01*
X177847755Y-90439153D01*
X177918744Y-90488197D01*
X177999437Y-90475225D01*
X178070230Y-90404613D01*
X178079768Y-90387393D01*
X178101952Y-90311571D01*
X178117361Y-90199104D01*
X178125201Y-90072420D01*
X178124683Y-89953947D01*
X178115013Y-89866114D01*
X178099357Y-89832485D01*
X178048493Y-89826708D01*
X178048493Y-89389857D01*
X178398714Y-89389857D01*
X178408724Y-89987861D01*
X178411263Y-90240777D01*
X178407684Y-90432872D01*
G36*
X180176771Y-78197350D02*
G01*
X180102680Y-78504946D01*
X179968547Y-78783190D01*
X179778823Y-79024221D01*
X179537955Y-79220178D01*
X179368198Y-79314038D01*
X179263568Y-79359226D01*
X179168247Y-79387909D01*
X179060287Y-79403711D01*
X178917740Y-79410262D01*
X178779714Y-79411285D01*
X178597730Y-79409143D01*
X178466429Y-79400341D01*
X178363989Y-79381318D01*
X178268585Y-79348510D01*
X178195229Y-79315868D01*
X178007068Y-79201261D01*
X177817332Y-79040796D01*
X177648537Y-78856482D01*
X177523202Y-78670326D01*
X177511523Y-78647641D01*
X177457323Y-78508975D01*
X177420850Y-78358164D01*
X177404286Y-78214810D01*
X177409812Y-78098515D01*
X177439610Y-78028884D01*
X177442403Y-78026468D01*
X177507020Y-77997404D01*
X177611083Y-77970994D01*
X177655106Y-77963534D01*
X177915378Y-77890921D01*
X178159478Y-77756794D01*
X178376405Y-77572026D01*
X178555156Y-77347488D01*
X178684730Y-77094053D01*
X178743757Y-76887694D01*
X178778312Y-76739568D01*
X178821838Y-76651543D01*
X178887841Y-76611288D01*
X178989823Y-76606472D01*
X179045756Y-76611948D01*
X179287660Y-76671453D01*
X179519368Y-76793799D01*
X179749178Y-76983477D01*
X179769751Y-77003705D01*
X179973279Y-77246809D01*
X180108203Y-77505060D01*
X180178070Y-77785822D01*
X180186372Y-77868265D01*
X180176771Y-78197350D01*
G37*
X180176771Y-78197350D02*
X180102680Y-78504946D01*
X179968547Y-78783190D01*
X179778823Y-79024221D01*
X179537955Y-79220178D01*
X179368198Y-79314038D01*
X179263568Y-79359226D01*
X179168247Y-79387909D01*
X179060287Y-79403711D01*
X178917740Y-79410262D01*
X178779714Y-79411285D01*
X178597730Y-79409143D01*
X178466429Y-79400341D01*
X178363989Y-79381318D01*
X178268585Y-79348510D01*
X178195229Y-79315868D01*
X178007068Y-79201261D01*
X177817332Y-79040796D01*
X177648537Y-78856482D01*
X177523202Y-78670326D01*
X177511523Y-78647641D01*
X177457323Y-78508975D01*
X177420850Y-78358164D01*
X177404286Y-78214810D01*
X177409812Y-78098515D01*
X177439610Y-78028884D01*
X177442403Y-78026468D01*
X177507020Y-77997404D01*
X177611083Y-77970994D01*
X177655106Y-77963534D01*
X177915378Y-77890921D01*
X178159478Y-77756794D01*
X178376405Y-77572026D01*
X178555156Y-77347488D01*
X178684730Y-77094053D01*
X178743757Y-76887694D01*
X178778312Y-76739568D01*
X178821838Y-76651543D01*
X178887841Y-76611288D01*
X178989823Y-76606472D01*
X179045756Y-76611948D01*
X179287660Y-76671453D01*
X179519368Y-76793799D01*
X179749178Y-76983477D01*
X179769751Y-77003705D01*
X179973279Y-77246809D01*
X180108203Y-77505060D01*
X180178070Y-77785822D01*
X180186372Y-77868265D01*
X180176771Y-78197350D01*
G36*
X178635483Y-103552943D02*
G01*
X178614371Y-103587640D01*
X178532481Y-103648451D01*
X178418728Y-103670571D01*
X178303326Y-103652898D01*
X178222909Y-103601928D01*
X178167493Y-103492250D01*
X178171331Y-103369973D01*
X178231803Y-103260416D01*
X178261072Y-103233439D01*
X178308000Y-103211353D01*
X178308000Y-103367486D01*
X178250149Y-103369134D01*
X178235428Y-103418959D01*
X178245440Y-103467111D01*
X178288469Y-103460497D01*
X178308000Y-103450571D01*
X178364892Y-103415310D01*
X178375511Y-103404331D01*
X178375511Y-103535432D01*
X178343998Y-103541463D01*
X178309990Y-103575058D01*
X178345192Y-103592060D01*
X178407786Y-103594611D01*
X178472230Y-103590213D01*
X178471415Y-103574122D01*
X178443784Y-103556361D01*
X178375511Y-103535432D01*
X178375511Y-103404331D01*
X178380571Y-103399098D01*
X178350675Y-103381077D01*
X178308000Y-103367486D01*
X178308000Y-103211353D01*
X178374346Y-103180126D01*
X178404007Y-103181777D01*
X178404007Y-103248517D01*
X178365547Y-103254824D01*
X178313098Y-103282923D01*
X178332242Y-103299447D01*
X178422922Y-103304350D01*
X178425928Y-103304325D01*
X178461818Y-103302018D01*
X178461818Y-103393737D01*
X178456007Y-103429404D01*
X178462679Y-103476468D01*
X178475065Y-103477029D01*
X178483727Y-103428465D01*
X178477930Y-103407482D01*
X178461818Y-103393737D01*
X178461818Y-103302018D01*
X178498897Y-103299633D01*
X178507041Y-103284412D01*
X178483475Y-103267981D01*
X178404007Y-103248517D01*
X178404007Y-103181777D01*
X178484022Y-103186233D01*
X178543857Y-103220099D01*
X178543857Y-103523142D01*
X178525714Y-103541285D01*
X178543857Y-103559428D01*
X178562000Y-103541285D01*
X178543857Y-103523142D01*
X178543857Y-103220099D01*
X178570675Y-103235278D01*
X178570675Y-103393737D01*
X178564864Y-103429404D01*
X178571536Y-103476468D01*
X178583922Y-103477029D01*
X178592584Y-103428465D01*
X178586787Y-103407482D01*
X178570675Y-103393737D01*
X178570675Y-103235278D01*
X178577538Y-103239163D01*
X178642328Y-103326322D01*
X178665831Y-103435114D01*
X178635483Y-103552943D01*
G37*
X178635483Y-103552943D02*
X178614371Y-103587640D01*
X178532481Y-103648451D01*
X178418728Y-103670571D01*
X178303326Y-103652898D01*
X178222909Y-103601928D01*
X178167493Y-103492250D01*
X178171331Y-103369973D01*
X178231803Y-103260416D01*
X178261072Y-103233439D01*
X178308000Y-103211353D01*
X178308000Y-103367486D01*
X178250149Y-103369134D01*
X178235428Y-103418959D01*
X178245440Y-103467111D01*
X178288469Y-103460497D01*
X178308000Y-103450571D01*
X178364892Y-103415310D01*
X178375511Y-103404331D01*
X178375511Y-103535432D01*
X178343998Y-103541463D01*
X178309990Y-103575058D01*
X178345192Y-103592060D01*
X178407786Y-103594611D01*
X178472230Y-103590213D01*
X178471415Y-103574122D01*
X178443784Y-103556361D01*
X178375511Y-103535432D01*
X178375511Y-103404331D01*
X178380571Y-103399098D01*
X178350675Y-103381077D01*
X178308000Y-103367486D01*
X178308000Y-103211353D01*
X178374346Y-103180126D01*
X178404007Y-103181777D01*
X178404007Y-103248517D01*
X178365547Y-103254824D01*
X178313098Y-103282923D01*
X178332242Y-103299447D01*
X178422922Y-103304350D01*
X178425928Y-103304325D01*
X178461818Y-103302018D01*
X178461818Y-103393737D01*
X178456007Y-103429404D01*
X178462679Y-103476468D01*
X178475065Y-103477029D01*
X178483727Y-103428465D01*
X178477930Y-103407482D01*
X178461818Y-103393737D01*
X178461818Y-103302018D01*
X178498897Y-103299633D01*
X178507041Y-103284412D01*
X178483475Y-103267981D01*
X178404007Y-103248517D01*
X178404007Y-103181777D01*
X178484022Y-103186233D01*
X178543857Y-103220099D01*
X178543857Y-103523142D01*
X178525714Y-103541285D01*
X178543857Y-103559428D01*
X178562000Y-103541285D01*
X178543857Y-103523142D01*
X178543857Y-103220099D01*
X178570675Y-103235278D01*
X178570675Y-103393737D01*
X178564864Y-103429404D01*
X178571536Y-103476468D01*
X178583922Y-103477029D01*
X178592584Y-103428465D01*
X178586787Y-103407482D01*
X178570675Y-103393737D01*
X178570675Y-103235278D01*
X178577538Y-103239163D01*
X178642328Y-103326322D01*
X178665831Y-103435114D01*
X178635483Y-103552943D01*
%TD*%
D11*
%TO.C,PLAYER1*%
X171704000Y-76708000D03*
X171704000Y-80568000D03*
X171704000Y-88288000D03*
X171704000Y-84468000D03*
X171704000Y-94668000D03*
X171704000Y-98518000D03*
X171704000Y-102338000D03*
%TD*%
D12*
%TO.C,MCU1*%
X181610000Y-76200000D03*
X181610000Y-78740000D03*
X181610000Y-81280000D03*
X181610000Y-83820000D03*
X181610000Y-86360000D03*
X181610000Y-88900000D03*
X181610000Y-91440000D03*
X181610000Y-93980000D03*
X181610000Y-96520000D03*
X181610000Y-99060000D03*
X181610000Y-101600000D03*
X181610000Y-104140000D03*
X166370000Y-104140000D03*
X166370000Y-101600000D03*
X166370000Y-99060000D03*
X166370000Y-96520000D03*
X166370000Y-93980000D03*
X166370000Y-91440000D03*
X166370000Y-88900000D03*
X166370000Y-86360000D03*
X166370000Y-83820000D03*
X166370000Y-81280000D03*
X166370000Y-78740000D03*
D13*
X166370000Y-76200000D03*
%TD*%
M02*
