M48
; DRILL file {KiCad (5.1.10)-1} date 06/15/23 14:08:22
; FORMAT={-:-/ absolute / inch / decimal}
; #@! TF.CreationDate,2023-06-15T14:08:22-05:00
; #@! TF.GenerationSoftware,Kicad,Pcbnew,(5.1.10)-1
; #@! TF.FileFunction,Plated,1,2,PTH
FMAT,2
INCH
T1C0.0157
T2C0.0433
T3C0.0787
%
G90
G05
T1
X6.91Y-3.73
T2
X6.55Y-3.0
X6.55Y-3.1
X6.55Y-3.2
X6.55Y-3.3
X6.55Y-3.4
X6.55Y-3.5
X6.55Y-3.6
X6.55Y-3.7
X6.55Y-3.8
X6.55Y-3.9
X6.55Y-4.0
X6.55Y-4.1
X7.15Y-3.0
X7.15Y-3.1
X7.15Y-3.2
X7.15Y-3.3
X7.15Y-3.4
X7.15Y-3.5
X7.15Y-3.6
X7.15Y-3.7
X7.15Y-3.8
X7.15Y-3.9
X7.15Y-4.0
X7.15Y-4.1
T3
X6.76Y-3.02
X6.76Y-3.172
X6.76Y-3.3255
X6.76Y-3.4759
X6.76Y-3.7271
X6.76Y-3.8787
X6.76Y-4.0291
T0
M30
