M48
; DRILL file {KiCad (5.1.10)-1} date 09/23/21 19:25:00
; FORMAT={-:-/ absolute / inch / decimal}
; #@! TF.CreationDate,2021-09-23T19:25:00-05:00
; #@! TF.GenerationSoftware,Kicad,Pcbnew,(5.1.10)-1
; #@! TF.FileFunction,Plated,1,2,PTH
FMAT,2
INCH
T1C0.0157
T2C0.0433
T3C0.0787
%
G90
G05
T1
X6.175Y-3.575
X6.775Y-3.8
X6.925Y-3.7
X6.95Y-4.05
X7.3Y-4.075
T2
X6.55Y-3.0
X6.55Y-3.1
X6.55Y-3.2
X6.55Y-3.3
X6.55Y-3.4
X6.55Y-3.5
X6.55Y-3.6
X6.55Y-3.7
X6.55Y-3.8
X6.55Y-3.9
X6.55Y-4.0
X6.55Y-4.1
X7.15Y-3.0
X7.15Y-3.1
X7.15Y-3.2
X7.15Y-3.3
X7.15Y-3.4
X7.15Y-3.5
X7.15Y-3.6
X7.15Y-3.7
X7.15Y-3.8
X7.15Y-3.9
X7.15Y-4.0
X7.15Y-4.1
T3
X5.0413Y-4.3307
X5.1933Y-4.3307
X5.3469Y-4.3307
X5.4972Y-4.3307
X5.7484Y-4.3307
X5.9Y-4.3307
X6.0504Y-4.3307
X7.6163Y-4.3307
X7.7683Y-4.3307
X7.9219Y-4.3307
X8.0722Y-4.3307
X8.3234Y-4.3307
X8.475Y-4.3307
X8.6254Y-4.3307
T0
M30
