%TF.GenerationSoftware,KiCad,Pcbnew,(5.1.10)-1*%
%TF.CreationDate,2021-09-23T19:24:58-05:00*%
%TF.ProjectId,SNES DAEMONBITE,534e4553-2044-4414-954d-4f4e42495445,rev?*%
%TF.SameCoordinates,Original*%
%TF.FileFunction,Soldermask,Top*%
%TF.FilePolarity,Negative*%
%FSLAX46Y46*%
G04 Gerber Fmt 4.6, Leading zero omitted, Abs format (unit mm)*
G04 Created by KiCad (PCBNEW (5.1.10)-1) date 2021-09-23 19:24:58*
%MOMM*%
%LPD*%
G01*
G04 APERTURE LIST*
%ADD10C,0.150000*%
%ADD11C,0.010000*%
%ADD12C,3.500000*%
%ADD13C,1.600000*%
%ADD14R,1.600000X1.600000*%
G04 APERTURE END LIST*
D10*
X201740238Y-102504761D02*
X201740238Y-100504761D01*
X202502142Y-100504761D01*
X202692619Y-100600000D01*
X202787857Y-100695238D01*
X202883095Y-100885714D01*
X202883095Y-101171428D01*
X202787857Y-101361904D01*
X202692619Y-101457142D01*
X202502142Y-101552380D01*
X201740238Y-101552380D01*
X204025952Y-102504761D02*
X203835476Y-102409523D01*
X203740238Y-102219047D01*
X203740238Y-100504761D01*
X205645000Y-102504761D02*
X205645000Y-101457142D01*
X205549761Y-101266666D01*
X205359285Y-101171428D01*
X204978333Y-101171428D01*
X204787857Y-101266666D01*
X205645000Y-102409523D02*
X205454523Y-102504761D01*
X204978333Y-102504761D01*
X204787857Y-102409523D01*
X204692619Y-102219047D01*
X204692619Y-102028571D01*
X204787857Y-101838095D01*
X204978333Y-101742857D01*
X205454523Y-101742857D01*
X205645000Y-101647619D01*
X206406904Y-101171428D02*
X206883095Y-102504761D01*
X207359285Y-101171428D02*
X206883095Y-102504761D01*
X206692619Y-102980952D01*
X206597380Y-103076190D01*
X206406904Y-103171428D01*
X208883095Y-102409523D02*
X208692619Y-102504761D01*
X208311666Y-102504761D01*
X208121190Y-102409523D01*
X208025952Y-102219047D01*
X208025952Y-101457142D01*
X208121190Y-101266666D01*
X208311666Y-101171428D01*
X208692619Y-101171428D01*
X208883095Y-101266666D01*
X208978333Y-101457142D01*
X208978333Y-101647619D01*
X208025952Y-101838095D01*
X209835476Y-102504761D02*
X209835476Y-101171428D01*
X209835476Y-101552380D02*
X209930714Y-101361904D01*
X210025952Y-101266666D01*
X210216428Y-101171428D01*
X210406904Y-101171428D01*
X212502142Y-100695238D02*
X212597380Y-100600000D01*
X212787857Y-100504761D01*
X213264047Y-100504761D01*
X213454523Y-100600000D01*
X213549761Y-100695238D01*
X213645000Y-100885714D01*
X213645000Y-101076190D01*
X213549761Y-101361904D01*
X212406904Y-102504761D01*
X213645000Y-102504761D01*
X136335238Y-102504761D02*
X136335238Y-100504761D01*
X137097142Y-100504761D01*
X137287619Y-100600000D01*
X137382857Y-100695238D01*
X137478095Y-100885714D01*
X137478095Y-101171428D01*
X137382857Y-101361904D01*
X137287619Y-101457142D01*
X137097142Y-101552380D01*
X136335238Y-101552380D01*
X138620952Y-102504761D02*
X138430476Y-102409523D01*
X138335238Y-102219047D01*
X138335238Y-100504761D01*
X140240000Y-102504761D02*
X140240000Y-101457142D01*
X140144761Y-101266666D01*
X139954285Y-101171428D01*
X139573333Y-101171428D01*
X139382857Y-101266666D01*
X140240000Y-102409523D02*
X140049523Y-102504761D01*
X139573333Y-102504761D01*
X139382857Y-102409523D01*
X139287619Y-102219047D01*
X139287619Y-102028571D01*
X139382857Y-101838095D01*
X139573333Y-101742857D01*
X140049523Y-101742857D01*
X140240000Y-101647619D01*
X141001904Y-101171428D02*
X141478095Y-102504761D01*
X141954285Y-101171428D02*
X141478095Y-102504761D01*
X141287619Y-102980952D01*
X141192380Y-103076190D01*
X141001904Y-103171428D01*
X143478095Y-102409523D02*
X143287619Y-102504761D01*
X142906666Y-102504761D01*
X142716190Y-102409523D01*
X142620952Y-102219047D01*
X142620952Y-101457142D01*
X142716190Y-101266666D01*
X142906666Y-101171428D01*
X143287619Y-101171428D01*
X143478095Y-101266666D01*
X143573333Y-101457142D01*
X143573333Y-101647619D01*
X142620952Y-101838095D01*
X144430476Y-102504761D02*
X144430476Y-101171428D01*
X144430476Y-101552380D02*
X144525714Y-101361904D01*
X144620952Y-101266666D01*
X144811428Y-101171428D01*
X145001904Y-101171428D01*
X148240000Y-102504761D02*
X147097142Y-102504761D01*
X147668571Y-102504761D02*
X147668571Y-100504761D01*
X147478095Y-100790476D01*
X147287619Y-100980952D01*
X147097142Y-101076190D01*
X191977142Y-84622142D02*
X191929523Y-84669761D01*
X191786666Y-84717380D01*
X191691428Y-84717380D01*
X191548571Y-84669761D01*
X191453333Y-84574523D01*
X191405714Y-84479285D01*
X191358095Y-84288809D01*
X191358095Y-84145952D01*
X191405714Y-83955476D01*
X191453333Y-83860238D01*
X191548571Y-83765000D01*
X191691428Y-83717380D01*
X191786666Y-83717380D01*
X191929523Y-83765000D01*
X191977142Y-83812619D01*
X192548571Y-84717380D02*
X192453333Y-84669761D01*
X192405714Y-84622142D01*
X192358095Y-84526904D01*
X192358095Y-84241190D01*
X192405714Y-84145952D01*
X192453333Y-84098333D01*
X192548571Y-84050714D01*
X192691428Y-84050714D01*
X192786666Y-84098333D01*
X192834285Y-84145952D01*
X192881904Y-84241190D01*
X192881904Y-84526904D01*
X192834285Y-84622142D01*
X192786666Y-84669761D01*
X192691428Y-84717380D01*
X192548571Y-84717380D01*
X193310476Y-84050714D02*
X193310476Y-84717380D01*
X193310476Y-84145952D02*
X193358095Y-84098333D01*
X193453333Y-84050714D01*
X193596190Y-84050714D01*
X193691428Y-84098333D01*
X193739047Y-84193571D01*
X193739047Y-84717380D01*
X194072380Y-84050714D02*
X194453333Y-84050714D01*
X194215238Y-83717380D02*
X194215238Y-84574523D01*
X194262857Y-84669761D01*
X194358095Y-84717380D01*
X194453333Y-84717380D01*
X194786666Y-84717380D02*
X194786666Y-84050714D01*
X194786666Y-84241190D02*
X194834285Y-84145952D01*
X194881904Y-84098333D01*
X194977142Y-84050714D01*
X195072380Y-84050714D01*
X195548571Y-84717380D02*
X195453333Y-84669761D01*
X195405714Y-84622142D01*
X195358095Y-84526904D01*
X195358095Y-84241190D01*
X195405714Y-84145952D01*
X195453333Y-84098333D01*
X195548571Y-84050714D01*
X195691428Y-84050714D01*
X195786666Y-84098333D01*
X195834285Y-84145952D01*
X195881904Y-84241190D01*
X195881904Y-84526904D01*
X195834285Y-84622142D01*
X195786666Y-84669761D01*
X195691428Y-84717380D01*
X195548571Y-84717380D01*
X196453333Y-84717380D02*
X196358095Y-84669761D01*
X196310476Y-84574523D01*
X196310476Y-83717380D01*
X196977142Y-84717380D02*
X196881904Y-84669761D01*
X196834285Y-84574523D01*
X196834285Y-83717380D01*
X197739047Y-84669761D02*
X197643809Y-84717380D01*
X197453333Y-84717380D01*
X197358095Y-84669761D01*
X197310476Y-84574523D01*
X197310476Y-84193571D01*
X197358095Y-84098333D01*
X197453333Y-84050714D01*
X197643809Y-84050714D01*
X197739047Y-84098333D01*
X197786666Y-84193571D01*
X197786666Y-84288809D01*
X197310476Y-84384047D01*
X198215238Y-84717380D02*
X198215238Y-84050714D01*
X198215238Y-84241190D02*
X198262857Y-84145952D01*
X198310476Y-84098333D01*
X198405714Y-84050714D01*
X198500952Y-84050714D01*
X200024761Y-84717380D02*
X200024761Y-84193571D01*
X199977142Y-84098333D01*
X199881904Y-84050714D01*
X199691428Y-84050714D01*
X199596190Y-84098333D01*
X200024761Y-84669761D02*
X199929523Y-84717380D01*
X199691428Y-84717380D01*
X199596190Y-84669761D01*
X199548571Y-84574523D01*
X199548571Y-84479285D01*
X199596190Y-84384047D01*
X199691428Y-84336428D01*
X199929523Y-84336428D01*
X200024761Y-84288809D01*
X200929523Y-84717380D02*
X200929523Y-83717380D01*
X200929523Y-84669761D02*
X200834285Y-84717380D01*
X200643809Y-84717380D01*
X200548571Y-84669761D01*
X200500952Y-84622142D01*
X200453333Y-84526904D01*
X200453333Y-84241190D01*
X200500952Y-84145952D01*
X200548571Y-84098333D01*
X200643809Y-84050714D01*
X200834285Y-84050714D01*
X200929523Y-84098333D01*
X201834285Y-84717380D02*
X201834285Y-84193571D01*
X201786666Y-84098333D01*
X201691428Y-84050714D01*
X201500952Y-84050714D01*
X201405714Y-84098333D01*
X201834285Y-84669761D02*
X201739047Y-84717380D01*
X201500952Y-84717380D01*
X201405714Y-84669761D01*
X201358095Y-84574523D01*
X201358095Y-84479285D01*
X201405714Y-84384047D01*
X201500952Y-84336428D01*
X201739047Y-84336428D01*
X201834285Y-84288809D01*
X202310476Y-84050714D02*
X202310476Y-85050714D01*
X202310476Y-84098333D02*
X202405714Y-84050714D01*
X202596190Y-84050714D01*
X202691428Y-84098333D01*
X202739047Y-84145952D01*
X202786666Y-84241190D01*
X202786666Y-84526904D01*
X202739047Y-84622142D01*
X202691428Y-84669761D01*
X202596190Y-84717380D01*
X202405714Y-84717380D01*
X202310476Y-84669761D01*
X203072380Y-84050714D02*
X203453333Y-84050714D01*
X203215238Y-83717380D02*
X203215238Y-84574523D01*
X203262857Y-84669761D01*
X203358095Y-84717380D01*
X203453333Y-84717380D01*
X203929523Y-84717380D02*
X203834285Y-84669761D01*
X203786666Y-84622142D01*
X203739047Y-84526904D01*
X203739047Y-84241190D01*
X203786666Y-84145952D01*
X203834285Y-84098333D01*
X203929523Y-84050714D01*
X204072380Y-84050714D01*
X204167619Y-84098333D01*
X204215238Y-84145952D01*
X204262857Y-84241190D01*
X204262857Y-84526904D01*
X204215238Y-84622142D01*
X204167619Y-84669761D01*
X204072380Y-84717380D01*
X203929523Y-84717380D01*
X204691428Y-84717380D02*
X204691428Y-84050714D01*
X204691428Y-84241190D02*
X204739047Y-84145952D01*
X204786666Y-84098333D01*
X204881904Y-84050714D01*
X204977142Y-84050714D01*
X191929523Y-85700714D02*
X192310476Y-85700714D01*
X192072380Y-86367380D02*
X192072380Y-85510238D01*
X192120000Y-85415000D01*
X192215238Y-85367380D01*
X192310476Y-85367380D01*
X192786666Y-86367380D02*
X192691428Y-86319761D01*
X192643809Y-86272142D01*
X192596190Y-86176904D01*
X192596190Y-85891190D01*
X192643809Y-85795952D01*
X192691428Y-85748333D01*
X192786666Y-85700714D01*
X192929523Y-85700714D01*
X193024761Y-85748333D01*
X193072380Y-85795952D01*
X193120000Y-85891190D01*
X193120000Y-86176904D01*
X193072380Y-86272142D01*
X193024761Y-86319761D01*
X192929523Y-86367380D01*
X192786666Y-86367380D01*
X193548571Y-86367380D02*
X193548571Y-85700714D01*
X193548571Y-85891190D02*
X193596190Y-85795952D01*
X193643809Y-85748333D01*
X193739047Y-85700714D01*
X193834285Y-85700714D01*
X194929523Y-86367380D02*
X194929523Y-85367380D01*
X195262857Y-86081666D01*
X195596190Y-85367380D01*
X195596190Y-86367380D01*
X196072380Y-86367380D02*
X196072380Y-85367380D01*
X196500952Y-86319761D02*
X196643809Y-86367380D01*
X196881904Y-86367380D01*
X196977142Y-86319761D01*
X197024761Y-86272142D01*
X197072380Y-86176904D01*
X197072380Y-86081666D01*
X197024761Y-85986428D01*
X196977142Y-85938809D01*
X196881904Y-85891190D01*
X196691428Y-85843571D01*
X196596190Y-85795952D01*
X196548571Y-85748333D01*
X196500952Y-85653095D01*
X196500952Y-85557857D01*
X196548571Y-85462619D01*
X196596190Y-85415000D01*
X196691428Y-85367380D01*
X196929523Y-85367380D01*
X197072380Y-85415000D01*
X197358095Y-85367380D02*
X197929523Y-85367380D01*
X197643809Y-86367380D02*
X197643809Y-85367380D01*
X198262857Y-85843571D02*
X198596190Y-85843571D01*
X198739047Y-86367380D02*
X198262857Y-86367380D01*
X198262857Y-85367380D01*
X198739047Y-85367380D01*
X199739047Y-86367380D02*
X199405714Y-85891190D01*
X199167619Y-86367380D02*
X199167619Y-85367380D01*
X199548571Y-85367380D01*
X199643809Y-85415000D01*
X199691428Y-85462619D01*
X199739047Y-85557857D01*
X199739047Y-85700714D01*
X199691428Y-85795952D01*
X199643809Y-85843571D01*
X199548571Y-85891190D01*
X199167619Y-85891190D01*
X201262857Y-85843571D02*
X200929523Y-85843571D01*
X200929523Y-86367380D02*
X200929523Y-85367380D01*
X201405714Y-85367380D01*
X201786666Y-86367380D02*
X201786666Y-85367380D01*
X202167619Y-85367380D01*
X202262857Y-85415000D01*
X202310476Y-85462619D01*
X202358095Y-85557857D01*
X202358095Y-85700714D01*
X202310476Y-85795952D01*
X202262857Y-85843571D01*
X202167619Y-85891190D01*
X201786666Y-85891190D01*
X203310476Y-85415000D02*
X203215238Y-85367380D01*
X203072380Y-85367380D01*
X202929523Y-85415000D01*
X202834285Y-85510238D01*
X202786666Y-85605476D01*
X202739047Y-85795952D01*
X202739047Y-85938809D01*
X202786666Y-86129285D01*
X202834285Y-86224523D01*
X202929523Y-86319761D01*
X203072380Y-86367380D01*
X203167619Y-86367380D01*
X203310476Y-86319761D01*
X203358095Y-86272142D01*
X203358095Y-85938809D01*
X203167619Y-85938809D01*
X203739047Y-86081666D02*
X204215238Y-86081666D01*
X203643809Y-86367380D02*
X203977142Y-85367380D01*
X204310476Y-86367380D01*
X144843809Y-80907380D02*
X144843809Y-79907380D01*
X145224761Y-79907380D01*
X145320000Y-79955000D01*
X145367619Y-80002619D01*
X145415238Y-80097857D01*
X145415238Y-80240714D01*
X145367619Y-80335952D01*
X145320000Y-80383571D01*
X145224761Y-80431190D01*
X144843809Y-80431190D01*
X146415238Y-80812142D02*
X146367619Y-80859761D01*
X146224761Y-80907380D01*
X146129523Y-80907380D01*
X145986666Y-80859761D01*
X145891428Y-80764523D01*
X145843809Y-80669285D01*
X145796190Y-80478809D01*
X145796190Y-80335952D01*
X145843809Y-80145476D01*
X145891428Y-80050238D01*
X145986666Y-79955000D01*
X146129523Y-79907380D01*
X146224761Y-79907380D01*
X146367619Y-79955000D01*
X146415238Y-80002619D01*
X147177142Y-80383571D02*
X147320000Y-80431190D01*
X147367619Y-80478809D01*
X147415238Y-80574047D01*
X147415238Y-80716904D01*
X147367619Y-80812142D01*
X147320000Y-80859761D01*
X147224761Y-80907380D01*
X146843809Y-80907380D01*
X146843809Y-79907380D01*
X147177142Y-79907380D01*
X147272380Y-79955000D01*
X147320000Y-80002619D01*
X147367619Y-80097857D01*
X147367619Y-80193095D01*
X147320000Y-80288333D01*
X147272380Y-80335952D01*
X147177142Y-80383571D01*
X146843809Y-80383571D01*
X148605714Y-80907380D02*
X148605714Y-79907380D01*
X148605714Y-80288333D02*
X148700952Y-80240714D01*
X148891428Y-80240714D01*
X148986666Y-80288333D01*
X149034285Y-80335952D01*
X149081904Y-80431190D01*
X149081904Y-80716904D01*
X149034285Y-80812142D01*
X148986666Y-80859761D01*
X148891428Y-80907380D01*
X148700952Y-80907380D01*
X148605714Y-80859761D01*
X149415238Y-80240714D02*
X149653333Y-80907380D01*
X149891428Y-80240714D02*
X149653333Y-80907380D01*
X149558095Y-81145476D01*
X149510476Y-81193095D01*
X149415238Y-81240714D01*
X143796190Y-82081190D02*
X143748571Y-82033571D01*
X143653333Y-81985952D01*
X143558095Y-81985952D01*
X143462857Y-82033571D01*
X143415238Y-82081190D01*
X143367619Y-82176428D01*
X143367619Y-82271666D01*
X143415238Y-82366904D01*
X143462857Y-82414523D01*
X143558095Y-82462142D01*
X143653333Y-82462142D01*
X143748571Y-82414523D01*
X143796190Y-82366904D01*
X143796190Y-81985952D02*
X143796190Y-82366904D01*
X143843809Y-82414523D01*
X143891428Y-82414523D01*
X143986666Y-82366904D01*
X144034285Y-82271666D01*
X144034285Y-82033571D01*
X143939047Y-81890714D01*
X143796190Y-81795476D01*
X143605714Y-81747857D01*
X143415238Y-81795476D01*
X143272380Y-81890714D01*
X143177142Y-82033571D01*
X143129523Y-82224047D01*
X143177142Y-82414523D01*
X143272380Y-82557380D01*
X143415238Y-82652619D01*
X143605714Y-82700238D01*
X143796190Y-82652619D01*
X143939047Y-82557380D01*
X144891428Y-82509761D02*
X144796190Y-82557380D01*
X144605714Y-82557380D01*
X144510476Y-82509761D01*
X144462857Y-82462142D01*
X144415238Y-82366904D01*
X144415238Y-82081190D01*
X144462857Y-81985952D01*
X144510476Y-81938333D01*
X144605714Y-81890714D01*
X144796190Y-81890714D01*
X144891428Y-81938333D01*
X145224761Y-81890714D02*
X145462857Y-82557380D01*
X145700952Y-81890714D02*
X145462857Y-82557380D01*
X145367619Y-82795476D01*
X145320000Y-82843095D01*
X145224761Y-82890714D01*
X146224761Y-82557380D02*
X146129523Y-82509761D01*
X146081904Y-82462142D01*
X146034285Y-82366904D01*
X146034285Y-82081190D01*
X146081904Y-81985952D01*
X146129523Y-81938333D01*
X146224761Y-81890714D01*
X146367619Y-81890714D01*
X146462857Y-81938333D01*
X146510476Y-81985952D01*
X146558095Y-82081190D01*
X146558095Y-82366904D01*
X146510476Y-82462142D01*
X146462857Y-82509761D01*
X146367619Y-82557380D01*
X146224761Y-82557380D01*
X146843809Y-81890714D02*
X147224761Y-81890714D01*
X146986666Y-81557380D02*
X146986666Y-82414523D01*
X147034285Y-82509761D01*
X147129523Y-82557380D01*
X147224761Y-82557380D01*
X147558095Y-82557380D02*
X147558095Y-81557380D01*
X147986666Y-82557380D02*
X147986666Y-82033571D01*
X147939047Y-81938333D01*
X147843809Y-81890714D01*
X147700952Y-81890714D01*
X147605714Y-81938333D01*
X147558095Y-81985952D01*
X148843809Y-82509761D02*
X148748571Y-82557380D01*
X148558095Y-82557380D01*
X148462857Y-82509761D01*
X148415238Y-82414523D01*
X148415238Y-82033571D01*
X148462857Y-81938333D01*
X148558095Y-81890714D01*
X148748571Y-81890714D01*
X148843809Y-81938333D01*
X148891428Y-82033571D01*
X148891428Y-82128809D01*
X148415238Y-82224047D01*
X149224761Y-81890714D02*
X149462857Y-82557380D01*
X149700952Y-81890714D01*
X150081904Y-82557380D02*
X150081904Y-81890714D01*
X150081904Y-81557380D02*
X150034285Y-81605000D01*
X150081904Y-81652619D01*
X150129523Y-81605000D01*
X150081904Y-81557380D01*
X150081904Y-81652619D01*
X150700952Y-82557380D02*
X150605714Y-82509761D01*
X150558095Y-82414523D01*
X150558095Y-81557380D01*
X151462857Y-82509761D02*
X151367619Y-82557380D01*
X151177142Y-82557380D01*
X151081904Y-82509761D01*
X151034285Y-82414523D01*
X151034285Y-82033571D01*
X151081904Y-81938333D01*
X151177142Y-81890714D01*
X151367619Y-81890714D01*
X151462857Y-81938333D01*
X151510476Y-82033571D01*
X151510476Y-82128809D01*
X151034285Y-82224047D01*
X140312142Y-76097380D02*
X140502619Y-76097380D01*
X140597857Y-76145000D01*
X140693095Y-76240238D01*
X140740714Y-76430714D01*
X140740714Y-76764047D01*
X140693095Y-76954523D01*
X140597857Y-77049761D01*
X140502619Y-77097380D01*
X140312142Y-77097380D01*
X140216904Y-77049761D01*
X140121666Y-76954523D01*
X140074047Y-76764047D01*
X140074047Y-76430714D01*
X140121666Y-76240238D01*
X140216904Y-76145000D01*
X140312142Y-76097380D01*
X141169285Y-77097380D02*
X141169285Y-76430714D01*
X141169285Y-76621190D02*
X141216904Y-76525952D01*
X141264523Y-76478333D01*
X141359761Y-76430714D01*
X141455000Y-76430714D01*
X141788333Y-77097380D02*
X141788333Y-76430714D01*
X141788333Y-76097380D02*
X141740714Y-76145000D01*
X141788333Y-76192619D01*
X141835952Y-76145000D01*
X141788333Y-76097380D01*
X141788333Y-76192619D01*
X142693095Y-76430714D02*
X142693095Y-77240238D01*
X142645476Y-77335476D01*
X142597857Y-77383095D01*
X142502619Y-77430714D01*
X142359761Y-77430714D01*
X142264523Y-77383095D01*
X142693095Y-77049761D02*
X142597857Y-77097380D01*
X142407380Y-77097380D01*
X142312142Y-77049761D01*
X142264523Y-77002142D01*
X142216904Y-76906904D01*
X142216904Y-76621190D01*
X142264523Y-76525952D01*
X142312142Y-76478333D01*
X142407380Y-76430714D01*
X142597857Y-76430714D01*
X142693095Y-76478333D01*
X143169285Y-77097380D02*
X143169285Y-76430714D01*
X143169285Y-76097380D02*
X143121666Y-76145000D01*
X143169285Y-76192619D01*
X143216904Y-76145000D01*
X143169285Y-76097380D01*
X143169285Y-76192619D01*
X143645476Y-76430714D02*
X143645476Y-77097380D01*
X143645476Y-76525952D02*
X143693095Y-76478333D01*
X143788333Y-76430714D01*
X143931190Y-76430714D01*
X144026428Y-76478333D01*
X144074047Y-76573571D01*
X144074047Y-77097380D01*
X144978809Y-77097380D02*
X144978809Y-76573571D01*
X144931190Y-76478333D01*
X144835952Y-76430714D01*
X144645476Y-76430714D01*
X144550238Y-76478333D01*
X144978809Y-77049761D02*
X144883571Y-77097380D01*
X144645476Y-77097380D01*
X144550238Y-77049761D01*
X144502619Y-76954523D01*
X144502619Y-76859285D01*
X144550238Y-76764047D01*
X144645476Y-76716428D01*
X144883571Y-76716428D01*
X144978809Y-76668809D01*
X145597857Y-77097380D02*
X145502619Y-77049761D01*
X145455000Y-76954523D01*
X145455000Y-76097380D01*
X146121666Y-77097380D02*
X146026428Y-77049761D01*
X145978809Y-76954523D01*
X145978809Y-76097380D01*
X146407380Y-76430714D02*
X146645476Y-77097380D01*
X146883571Y-76430714D02*
X146645476Y-77097380D01*
X146550238Y-77335476D01*
X146502619Y-77383095D01*
X146407380Y-77430714D01*
X148455000Y-77097380D02*
X148455000Y-76097380D01*
X148455000Y-77049761D02*
X148359761Y-77097380D01*
X148169285Y-77097380D01*
X148074047Y-77049761D01*
X148026428Y-77002142D01*
X147978809Y-76906904D01*
X147978809Y-76621190D01*
X148026428Y-76525952D01*
X148074047Y-76478333D01*
X148169285Y-76430714D01*
X148359761Y-76430714D01*
X148455000Y-76478333D01*
X149312142Y-77049761D02*
X149216904Y-77097380D01*
X149026428Y-77097380D01*
X148931190Y-77049761D01*
X148883571Y-76954523D01*
X148883571Y-76573571D01*
X148931190Y-76478333D01*
X149026428Y-76430714D01*
X149216904Y-76430714D01*
X149312142Y-76478333D01*
X149359761Y-76573571D01*
X149359761Y-76668809D01*
X148883571Y-76764047D01*
X149693095Y-76430714D02*
X149931190Y-77097380D01*
X150169285Y-76430714D01*
X150931190Y-77049761D02*
X150835952Y-77097380D01*
X150645476Y-77097380D01*
X150550238Y-77049761D01*
X150502619Y-76954523D01*
X150502619Y-76573571D01*
X150550238Y-76478333D01*
X150645476Y-76430714D01*
X150835952Y-76430714D01*
X150931190Y-76478333D01*
X150978809Y-76573571D01*
X150978809Y-76668809D01*
X150502619Y-76764047D01*
X151550238Y-77097380D02*
X151455000Y-77049761D01*
X151407380Y-76954523D01*
X151407380Y-76097380D01*
X152074047Y-77097380D02*
X151978809Y-77049761D01*
X151931190Y-77002142D01*
X151883571Y-76906904D01*
X151883571Y-76621190D01*
X151931190Y-76525952D01*
X151978809Y-76478333D01*
X152074047Y-76430714D01*
X152216904Y-76430714D01*
X152312142Y-76478333D01*
X152359761Y-76525952D01*
X152407380Y-76621190D01*
X152407380Y-76906904D01*
X152359761Y-77002142D01*
X152312142Y-77049761D01*
X152216904Y-77097380D01*
X152074047Y-77097380D01*
X152835952Y-76430714D02*
X152835952Y-77430714D01*
X152835952Y-76478333D02*
X152931190Y-76430714D01*
X153121666Y-76430714D01*
X153216904Y-76478333D01*
X153264523Y-76525952D01*
X153312142Y-76621190D01*
X153312142Y-76906904D01*
X153264523Y-77002142D01*
X153216904Y-77049761D01*
X153121666Y-77097380D01*
X152931190Y-77097380D01*
X152835952Y-77049761D01*
X154121666Y-77049761D02*
X154026428Y-77097380D01*
X153835952Y-77097380D01*
X153740714Y-77049761D01*
X153693095Y-76954523D01*
X153693095Y-76573571D01*
X153740714Y-76478333D01*
X153835952Y-76430714D01*
X154026428Y-76430714D01*
X154121666Y-76478333D01*
X154169285Y-76573571D01*
X154169285Y-76668809D01*
X153693095Y-76764047D01*
X155026428Y-77097380D02*
X155026428Y-76097380D01*
X155026428Y-77049761D02*
X154931190Y-77097380D01*
X154740714Y-77097380D01*
X154645476Y-77049761D01*
X154597857Y-77002142D01*
X154550238Y-76906904D01*
X154550238Y-76621190D01*
X154597857Y-76525952D01*
X154645476Y-76478333D01*
X154740714Y-76430714D01*
X154931190Y-76430714D01*
X155026428Y-76478333D01*
X143074047Y-78747380D02*
X143074047Y-77747380D01*
X143074047Y-78128333D02*
X143169285Y-78080714D01*
X143359761Y-78080714D01*
X143455000Y-78128333D01*
X143502619Y-78175952D01*
X143550238Y-78271190D01*
X143550238Y-78556904D01*
X143502619Y-78652142D01*
X143455000Y-78699761D01*
X143359761Y-78747380D01*
X143169285Y-78747380D01*
X143074047Y-78699761D01*
X143883571Y-78080714D02*
X144121666Y-78747380D01*
X144359761Y-78080714D02*
X144121666Y-78747380D01*
X144026428Y-78985476D01*
X143978809Y-79033095D01*
X143883571Y-79080714D01*
X146121666Y-78271190D02*
X146074047Y-78223571D01*
X145978809Y-78175952D01*
X145883571Y-78175952D01*
X145788333Y-78223571D01*
X145740714Y-78271190D01*
X145693095Y-78366428D01*
X145693095Y-78461666D01*
X145740714Y-78556904D01*
X145788333Y-78604523D01*
X145883571Y-78652142D01*
X145978809Y-78652142D01*
X146074047Y-78604523D01*
X146121666Y-78556904D01*
X146121666Y-78175952D02*
X146121666Y-78556904D01*
X146169285Y-78604523D01*
X146216904Y-78604523D01*
X146312142Y-78556904D01*
X146359761Y-78461666D01*
X146359761Y-78223571D01*
X146264523Y-78080714D01*
X146121666Y-77985476D01*
X145931190Y-77937857D01*
X145740714Y-77985476D01*
X145597857Y-78080714D01*
X145502619Y-78223571D01*
X145455000Y-78414047D01*
X145502619Y-78604523D01*
X145597857Y-78747380D01*
X145740714Y-78842619D01*
X145931190Y-78890238D01*
X146121666Y-78842619D01*
X146264523Y-78747380D01*
X146788333Y-78747380D02*
X146788333Y-77747380D01*
X147121666Y-78461666D01*
X147455000Y-77747380D01*
X147455000Y-78747380D01*
X147931190Y-78747380D02*
X147931190Y-78080714D01*
X147931190Y-77747380D02*
X147883571Y-77795000D01*
X147931190Y-77842619D01*
X147978809Y-77795000D01*
X147931190Y-77747380D01*
X147931190Y-77842619D01*
X148835952Y-78699761D02*
X148740714Y-78747380D01*
X148550238Y-78747380D01*
X148455000Y-78699761D01*
X148407380Y-78652142D01*
X148359761Y-78556904D01*
X148359761Y-78271190D01*
X148407380Y-78175952D01*
X148455000Y-78128333D01*
X148550238Y-78080714D01*
X148740714Y-78080714D01*
X148835952Y-78128333D01*
X149264523Y-78747380D02*
X149264523Y-77747380D01*
X149359761Y-78366428D02*
X149645476Y-78747380D01*
X149645476Y-78080714D02*
X149264523Y-78461666D01*
X150597857Y-77795000D02*
X150502619Y-77747380D01*
X150359761Y-77747380D01*
X150216904Y-77795000D01*
X150121666Y-77890238D01*
X150074047Y-77985476D01*
X150026428Y-78175952D01*
X150026428Y-78318809D01*
X150074047Y-78509285D01*
X150121666Y-78604523D01*
X150216904Y-78699761D01*
X150359761Y-78747380D01*
X150455000Y-78747380D01*
X150597857Y-78699761D01*
X150645476Y-78652142D01*
X150645476Y-78318809D01*
X150455000Y-78318809D01*
X150978809Y-78080714D02*
X151216904Y-78747380D01*
X151455000Y-78080714D02*
X151216904Y-78747380D01*
X151121666Y-78985476D01*
X151074047Y-79033095D01*
X150978809Y-79080714D01*
X151740714Y-78080714D02*
X151978809Y-78747380D01*
X152216904Y-78080714D01*
X152978809Y-78699761D02*
X152883571Y-78747380D01*
X152693095Y-78747380D01*
X152597857Y-78699761D01*
X152550238Y-78604523D01*
X152550238Y-78223571D01*
X152597857Y-78128333D01*
X152693095Y-78080714D01*
X152883571Y-78080714D01*
X152978809Y-78128333D01*
X153026428Y-78223571D01*
X153026428Y-78318809D01*
X152550238Y-78414047D01*
X153455000Y-78747380D02*
X153455000Y-78080714D01*
X153455000Y-78271190D02*
X153502619Y-78175952D01*
X153550238Y-78128333D01*
X153645476Y-78080714D01*
X153740714Y-78080714D01*
D11*
%TO.C,G\u002A\u002A\u002A*%
G36*
X188885285Y-80385168D02*
G01*
X189197971Y-80421277D01*
X189478939Y-80486589D01*
X189723816Y-80576683D01*
X189928228Y-80687135D01*
X190087802Y-80813522D01*
X190198167Y-80951423D01*
X190254948Y-81096414D01*
X190253773Y-81244072D01*
X190190269Y-81389976D01*
X190060063Y-81529702D01*
X190035864Y-81548823D01*
X189792898Y-81694956D01*
X189497442Y-81807868D01*
X189162711Y-81885151D01*
X188801921Y-81924397D01*
X188428285Y-81923199D01*
X188143142Y-81893651D01*
X187909454Y-81849105D01*
X187705442Y-81785151D01*
X187488463Y-81688417D01*
X187488285Y-81688330D01*
X187273331Y-81556821D01*
X187126486Y-81411674D01*
X187048308Y-81257634D01*
X187039355Y-81099447D01*
X187100184Y-80941858D01*
X187231352Y-80789613D01*
X187370496Y-80685434D01*
X187668234Y-80536080D01*
X188016623Y-80435405D01*
X188411808Y-80384173D01*
X188849937Y-80383147D01*
X188885285Y-80385168D01*
G37*
X188885285Y-80385168D02*
X189197971Y-80421277D01*
X189478939Y-80486589D01*
X189723816Y-80576683D01*
X189928228Y-80687135D01*
X190087802Y-80813522D01*
X190198167Y-80951423D01*
X190254948Y-81096414D01*
X190253773Y-81244072D01*
X190190269Y-81389976D01*
X190060063Y-81529702D01*
X190035864Y-81548823D01*
X189792898Y-81694956D01*
X189497442Y-81807868D01*
X189162711Y-81885151D01*
X188801921Y-81924397D01*
X188428285Y-81923199D01*
X188143142Y-81893651D01*
X187909454Y-81849105D01*
X187705442Y-81785151D01*
X187488463Y-81688417D01*
X187488285Y-81688330D01*
X187273331Y-81556821D01*
X187126486Y-81411674D01*
X187048308Y-81257634D01*
X187039355Y-81099447D01*
X187100184Y-80941858D01*
X187231352Y-80789613D01*
X187370496Y-80685434D01*
X187668234Y-80536080D01*
X188016623Y-80435405D01*
X188411808Y-80384173D01*
X188849937Y-80383147D01*
X188885285Y-80385168D01*
G36*
X193418449Y-80291215D02*
G01*
X193412282Y-80419380D01*
X193399144Y-80526378D01*
X193387960Y-80571341D01*
X193385140Y-80637704D01*
X193426284Y-80729107D01*
X193481224Y-80811532D01*
X193547049Y-80906848D01*
X193591067Y-80977662D01*
X193602428Y-81003120D01*
X193570270Y-81017625D01*
X193490210Y-81025519D01*
X193461459Y-81026000D01*
X193353333Y-81013469D01*
X193284433Y-80966678D01*
X193260844Y-80934971D01*
X193201199Y-80843941D01*
X193090534Y-80925760D01*
X193012452Y-80971415D01*
X192915424Y-80999710D01*
X192777822Y-81015797D01*
X192692434Y-81020631D01*
X192405000Y-81033684D01*
X192405000Y-80735714D01*
X192642659Y-80735714D01*
X192851106Y-80715421D01*
X193018663Y-80657958D01*
X193136858Y-80568456D01*
X193197218Y-80452043D01*
X193203285Y-80396313D01*
X193198497Y-80365649D01*
X193175600Y-80346634D01*
X193121794Y-80337509D01*
X193024283Y-80336519D01*
X192870265Y-80341905D01*
X192822285Y-80344004D01*
X192441285Y-80360949D01*
X192441285Y-80082572D01*
X193421000Y-80082572D01*
X193418449Y-80291215D01*
G37*
X193418449Y-80291215D02*
X193412282Y-80419380D01*
X193399144Y-80526378D01*
X193387960Y-80571341D01*
X193385140Y-80637704D01*
X193426284Y-80729107D01*
X193481224Y-80811532D01*
X193547049Y-80906848D01*
X193591067Y-80977662D01*
X193602428Y-81003120D01*
X193570270Y-81017625D01*
X193490210Y-81025519D01*
X193461459Y-81026000D01*
X193353333Y-81013469D01*
X193284433Y-80966678D01*
X193260844Y-80934971D01*
X193201199Y-80843941D01*
X193090534Y-80925760D01*
X193012452Y-80971415D01*
X192915424Y-80999710D01*
X192777822Y-81015797D01*
X192692434Y-81020631D01*
X192405000Y-81033684D01*
X192405000Y-80735714D01*
X192642659Y-80735714D01*
X192851106Y-80715421D01*
X193018663Y-80657958D01*
X193136858Y-80568456D01*
X193197218Y-80452043D01*
X193203285Y-80396313D01*
X193198497Y-80365649D01*
X193175600Y-80346634D01*
X193121794Y-80337509D01*
X193024283Y-80336519D01*
X192870265Y-80341905D01*
X192822285Y-80344004D01*
X192441285Y-80360949D01*
X192441285Y-80082572D01*
X193421000Y-80082572D01*
X193418449Y-80291215D01*
G36*
X194808928Y-80089344D02*
G01*
X194874161Y-80098613D01*
X194910386Y-80122341D01*
X194927585Y-80178433D01*
X194935737Y-80284798D01*
X194937464Y-80319954D01*
X194927924Y-80548167D01*
X194877275Y-80732914D01*
X194788317Y-80865268D01*
X194758424Y-80890618D01*
X194676515Y-80934953D01*
X194569212Y-80973271D01*
X194461353Y-80999159D01*
X194377776Y-81006204D01*
X194347279Y-80996756D01*
X194334192Y-80950760D01*
X194328184Y-80864726D01*
X194328142Y-80856667D01*
X194336034Y-80773126D01*
X194369750Y-80740124D01*
X194413963Y-80735714D01*
X194502756Y-80713583D01*
X194595392Y-80660509D01*
X194646257Y-80613658D01*
X194675037Y-80559596D01*
X194687893Y-80477128D01*
X194690989Y-80345057D01*
X194691000Y-80331639D01*
X194691000Y-80077974D01*
X194808928Y-80089344D01*
G37*
X194808928Y-80089344D02*
X194874161Y-80098613D01*
X194910386Y-80122341D01*
X194927585Y-80178433D01*
X194935737Y-80284798D01*
X194937464Y-80319954D01*
X194927924Y-80548167D01*
X194877275Y-80732914D01*
X194788317Y-80865268D01*
X194758424Y-80890618D01*
X194676515Y-80934953D01*
X194569212Y-80973271D01*
X194461353Y-80999159D01*
X194377776Y-81006204D01*
X194347279Y-80996756D01*
X194334192Y-80950760D01*
X194328184Y-80864726D01*
X194328142Y-80856667D01*
X194336034Y-80773126D01*
X194369750Y-80740124D01*
X194413963Y-80735714D01*
X194502756Y-80713583D01*
X194595392Y-80660509D01*
X194646257Y-80613658D01*
X194675037Y-80559596D01*
X194687893Y-80477128D01*
X194690989Y-80345057D01*
X194691000Y-80331639D01*
X194691000Y-80077974D01*
X194808928Y-80089344D01*
G36*
X195198284Y-80092188D02*
G01*
X195233816Y-80126387D01*
X195236389Y-80146072D01*
X195240500Y-80190221D01*
X195259760Y-80170848D01*
X195274478Y-80146072D01*
X195338568Y-80098277D01*
X195433564Y-80083675D01*
X195524614Y-80104748D01*
X195554600Y-80126115D01*
X195595150Y-80212238D01*
X195579821Y-80313482D01*
X195522792Y-80393516D01*
X195466138Y-80437035D01*
X195416649Y-80438734D01*
X195341363Y-80400827D01*
X195235285Y-80339947D01*
X195235841Y-80456188D01*
X195244065Y-80550015D01*
X195263055Y-80612354D01*
X195334939Y-80674266D01*
X195440124Y-80721292D01*
X195523186Y-80735714D01*
X195572066Y-80747112D01*
X195593706Y-80794192D01*
X195598142Y-80880857D01*
X195592831Y-80968847D01*
X195566710Y-81013076D01*
X195504501Y-81020764D01*
X195390925Y-80999129D01*
X195362285Y-80992301D01*
X195206838Y-80937939D01*
X195097274Y-80855001D01*
X195027345Y-80733045D01*
X194990799Y-80561634D01*
X194981285Y-80355880D01*
X194981285Y-80245857D01*
X195380428Y-80245857D01*
X195398840Y-80291017D01*
X195419435Y-80293331D01*
X195456924Y-80255870D01*
X195458442Y-80245857D01*
X195430193Y-80203311D01*
X195419435Y-80198384D01*
X195386349Y-80215899D01*
X195380428Y-80245857D01*
X194981285Y-80245857D01*
X194981285Y-80082572D01*
X195108285Y-80082572D01*
X195198284Y-80092188D01*
G37*
X195198284Y-80092188D02*
X195233816Y-80126387D01*
X195236389Y-80146072D01*
X195240500Y-80190221D01*
X195259760Y-80170848D01*
X195274478Y-80146072D01*
X195338568Y-80098277D01*
X195433564Y-80083675D01*
X195524614Y-80104748D01*
X195554600Y-80126115D01*
X195595150Y-80212238D01*
X195579821Y-80313482D01*
X195522792Y-80393516D01*
X195466138Y-80437035D01*
X195416649Y-80438734D01*
X195341363Y-80400827D01*
X195235285Y-80339947D01*
X195235841Y-80456188D01*
X195244065Y-80550015D01*
X195263055Y-80612354D01*
X195334939Y-80674266D01*
X195440124Y-80721292D01*
X195523186Y-80735714D01*
X195572066Y-80747112D01*
X195593706Y-80794192D01*
X195598142Y-80880857D01*
X195592831Y-80968847D01*
X195566710Y-81013076D01*
X195504501Y-81020764D01*
X195390925Y-80999129D01*
X195362285Y-80992301D01*
X195206838Y-80937939D01*
X195097274Y-80855001D01*
X195027345Y-80733045D01*
X194990799Y-80561634D01*
X194981285Y-80355880D01*
X194981285Y-80245857D01*
X195380428Y-80245857D01*
X195398840Y-80291017D01*
X195419435Y-80293331D01*
X195456924Y-80255870D01*
X195458442Y-80245857D01*
X195430193Y-80203311D01*
X195419435Y-80198384D01*
X195386349Y-80215899D01*
X195380428Y-80245857D01*
X194981285Y-80245857D01*
X194981285Y-80082572D01*
X195108285Y-80082572D01*
X195198284Y-80092188D01*
G36*
X197829714Y-80100715D02*
G01*
X197840515Y-80327429D01*
X197829666Y-80562194D01*
X197770393Y-80745991D01*
X197659928Y-80881429D01*
X197495500Y-80971113D01*
X197274342Y-81017652D01*
X197098591Y-81026000D01*
X196959655Y-81023171D01*
X196850105Y-81015662D01*
X196789047Y-81004939D01*
X196783476Y-81001810D01*
X196766872Y-80952013D01*
X196759327Y-80863851D01*
X196759285Y-80856667D01*
X196759285Y-80735714D01*
X197083833Y-80735714D01*
X197244952Y-80733561D01*
X197352190Y-80724671D01*
X197424175Y-80705400D01*
X197479530Y-80672105D01*
X197501158Y-80654072D01*
X197574300Y-80559010D01*
X197617679Y-80448978D01*
X197641423Y-80325526D01*
X197182211Y-80345358D01*
X196723000Y-80365190D01*
X196723000Y-80080681D01*
X197829714Y-80100715D01*
G37*
X197829714Y-80100715D02*
X197840515Y-80327429D01*
X197829666Y-80562194D01*
X197770393Y-80745991D01*
X197659928Y-80881429D01*
X197495500Y-80971113D01*
X197274342Y-81017652D01*
X197098591Y-81026000D01*
X196959655Y-81023171D01*
X196850105Y-81015662D01*
X196789047Y-81004939D01*
X196783476Y-81001810D01*
X196766872Y-80952013D01*
X196759327Y-80863851D01*
X196759285Y-80856667D01*
X196759285Y-80735714D01*
X197083833Y-80735714D01*
X197244952Y-80733561D01*
X197352190Y-80724671D01*
X197424175Y-80705400D01*
X197479530Y-80672105D01*
X197501158Y-80654072D01*
X197574300Y-80559010D01*
X197617679Y-80448978D01*
X197641423Y-80325526D01*
X197182211Y-80345358D01*
X196723000Y-80365190D01*
X196723000Y-80080681D01*
X197829714Y-80100715D01*
G36*
X198863857Y-80498926D02*
G01*
X198860373Y-80615992D01*
X198843324Y-80684055D01*
X198802816Y-80726592D01*
X198756802Y-80752926D01*
X198654756Y-80792494D01*
X198565310Y-80808286D01*
X198483232Y-80836050D01*
X198394989Y-80906563D01*
X198385354Y-80917143D01*
X198307750Y-80989261D01*
X198222472Y-81020443D01*
X198127156Y-81026000D01*
X198009143Y-81015695D01*
X197949983Y-80982487D01*
X197942453Y-80968604D01*
X197915766Y-80864782D01*
X197939734Y-80803016D01*
X198022460Y-80772328D01*
X198092785Y-80764917D01*
X198200053Y-80752881D01*
X198254373Y-80728315D01*
X198275310Y-80681531D01*
X198276509Y-80673957D01*
X198292094Y-80627534D01*
X198334125Y-80600982D01*
X198420672Y-80586588D01*
X198494224Y-80581032D01*
X198541792Y-80575587D01*
X198522896Y-80570109D01*
X198443642Y-80565200D01*
X198310134Y-80561462D01*
X198292357Y-80561147D01*
X197884142Y-80554286D01*
X197884142Y-80300286D01*
X198863857Y-80300286D01*
X198863857Y-80498926D01*
G37*
X198863857Y-80498926D02*
X198860373Y-80615992D01*
X198843324Y-80684055D01*
X198802816Y-80726592D01*
X198756802Y-80752926D01*
X198654756Y-80792494D01*
X198565310Y-80808286D01*
X198483232Y-80836050D01*
X198394989Y-80906563D01*
X198385354Y-80917143D01*
X198307750Y-80989261D01*
X198222472Y-81020443D01*
X198127156Y-81026000D01*
X198009143Y-81015695D01*
X197949983Y-80982487D01*
X197942453Y-80968604D01*
X197915766Y-80864782D01*
X197939734Y-80803016D01*
X198022460Y-80772328D01*
X198092785Y-80764917D01*
X198200053Y-80752881D01*
X198254373Y-80728315D01*
X198275310Y-80681531D01*
X198276509Y-80673957D01*
X198292094Y-80627534D01*
X198334125Y-80600982D01*
X198420672Y-80586588D01*
X198494224Y-80581032D01*
X198541792Y-80575587D01*
X198522896Y-80570109D01*
X198443642Y-80565200D01*
X198310134Y-80561462D01*
X198292357Y-80561147D01*
X197884142Y-80554286D01*
X197884142Y-80300286D01*
X198863857Y-80300286D01*
X198863857Y-80498926D01*
G36*
X199199500Y-80676783D02*
G01*
X199367951Y-80693626D01*
X199568119Y-80715722D01*
X199759802Y-80738613D01*
X199780071Y-80741169D01*
X200097571Y-80781495D01*
X200097571Y-80903747D01*
X200091487Y-80986484D01*
X200058769Y-81018477D01*
X199979643Y-81021461D01*
X199891451Y-81014361D01*
X199754915Y-80999190D01*
X199593456Y-80978648D01*
X199517000Y-80968101D01*
X199300903Y-80937480D01*
X199146297Y-80914110D01*
X199042916Y-80894404D01*
X198980495Y-80874773D01*
X198948766Y-80851628D01*
X198937464Y-80821380D01*
X198936324Y-80780440D01*
X198936428Y-80765145D01*
X198936428Y-80652722D01*
X199199500Y-80676783D01*
G37*
X199199500Y-80676783D02*
X199367951Y-80693626D01*
X199568119Y-80715722D01*
X199759802Y-80738613D01*
X199780071Y-80741169D01*
X200097571Y-80781495D01*
X200097571Y-80903747D01*
X200091487Y-80986484D01*
X200058769Y-81018477D01*
X199979643Y-81021461D01*
X199891451Y-81014361D01*
X199754915Y-80999190D01*
X199593456Y-80978648D01*
X199517000Y-80968101D01*
X199300903Y-80937480D01*
X199146297Y-80914110D01*
X199042916Y-80894404D01*
X198980495Y-80874773D01*
X198948766Y-80851628D01*
X198937464Y-80821380D01*
X198936324Y-80780440D01*
X198936428Y-80765145D01*
X198936428Y-80652722D01*
X199199500Y-80676783D01*
G36*
X201367571Y-81026000D02*
G01*
X200170143Y-81026000D01*
X200170143Y-80735714D01*
X201113571Y-80735714D01*
X201113571Y-80372857D01*
X200215500Y-80372857D01*
X200192983Y-80260273D01*
X200182999Y-80171648D01*
X200190400Y-80115442D01*
X200190589Y-80115131D01*
X200231933Y-80104078D01*
X200333107Y-80094634D01*
X200481374Y-80087489D01*
X200663996Y-80083338D01*
X200789141Y-80082572D01*
X201367571Y-80082572D01*
X201367571Y-81026000D01*
G37*
X201367571Y-81026000D02*
X200170143Y-81026000D01*
X200170143Y-80735714D01*
X201113571Y-80735714D01*
X201113571Y-80372857D01*
X200215500Y-80372857D01*
X200192983Y-80260273D01*
X200182999Y-80171648D01*
X200190400Y-80115442D01*
X200190589Y-80115131D01*
X200231933Y-80104078D01*
X200333107Y-80094634D01*
X200481374Y-80087489D01*
X200663996Y-80083338D01*
X200789141Y-80082572D01*
X201367571Y-80082572D01*
X201367571Y-81026000D01*
G36*
X202524565Y-80089708D02*
G01*
X202571212Y-80098033D01*
X202599336Y-80119808D01*
X202613624Y-80170231D01*
X202618760Y-80264503D01*
X202619428Y-80397516D01*
X202606504Y-80607516D01*
X202562836Y-80767526D01*
X202481076Y-80883396D01*
X202353881Y-80960974D01*
X202173904Y-81006110D01*
X201933799Y-81024652D01*
X201830214Y-81025944D01*
X201440143Y-81026000D01*
X201440143Y-80735714D01*
X201816249Y-80735714D01*
X201992485Y-80733872D01*
X202112924Y-80726568D01*
X202194286Y-80711135D01*
X202253292Y-80684910D01*
X202287963Y-80660509D01*
X202358307Y-80582160D01*
X202382797Y-80478960D01*
X202383571Y-80447331D01*
X202390070Y-80319076D01*
X202405793Y-80198337D01*
X202406637Y-80194029D01*
X202431796Y-80114450D01*
X202476882Y-80087972D01*
X202524565Y-80089708D01*
G37*
X202524565Y-80089708D02*
X202571212Y-80098033D01*
X202599336Y-80119808D01*
X202613624Y-80170231D01*
X202618760Y-80264503D01*
X202619428Y-80397516D01*
X202606504Y-80607516D01*
X202562836Y-80767526D01*
X202481076Y-80883396D01*
X202353881Y-80960974D01*
X202173904Y-81006110D01*
X201933799Y-81024652D01*
X201830214Y-81025944D01*
X201440143Y-81026000D01*
X201440143Y-80735714D01*
X201816249Y-80735714D01*
X201992485Y-80733872D01*
X202112924Y-80726568D01*
X202194286Y-80711135D01*
X202253292Y-80684910D01*
X202287963Y-80660509D01*
X202358307Y-80582160D01*
X202382797Y-80478960D01*
X202383571Y-80447331D01*
X202390070Y-80319076D01*
X202405793Y-80198337D01*
X202406637Y-80194029D01*
X202431796Y-80114450D01*
X202476882Y-80087972D01*
X202524565Y-80089708D01*
G36*
X190621773Y-78000144D02*
G01*
X190748025Y-78008012D01*
X190846935Y-78026181D01*
X190941111Y-78059067D01*
X191053158Y-78111083D01*
X191072473Y-78120596D01*
X191274971Y-78245238D01*
X191466291Y-78407240D01*
X191626235Y-78587183D01*
X191727635Y-78750458D01*
X191769242Y-78854951D01*
X191815167Y-78995233D01*
X191846261Y-79106141D01*
X191881693Y-79385063D01*
X191852371Y-79670753D01*
X191762890Y-79948603D01*
X191617848Y-80204008D01*
X191435989Y-80409628D01*
X191254606Y-80554475D01*
X191065020Y-80669495D01*
X190879726Y-80750067D01*
X190711218Y-80791571D01*
X190571991Y-80789385D01*
X190495781Y-80757372D01*
X190432713Y-80673663D01*
X190396021Y-80528846D01*
X190395285Y-80523411D01*
X190332164Y-80292014D01*
X190210717Y-80060236D01*
X190043069Y-79845116D01*
X189841342Y-79663694D01*
X189732070Y-79591286D01*
X189609906Y-79533036D01*
X189457316Y-79478046D01*
X189358089Y-79450623D01*
X189199583Y-79407551D01*
X189100763Y-79361694D01*
X189049074Y-79303345D01*
X189031961Y-79222798D01*
X189031613Y-79198200D01*
X189065487Y-78986056D01*
X189156227Y-78763170D01*
X189293799Y-78546932D01*
X189468174Y-78354730D01*
X189564732Y-78274053D01*
X189740076Y-78152580D01*
X189899138Y-78071609D01*
X190065238Y-78023838D01*
X190261693Y-78001962D01*
X190445571Y-77998161D01*
X190621773Y-78000144D01*
G37*
X190621773Y-78000144D02*
X190748025Y-78008012D01*
X190846935Y-78026181D01*
X190941111Y-78059067D01*
X191053158Y-78111083D01*
X191072473Y-78120596D01*
X191274971Y-78245238D01*
X191466291Y-78407240D01*
X191626235Y-78587183D01*
X191727635Y-78750458D01*
X191769242Y-78854951D01*
X191815167Y-78995233D01*
X191846261Y-79106141D01*
X191881693Y-79385063D01*
X191852371Y-79670753D01*
X191762890Y-79948603D01*
X191617848Y-80204008D01*
X191435989Y-80409628D01*
X191254606Y-80554475D01*
X191065020Y-80669495D01*
X190879726Y-80750067D01*
X190711218Y-80791571D01*
X190571991Y-80789385D01*
X190495781Y-80757372D01*
X190432713Y-80673663D01*
X190396021Y-80528846D01*
X190395285Y-80523411D01*
X190332164Y-80292014D01*
X190210717Y-80060236D01*
X190043069Y-79845116D01*
X189841342Y-79663694D01*
X189732070Y-79591286D01*
X189609906Y-79533036D01*
X189457316Y-79478046D01*
X189358089Y-79450623D01*
X189199583Y-79407551D01*
X189100763Y-79361694D01*
X189049074Y-79303345D01*
X189031961Y-79222798D01*
X189031613Y-79198200D01*
X189065487Y-78986056D01*
X189156227Y-78763170D01*
X189293799Y-78546932D01*
X189468174Y-78354730D01*
X189564732Y-78274053D01*
X189740076Y-78152580D01*
X189899138Y-78071609D01*
X190065238Y-78023838D01*
X190261693Y-78001962D01*
X190445571Y-77998161D01*
X190621773Y-78000144D01*
G36*
X199119733Y-80089304D02*
G01*
X199259900Y-80102041D01*
X199457713Y-80123785D01*
X199571428Y-80136655D01*
X199749410Y-80156615D01*
X199900985Y-80173290D01*
X200011766Y-80185120D01*
X200067364Y-80190546D01*
X200070357Y-80190721D01*
X200088513Y-80223107D01*
X200097394Y-80301584D01*
X200097571Y-80315768D01*
X200083210Y-80413550D01*
X200036491Y-80456033D01*
X200034071Y-80456702D01*
X199989351Y-80470492D01*
X200015118Y-80476178D01*
X200034071Y-80477505D01*
X200079405Y-80501059D01*
X200096698Y-80574131D01*
X200097571Y-80608714D01*
X200085864Y-80700042D01*
X200053488Y-80732229D01*
X200052214Y-80732162D01*
X200001085Y-80726159D01*
X199892757Y-80712199D01*
X199741925Y-80692214D01*
X199563285Y-80668135D01*
X199517000Y-80661837D01*
X199333799Y-80637142D01*
X199174807Y-80616229D01*
X199054718Y-80600992D01*
X198988224Y-80593326D01*
X198981785Y-80592819D01*
X198949178Y-80559212D01*
X198936428Y-80481715D01*
X198939497Y-80430933D01*
X199732492Y-80430933D01*
X199782666Y-80436659D01*
X199807285Y-80437010D01*
X199873301Y-80433227D01*
X199881081Y-80423808D01*
X199870785Y-80420416D01*
X199778757Y-80414773D01*
X199743785Y-80420416D01*
X199732492Y-80430933D01*
X198939497Y-80430933D01*
X198940260Y-80418318D01*
X198957342Y-80394648D01*
X199405921Y-80394648D01*
X199456095Y-80400374D01*
X199480714Y-80400725D01*
X199546729Y-80396942D01*
X199554509Y-80387523D01*
X199544214Y-80384130D01*
X199452185Y-80378487D01*
X199417214Y-80384130D01*
X199405921Y-80394648D01*
X198957342Y-80394648D01*
X198963938Y-80385510D01*
X199025735Y-80372444D01*
X199126928Y-80368648D01*
X199227021Y-80365165D01*
X199263677Y-80359022D01*
X199234451Y-80347997D01*
X199136898Y-80329869D01*
X199072500Y-80319201D01*
X198982732Y-80297910D01*
X198944387Y-80260675D01*
X198936428Y-80189785D01*
X198937148Y-80145034D01*
X198945919Y-80113440D01*
X198972661Y-80094174D01*
X199027293Y-80086405D01*
X199119733Y-80089304D01*
G37*
X199119733Y-80089304D02*
X199259900Y-80102041D01*
X199457713Y-80123785D01*
X199571428Y-80136655D01*
X199749410Y-80156615D01*
X199900985Y-80173290D01*
X200011766Y-80185120D01*
X200067364Y-80190546D01*
X200070357Y-80190721D01*
X200088513Y-80223107D01*
X200097394Y-80301584D01*
X200097571Y-80315768D01*
X200083210Y-80413550D01*
X200036491Y-80456033D01*
X200034071Y-80456702D01*
X199989351Y-80470492D01*
X200015118Y-80476178D01*
X200034071Y-80477505D01*
X200079405Y-80501059D01*
X200096698Y-80574131D01*
X200097571Y-80608714D01*
X200085864Y-80700042D01*
X200053488Y-80732229D01*
X200052214Y-80732162D01*
X200001085Y-80726159D01*
X199892757Y-80712199D01*
X199741925Y-80692214D01*
X199563285Y-80668135D01*
X199517000Y-80661837D01*
X199333799Y-80637142D01*
X199174807Y-80616229D01*
X199054718Y-80600992D01*
X198988224Y-80593326D01*
X198981785Y-80592819D01*
X198949178Y-80559212D01*
X198936428Y-80481715D01*
X198939497Y-80430933D01*
X199732492Y-80430933D01*
X199782666Y-80436659D01*
X199807285Y-80437010D01*
X199873301Y-80433227D01*
X199881081Y-80423808D01*
X199870785Y-80420416D01*
X199778757Y-80414773D01*
X199743785Y-80420416D01*
X199732492Y-80430933D01*
X198939497Y-80430933D01*
X198940260Y-80418318D01*
X198957342Y-80394648D01*
X199405921Y-80394648D01*
X199456095Y-80400374D01*
X199480714Y-80400725D01*
X199546729Y-80396942D01*
X199554509Y-80387523D01*
X199544214Y-80384130D01*
X199452185Y-80378487D01*
X199417214Y-80384130D01*
X199405921Y-80394648D01*
X198957342Y-80394648D01*
X198963938Y-80385510D01*
X199025735Y-80372444D01*
X199126928Y-80368648D01*
X199227021Y-80365165D01*
X199263677Y-80359022D01*
X199234451Y-80347997D01*
X199136898Y-80329869D01*
X199072500Y-80319201D01*
X198982732Y-80297910D01*
X198944387Y-80260675D01*
X198936428Y-80189785D01*
X198937148Y-80145034D01*
X198945919Y-80113440D01*
X198972661Y-80094174D01*
X199027293Y-80086405D01*
X199119733Y-80089304D01*
G36*
X194364428Y-80652649D02*
G01*
X194119500Y-80675781D01*
X193910356Y-80691824D01*
X193734152Y-80698086D01*
X193602665Y-80694578D01*
X193527675Y-80681311D01*
X193517762Y-80675238D01*
X193501157Y-80625442D01*
X193493613Y-80537280D01*
X193493571Y-80530095D01*
X193493571Y-80409143D01*
X194364428Y-80409143D01*
X194364428Y-80652649D01*
G37*
X194364428Y-80652649D02*
X194119500Y-80675781D01*
X193910356Y-80691824D01*
X193734152Y-80698086D01*
X193602665Y-80694578D01*
X193527675Y-80681311D01*
X193517762Y-80675238D01*
X193501157Y-80625442D01*
X193493613Y-80537280D01*
X193493571Y-80530095D01*
X193493571Y-80409143D01*
X194364428Y-80409143D01*
X194364428Y-80652649D01*
G36*
X196469000Y-80663143D02*
G01*
X195561857Y-80663143D01*
X195561857Y-80409143D01*
X196469000Y-80409143D01*
X196469000Y-80663143D01*
G37*
X196469000Y-80663143D02*
X195561857Y-80663143D01*
X195561857Y-80409143D01*
X196469000Y-80409143D01*
X196469000Y-80663143D01*
G36*
X186148917Y-79000960D02*
G01*
X186370391Y-79017624D01*
X186526714Y-79044533D01*
X186787955Y-79127873D01*
X187026620Y-79237097D01*
X187224714Y-79362866D01*
X187339238Y-79466170D01*
X187443041Y-79622187D01*
X187476729Y-79778788D01*
X187442641Y-79932502D01*
X187343120Y-80079857D01*
X187180508Y-80217381D01*
X186957145Y-80341603D01*
X186676543Y-80448682D01*
X186531750Y-80486695D01*
X186368502Y-80512562D01*
X186167612Y-80528637D01*
X185964285Y-80536093D01*
X185774040Y-80539159D01*
X185598912Y-80539227D01*
X185457642Y-80536470D01*
X185368974Y-80531058D01*
X185365571Y-80530630D01*
X185136338Y-80485165D01*
X184907559Y-80413070D01*
X184693924Y-80321458D01*
X184510125Y-80217439D01*
X184370853Y-80108123D01*
X184296883Y-80013366D01*
X184250816Y-79869617D01*
X184242975Y-79711054D01*
X184272478Y-79566869D01*
X184312595Y-79492976D01*
X184424862Y-79385209D01*
X184586655Y-79274802D01*
X184776592Y-79174555D01*
X184973290Y-79097266D01*
X184974154Y-79096991D01*
X185149546Y-79056187D01*
X185375283Y-79025487D01*
X185630799Y-79005586D01*
X185895532Y-78997179D01*
X186148917Y-79000960D01*
G37*
X186148917Y-79000960D02*
X186370391Y-79017624D01*
X186526714Y-79044533D01*
X186787955Y-79127873D01*
X187026620Y-79237097D01*
X187224714Y-79362866D01*
X187339238Y-79466170D01*
X187443041Y-79622187D01*
X187476729Y-79778788D01*
X187442641Y-79932502D01*
X187343120Y-80079857D01*
X187180508Y-80217381D01*
X186957145Y-80341603D01*
X186676543Y-80448682D01*
X186531750Y-80486695D01*
X186368502Y-80512562D01*
X186167612Y-80528637D01*
X185964285Y-80536093D01*
X185774040Y-80539159D01*
X185598912Y-80539227D01*
X185457642Y-80536470D01*
X185368974Y-80531058D01*
X185365571Y-80530630D01*
X185136338Y-80485165D01*
X184907559Y-80413070D01*
X184693924Y-80321458D01*
X184510125Y-80217439D01*
X184370853Y-80108123D01*
X184296883Y-80013366D01*
X184250816Y-79869617D01*
X184242975Y-79711054D01*
X184272478Y-79566869D01*
X184312595Y-79492976D01*
X184424862Y-79385209D01*
X184586655Y-79274802D01*
X184776592Y-79174555D01*
X184973290Y-79097266D01*
X184974154Y-79096991D01*
X185149546Y-79056187D01*
X185375283Y-79025487D01*
X185630799Y-79005586D01*
X185895532Y-78997179D01*
X186148917Y-79000960D01*
G36*
X202165857Y-80372857D02*
G01*
X201827190Y-80372857D01*
X201676979Y-80370418D01*
X201555334Y-80363875D01*
X201479703Y-80354392D01*
X201464333Y-80348667D01*
X201447729Y-80298870D01*
X201440185Y-80210709D01*
X201440143Y-80203524D01*
X201440143Y-80082572D01*
X202165857Y-80082572D01*
X202165857Y-80372857D01*
G37*
X202165857Y-80372857D02*
X201827190Y-80372857D01*
X201676979Y-80370418D01*
X201555334Y-80363875D01*
X201479703Y-80354392D01*
X201464333Y-80348667D01*
X201447729Y-80298870D01*
X201440185Y-80210709D01*
X201440143Y-80203524D01*
X201440143Y-80082572D01*
X202165857Y-80082572D01*
X202165857Y-80372857D01*
G36*
X203015491Y-79968656D02*
G01*
X203088961Y-80053285D01*
X203109285Y-80152111D01*
X203079615Y-80261385D01*
X203004438Y-80337362D01*
X202904508Y-80371505D01*
X202800579Y-80355279D01*
X202733909Y-80306500D01*
X202702508Y-80246066D01*
X202842084Y-80246066D01*
X202847843Y-80292728D01*
X202874567Y-80300286D01*
X202922137Y-80281486D01*
X202927857Y-80266142D01*
X202905661Y-80217863D01*
X202863003Y-80218066D01*
X202842084Y-80246066D01*
X202702508Y-80246066D01*
X202679404Y-80201603D01*
X202681643Y-80155143D01*
X202752158Y-80155143D01*
X202757860Y-80206655D01*
X202770460Y-80200500D01*
X202771948Y-80177429D01*
X202982366Y-80177429D01*
X202986821Y-80198768D01*
X203018571Y-80226226D01*
X203034669Y-80184963D01*
X203036158Y-80146072D01*
X203030063Y-80093681D01*
X203008527Y-80107642D01*
X203002267Y-80117125D01*
X202982366Y-80177429D01*
X202771948Y-80177429D01*
X202775252Y-80126211D01*
X202770460Y-80109786D01*
X202757216Y-80105228D01*
X202752158Y-80155143D01*
X202681643Y-80155143D01*
X202684627Y-80093229D01*
X202740589Y-80001239D01*
X202838302Y-79945500D01*
X202900908Y-79937429D01*
X203015491Y-79968656D01*
G37*
X203015491Y-79968656D02*
X203088961Y-80053285D01*
X203109285Y-80152111D01*
X203079615Y-80261385D01*
X203004438Y-80337362D01*
X202904508Y-80371505D01*
X202800579Y-80355279D01*
X202733909Y-80306500D01*
X202702508Y-80246066D01*
X202842084Y-80246066D01*
X202847843Y-80292728D01*
X202874567Y-80300286D01*
X202922137Y-80281486D01*
X202927857Y-80266142D01*
X202905661Y-80217863D01*
X202863003Y-80218066D01*
X202842084Y-80246066D01*
X202702508Y-80246066D01*
X202679404Y-80201603D01*
X202681643Y-80155143D01*
X202752158Y-80155143D01*
X202757860Y-80206655D01*
X202770460Y-80200500D01*
X202771948Y-80177429D01*
X202982366Y-80177429D01*
X202986821Y-80198768D01*
X203018571Y-80226226D01*
X203034669Y-80184963D01*
X203036158Y-80146072D01*
X203030063Y-80093681D01*
X203008527Y-80107642D01*
X203002267Y-80117125D01*
X202982366Y-80177429D01*
X202771948Y-80177429D01*
X202775252Y-80126211D01*
X202770460Y-80109786D01*
X202757216Y-80105228D01*
X202752158Y-80155143D01*
X202681643Y-80155143D01*
X202684627Y-80093229D01*
X202740589Y-80001239D01*
X202838302Y-79945500D01*
X202900908Y-79937429D01*
X203015491Y-79968656D01*
G36*
X209990446Y-78400927D02*
G01*
X210211119Y-78453908D01*
X210372709Y-78534538D01*
X210514962Y-78671168D01*
X210607630Y-78845731D01*
X210649835Y-79042363D01*
X210640701Y-79245201D01*
X210579349Y-79438380D01*
X210464902Y-79606035D01*
X210433682Y-79636845D01*
X210292573Y-79726198D01*
X210104065Y-79789509D01*
X209889556Y-79823838D01*
X209670445Y-79826245D01*
X209468128Y-79793789D01*
X209414258Y-79776940D01*
X209236745Y-79697346D01*
X209114018Y-79599337D01*
X209028396Y-79468361D01*
X209021613Y-79453814D01*
X208962395Y-79255126D01*
X208957677Y-79150149D01*
X209363318Y-79150149D01*
X209399204Y-79312107D01*
X209487538Y-79436846D01*
X209622154Y-79515137D01*
X209772300Y-79538286D01*
X209900194Y-79525635D01*
X210016755Y-79494185D01*
X210040583Y-79483482D01*
X210143650Y-79409171D01*
X210200607Y-79307543D01*
X210220824Y-79160046D01*
X210221285Y-79125748D01*
X210199592Y-78932327D01*
X210132157Y-78794318D01*
X210015449Y-78708097D01*
X209845934Y-78670040D01*
X209774409Y-78667429D01*
X209603992Y-78696786D01*
X209477210Y-78783873D01*
X209396023Y-78927213D01*
X209386045Y-78960198D01*
X209363318Y-79150149D01*
X208957677Y-79150149D01*
X208953031Y-79046783D01*
X208990831Y-78848453D01*
X209073106Y-78679806D01*
X209137604Y-78605661D01*
X209307228Y-78494231D01*
X209518946Y-78422215D01*
X209753203Y-78390738D01*
X209990446Y-78400927D01*
G37*
X209990446Y-78400927D02*
X210211119Y-78453908D01*
X210372709Y-78534538D01*
X210514962Y-78671168D01*
X210607630Y-78845731D01*
X210649835Y-79042363D01*
X210640701Y-79245201D01*
X210579349Y-79438380D01*
X210464902Y-79606035D01*
X210433682Y-79636845D01*
X210292573Y-79726198D01*
X210104065Y-79789509D01*
X209889556Y-79823838D01*
X209670445Y-79826245D01*
X209468128Y-79793789D01*
X209414258Y-79776940D01*
X209236745Y-79697346D01*
X209114018Y-79599337D01*
X209028396Y-79468361D01*
X209021613Y-79453814D01*
X208962395Y-79255126D01*
X208957677Y-79150149D01*
X209363318Y-79150149D01*
X209399204Y-79312107D01*
X209487538Y-79436846D01*
X209622154Y-79515137D01*
X209772300Y-79538286D01*
X209900194Y-79525635D01*
X210016755Y-79494185D01*
X210040583Y-79483482D01*
X210143650Y-79409171D01*
X210200607Y-79307543D01*
X210220824Y-79160046D01*
X210221285Y-79125748D01*
X210199592Y-78932327D01*
X210132157Y-78794318D01*
X210015449Y-78708097D01*
X209845934Y-78670040D01*
X209774409Y-78667429D01*
X209603992Y-78696786D01*
X209477210Y-78783873D01*
X209396023Y-78927213D01*
X209386045Y-78960198D01*
X209363318Y-79150149D01*
X208957677Y-79150149D01*
X208953031Y-79046783D01*
X208990831Y-78848453D01*
X209073106Y-78679806D01*
X209137604Y-78605661D01*
X209307228Y-78494231D01*
X209518946Y-78422215D01*
X209753203Y-78390738D01*
X209990446Y-78400927D01*
G36*
X212203148Y-78421673D02*
G01*
X212313238Y-78428507D01*
X212395260Y-78439975D01*
X212460333Y-78456797D01*
X212519579Y-78479692D01*
X212525045Y-78482092D01*
X212623173Y-78532385D01*
X212694864Y-78591263D01*
X212743835Y-78670129D01*
X212773802Y-78780388D01*
X212788482Y-78933442D01*
X212791591Y-79140696D01*
X212789495Y-79293481D01*
X212779428Y-79810429D01*
X212416571Y-79810429D01*
X212398428Y-79326605D01*
X212387942Y-79107514D01*
X212372246Y-78950707D01*
X212346447Y-78845898D01*
X212305649Y-78782801D01*
X212244961Y-78751130D01*
X212159487Y-78740599D01*
X212119350Y-78740000D01*
X211999285Y-78740000D01*
X211999285Y-79828572D01*
X211563857Y-79828572D01*
X211563857Y-78740000D01*
X211409642Y-78739934D01*
X211255428Y-78739868D01*
X211268126Y-78965642D01*
X211271108Y-79116991D01*
X211266968Y-79301930D01*
X211256607Y-79481922D01*
X211255797Y-79491851D01*
X211230771Y-79792286D01*
X210800255Y-79792286D01*
X210810128Y-79111929D01*
X210820000Y-78431572D01*
X211593264Y-78421772D01*
X211854282Y-78419025D01*
X212053870Y-78418752D01*
X212203148Y-78421673D01*
G37*
X212203148Y-78421673D02*
X212313238Y-78428507D01*
X212395260Y-78439975D01*
X212460333Y-78456797D01*
X212519579Y-78479692D01*
X212525045Y-78482092D01*
X212623173Y-78532385D01*
X212694864Y-78591263D01*
X212743835Y-78670129D01*
X212773802Y-78780388D01*
X212788482Y-78933442D01*
X212791591Y-79140696D01*
X212789495Y-79293481D01*
X212779428Y-79810429D01*
X212416571Y-79810429D01*
X212398428Y-79326605D01*
X212387942Y-79107514D01*
X212372246Y-78950707D01*
X212346447Y-78845898D01*
X212305649Y-78782801D01*
X212244961Y-78751130D01*
X212159487Y-78740599D01*
X212119350Y-78740000D01*
X211999285Y-78740000D01*
X211999285Y-79828572D01*
X211563857Y-79828572D01*
X211563857Y-78740000D01*
X211409642Y-78739934D01*
X211255428Y-78739868D01*
X211268126Y-78965642D01*
X211271108Y-79116991D01*
X211266968Y-79301930D01*
X211256607Y-79481922D01*
X211255797Y-79491851D01*
X211230771Y-79792286D01*
X210800255Y-79792286D01*
X210810128Y-79111929D01*
X210820000Y-78431572D01*
X211593264Y-78421772D01*
X211854282Y-78419025D01*
X212053870Y-78418752D01*
X212203148Y-78421673D01*
G36*
X202855285Y-78661008D02*
G01*
X202458966Y-78673290D01*
X202281091Y-78680144D01*
X202159761Y-78689786D01*
X202078954Y-78705495D01*
X202022646Y-78730549D01*
X201974813Y-78768228D01*
X201969109Y-78773540D01*
X201906627Y-78840013D01*
X201876155Y-78887573D01*
X201875571Y-78891468D01*
X201909650Y-78902420D01*
X202003074Y-78911576D01*
X202142623Y-78918129D01*
X202315077Y-78921271D01*
X202365428Y-78921429D01*
X202855285Y-78921429D01*
X202855285Y-79248000D01*
X201875571Y-79248000D01*
X201875571Y-79792286D01*
X201440143Y-79792286D01*
X201440143Y-79328260D01*
X201441544Y-79128699D01*
X201447192Y-78985105D01*
X201459251Y-78880906D01*
X201479885Y-78799526D01*
X201511260Y-78724392D01*
X201521785Y-78703162D01*
X201580873Y-78600390D01*
X201646681Y-78524843D01*
X201731224Y-78472142D01*
X201846513Y-78437910D01*
X202004562Y-78417770D01*
X202217383Y-78407344D01*
X202341307Y-78404526D01*
X202855343Y-78395286D01*
X202855285Y-78661008D01*
G37*
X202855285Y-78661008D02*
X202458966Y-78673290D01*
X202281091Y-78680144D01*
X202159761Y-78689786D01*
X202078954Y-78705495D01*
X202022646Y-78730549D01*
X201974813Y-78768228D01*
X201969109Y-78773540D01*
X201906627Y-78840013D01*
X201876155Y-78887573D01*
X201875571Y-78891468D01*
X201909650Y-78902420D01*
X202003074Y-78911576D01*
X202142623Y-78918129D01*
X202315077Y-78921271D01*
X202365428Y-78921429D01*
X202855285Y-78921429D01*
X202855285Y-79248000D01*
X201875571Y-79248000D01*
X201875571Y-79792286D01*
X201440143Y-79792286D01*
X201440143Y-79328260D01*
X201441544Y-79128699D01*
X201447192Y-78985105D01*
X201459251Y-78880906D01*
X201479885Y-78799526D01*
X201511260Y-78724392D01*
X201521785Y-78703162D01*
X201580873Y-78600390D01*
X201646681Y-78524843D01*
X201731224Y-78472142D01*
X201846513Y-78437910D01*
X202004562Y-78417770D01*
X202217383Y-78407344D01*
X202341307Y-78404526D01*
X202855343Y-78395286D01*
X202855285Y-78661008D01*
G36*
X203562857Y-78408131D02*
G01*
X203817695Y-78418771D01*
X204011495Y-78438850D01*
X204155598Y-78472542D01*
X204261347Y-78524018D01*
X204340083Y-78597452D01*
X204403149Y-78697016D01*
X204415568Y-78721851D01*
X204447122Y-78798420D01*
X204468218Y-78884349D01*
X204480793Y-78995913D01*
X204486782Y-79149390D01*
X204488143Y-79332028D01*
X204488143Y-79792286D01*
X203898500Y-79789986D01*
X203692152Y-79787028D01*
X203505593Y-79780355D01*
X203353470Y-79770795D01*
X203250431Y-79759176D01*
X203218161Y-79751521D01*
X203065904Y-79657971D01*
X202971610Y-79527934D01*
X202940101Y-79372447D01*
X202942812Y-79359686D01*
X203409119Y-79359686D01*
X203417161Y-79391402D01*
X203435492Y-79427867D01*
X203472350Y-79450031D01*
X203543171Y-79461374D01*
X203663391Y-79465378D01*
X203746731Y-79465715D01*
X204052714Y-79465715D01*
X204052714Y-79211714D01*
X203766871Y-79211714D01*
X203588349Y-79219129D01*
X203473974Y-79243818D01*
X203416609Y-79289448D01*
X203409119Y-79359686D01*
X202942812Y-79359686D01*
X202976204Y-79202545D01*
X202977164Y-79200232D01*
X203040623Y-79086363D01*
X203128160Y-79006519D01*
X203251647Y-78955743D01*
X203422951Y-78929079D01*
X203644500Y-78921564D01*
X203832011Y-78917965D01*
X203952867Y-78905382D01*
X204012729Y-78880890D01*
X204017258Y-78841566D01*
X203972116Y-78784486D01*
X203950071Y-78763767D01*
X203906851Y-78736879D01*
X203838943Y-78719094D01*
X203732943Y-78708776D01*
X203575450Y-78704290D01*
X203458128Y-78703714D01*
X203032541Y-78703714D01*
X203054857Y-78395286D01*
X203562857Y-78408131D01*
G37*
X203562857Y-78408131D02*
X203817695Y-78418771D01*
X204011495Y-78438850D01*
X204155598Y-78472542D01*
X204261347Y-78524018D01*
X204340083Y-78597452D01*
X204403149Y-78697016D01*
X204415568Y-78721851D01*
X204447122Y-78798420D01*
X204468218Y-78884349D01*
X204480793Y-78995913D01*
X204486782Y-79149390D01*
X204488143Y-79332028D01*
X204488143Y-79792286D01*
X203898500Y-79789986D01*
X203692152Y-79787028D01*
X203505593Y-79780355D01*
X203353470Y-79770795D01*
X203250431Y-79759176D01*
X203218161Y-79751521D01*
X203065904Y-79657971D01*
X202971610Y-79527934D01*
X202940101Y-79372447D01*
X202942812Y-79359686D01*
X203409119Y-79359686D01*
X203417161Y-79391402D01*
X203435492Y-79427867D01*
X203472350Y-79450031D01*
X203543171Y-79461374D01*
X203663391Y-79465378D01*
X203746731Y-79465715D01*
X204052714Y-79465715D01*
X204052714Y-79211714D01*
X203766871Y-79211714D01*
X203588349Y-79219129D01*
X203473974Y-79243818D01*
X203416609Y-79289448D01*
X203409119Y-79359686D01*
X202942812Y-79359686D01*
X202976204Y-79202545D01*
X202977164Y-79200232D01*
X203040623Y-79086363D01*
X203128160Y-79006519D01*
X203251647Y-78955743D01*
X203422951Y-78929079D01*
X203644500Y-78921564D01*
X203832011Y-78917965D01*
X203952867Y-78905382D01*
X204012729Y-78880890D01*
X204017258Y-78841566D01*
X203972116Y-78784486D01*
X203950071Y-78763767D01*
X203906851Y-78736879D01*
X203838943Y-78719094D01*
X203732943Y-78708776D01*
X203575450Y-78704290D01*
X203458128Y-78703714D01*
X203032541Y-78703714D01*
X203054857Y-78395286D01*
X203562857Y-78408131D01*
G36*
X206014498Y-78400782D02*
G01*
X206184134Y-78408699D01*
X206310093Y-78424035D01*
X206402003Y-78448945D01*
X206469495Y-78485584D01*
X206522196Y-78536105D01*
X206569738Y-78602664D01*
X206594311Y-78642186D01*
X206622859Y-78697670D01*
X206642649Y-78763624D01*
X206655220Y-78853829D01*
X206662108Y-78982065D01*
X206664851Y-79162114D01*
X206665150Y-79277025D01*
X206665285Y-79795908D01*
X206456642Y-79785025D01*
X206248000Y-79774143D01*
X206261149Y-79320572D01*
X206264654Y-79106349D01*
X206257445Y-78953016D01*
X206234551Y-78849122D01*
X206190999Y-78783211D01*
X206121818Y-78743832D01*
X206022036Y-78719531D01*
X205998500Y-78715559D01*
X205867000Y-78694219D01*
X205867000Y-79792286D01*
X205431571Y-79792286D01*
X205431571Y-78703714D01*
X205105000Y-78703714D01*
X205105000Y-79792286D01*
X204668004Y-79792286D01*
X204677859Y-79097085D01*
X204687714Y-78401885D01*
X205505677Y-78398585D01*
X205791556Y-78398129D01*
X206014498Y-78400782D01*
G37*
X206014498Y-78400782D02*
X206184134Y-78408699D01*
X206310093Y-78424035D01*
X206402003Y-78448945D01*
X206469495Y-78485584D01*
X206522196Y-78536105D01*
X206569738Y-78602664D01*
X206594311Y-78642186D01*
X206622859Y-78697670D01*
X206642649Y-78763624D01*
X206655220Y-78853829D01*
X206662108Y-78982065D01*
X206664851Y-79162114D01*
X206665150Y-79277025D01*
X206665285Y-79795908D01*
X206456642Y-79785025D01*
X206248000Y-79774143D01*
X206261149Y-79320572D01*
X206264654Y-79106349D01*
X206257445Y-78953016D01*
X206234551Y-78849122D01*
X206190999Y-78783211D01*
X206121818Y-78743832D01*
X206022036Y-78719531D01*
X205998500Y-78715559D01*
X205867000Y-78694219D01*
X205867000Y-79792286D01*
X205431571Y-79792286D01*
X205431571Y-78703714D01*
X205105000Y-78703714D01*
X205105000Y-79792286D01*
X204668004Y-79792286D01*
X204677859Y-79097085D01*
X204687714Y-78401885D01*
X205505677Y-78398585D01*
X205791556Y-78398129D01*
X206014498Y-78400782D01*
G36*
X207318428Y-79792286D02*
G01*
X206883000Y-79792286D01*
X206883000Y-78413429D01*
X207318428Y-78413429D01*
X207318428Y-79792286D01*
G37*
X207318428Y-79792286D02*
X206883000Y-79792286D01*
X206883000Y-78413429D01*
X207318428Y-78413429D01*
X207318428Y-79792286D01*
G36*
X208878714Y-78703714D02*
G01*
X208496065Y-78703714D01*
X208323285Y-78704863D01*
X208206871Y-78710346D01*
X208130628Y-78723223D01*
X208078361Y-78746550D01*
X208033876Y-78783385D01*
X208024350Y-78792779D01*
X207971810Y-78858077D01*
X207944792Y-78935655D01*
X207935671Y-79051573D01*
X207935285Y-79097188D01*
X207944526Y-79249951D01*
X207975514Y-79353396D01*
X208004581Y-79398195D01*
X208040500Y-79436025D01*
X208085311Y-79461465D01*
X208153936Y-79477615D01*
X208261297Y-79487571D01*
X208422317Y-79494434D01*
X208476295Y-79496139D01*
X208878714Y-79508421D01*
X208878714Y-79792286D01*
X208416071Y-79790833D01*
X208199006Y-79787554D01*
X208041696Y-79778424D01*
X207931468Y-79762133D01*
X207855649Y-79737376D01*
X207844571Y-79731863D01*
X207686249Y-79628947D01*
X207588467Y-79516138D01*
X207563621Y-79465715D01*
X207500563Y-79238478D01*
X207492354Y-79017170D01*
X207535503Y-78813984D01*
X207626517Y-78641112D01*
X207761906Y-78510748D01*
X207850783Y-78462923D01*
X207963073Y-78436087D01*
X208146295Y-78419575D01*
X208399534Y-78413466D01*
X208423977Y-78413429D01*
X208878714Y-78413429D01*
X208878714Y-78703714D01*
G37*
X208878714Y-78703714D02*
X208496065Y-78703714D01*
X208323285Y-78704863D01*
X208206871Y-78710346D01*
X208130628Y-78723223D01*
X208078361Y-78746550D01*
X208033876Y-78783385D01*
X208024350Y-78792779D01*
X207971810Y-78858077D01*
X207944792Y-78935655D01*
X207935671Y-79051573D01*
X207935285Y-79097188D01*
X207944526Y-79249951D01*
X207975514Y-79353396D01*
X208004581Y-79398195D01*
X208040500Y-79436025D01*
X208085311Y-79461465D01*
X208153936Y-79477615D01*
X208261297Y-79487571D01*
X208422317Y-79494434D01*
X208476295Y-79496139D01*
X208878714Y-79508421D01*
X208878714Y-79792286D01*
X208416071Y-79790833D01*
X208199006Y-79787554D01*
X208041696Y-79778424D01*
X207931468Y-79762133D01*
X207855649Y-79737376D01*
X207844571Y-79731863D01*
X207686249Y-79628947D01*
X207588467Y-79516138D01*
X207563621Y-79465715D01*
X207500563Y-79238478D01*
X207492354Y-79017170D01*
X207535503Y-78813984D01*
X207626517Y-78641112D01*
X207761906Y-78510748D01*
X207850783Y-78462923D01*
X207963073Y-78436087D01*
X208146295Y-78419575D01*
X208399534Y-78413466D01*
X208423977Y-78413429D01*
X208878714Y-78413429D01*
X208878714Y-78703714D01*
G36*
X193147556Y-78388039D02*
G01*
X193351936Y-78396560D01*
X193929000Y-78422712D01*
X193929000Y-78667429D01*
X193495933Y-78667429D01*
X193259920Y-78671001D01*
X193088382Y-78683029D01*
X192973513Y-78705477D01*
X192907509Y-78740312D01*
X192882563Y-78789498D01*
X192883269Y-78821702D01*
X192892097Y-78856908D01*
X192915173Y-78881037D01*
X192965163Y-78897050D01*
X193054735Y-78907909D01*
X193196557Y-78916574D01*
X193312143Y-78921959D01*
X193527406Y-78935191D01*
X193683755Y-78955291D01*
X193794793Y-78986325D01*
X193874122Y-79032358D01*
X193935346Y-79097458D01*
X193945282Y-79111212D01*
X193989395Y-79225473D01*
X193998525Y-79370980D01*
X193972345Y-79515217D01*
X193949864Y-79569309D01*
X193909812Y-79632583D01*
X193857264Y-79679930D01*
X193781960Y-79713585D01*
X193673642Y-79735781D01*
X193522050Y-79748755D01*
X193316925Y-79754739D01*
X193092721Y-79756000D01*
X192477571Y-79756000D01*
X192477571Y-79467762D01*
X192972608Y-79457667D01*
X193174620Y-79452482D01*
X193316090Y-79445429D01*
X193409044Y-79434806D01*
X193465512Y-79418913D01*
X193497522Y-79396046D01*
X193507822Y-79381946D01*
X193525648Y-79313043D01*
X193481317Y-79262715D01*
X193372327Y-79229982D01*
X193196181Y-79213860D01*
X193074765Y-79211714D01*
X192848068Y-79204778D01*
X192681987Y-79181823D01*
X192565707Y-79139627D01*
X192488408Y-79074969D01*
X192458326Y-79028154D01*
X192407689Y-78861896D01*
X192420338Y-78698782D01*
X192491203Y-78555169D01*
X192615212Y-78447413D01*
X192642766Y-78433098D01*
X192701380Y-78409358D01*
X192768031Y-78393660D01*
X192855853Y-78385325D01*
X192977983Y-78383677D01*
X193147556Y-78388039D01*
G37*
X193147556Y-78388039D02*
X193351936Y-78396560D01*
X193929000Y-78422712D01*
X193929000Y-78667429D01*
X193495933Y-78667429D01*
X193259920Y-78671001D01*
X193088382Y-78683029D01*
X192973513Y-78705477D01*
X192907509Y-78740312D01*
X192882563Y-78789498D01*
X192883269Y-78821702D01*
X192892097Y-78856908D01*
X192915173Y-78881037D01*
X192965163Y-78897050D01*
X193054735Y-78907909D01*
X193196557Y-78916574D01*
X193312143Y-78921959D01*
X193527406Y-78935191D01*
X193683755Y-78955291D01*
X193794793Y-78986325D01*
X193874122Y-79032358D01*
X193935346Y-79097458D01*
X193945282Y-79111212D01*
X193989395Y-79225473D01*
X193998525Y-79370980D01*
X193972345Y-79515217D01*
X193949864Y-79569309D01*
X193909812Y-79632583D01*
X193857264Y-79679930D01*
X193781960Y-79713585D01*
X193673642Y-79735781D01*
X193522050Y-79748755D01*
X193316925Y-79754739D01*
X193092721Y-79756000D01*
X192477571Y-79756000D01*
X192477571Y-79467762D01*
X192972608Y-79457667D01*
X193174620Y-79452482D01*
X193316090Y-79445429D01*
X193409044Y-79434806D01*
X193465512Y-79418913D01*
X193497522Y-79396046D01*
X193507822Y-79381946D01*
X193525648Y-79313043D01*
X193481317Y-79262715D01*
X193372327Y-79229982D01*
X193196181Y-79213860D01*
X193074765Y-79211714D01*
X192848068Y-79204778D01*
X192681987Y-79181823D01*
X192565707Y-79139627D01*
X192488408Y-79074969D01*
X192458326Y-79028154D01*
X192407689Y-78861896D01*
X192420338Y-78698782D01*
X192491203Y-78555169D01*
X192615212Y-78447413D01*
X192642766Y-78433098D01*
X192701380Y-78409358D01*
X192768031Y-78393660D01*
X192855853Y-78385325D01*
X192977983Y-78383677D01*
X193147556Y-78388039D01*
G36*
X195598142Y-79756000D02*
G01*
X195008500Y-79753544D01*
X194803934Y-79750550D01*
X194620873Y-79743872D01*
X194473426Y-79734331D01*
X194375701Y-79722751D01*
X194346285Y-79714917D01*
X194273052Y-79660136D01*
X194201142Y-79581301D01*
X194172788Y-79536519D01*
X194152883Y-79482369D01*
X194139968Y-79405952D01*
X194132584Y-79294368D01*
X194129274Y-79134718D01*
X194128571Y-78939572D01*
X194128571Y-78395286D01*
X194527714Y-78395286D01*
X194537441Y-78885143D01*
X194542907Y-79101984D01*
X194553859Y-79256737D01*
X194577100Y-79359875D01*
X194619436Y-79421869D01*
X194687670Y-79453193D01*
X194788607Y-79464317D01*
X194914679Y-79465715D01*
X195160774Y-79465715D01*
X195170815Y-78930500D01*
X195180857Y-78395286D01*
X195389500Y-78384404D01*
X195598142Y-78373521D01*
X195598142Y-79756000D01*
G37*
X195598142Y-79756000D02*
X195008500Y-79753544D01*
X194803934Y-79750550D01*
X194620873Y-79743872D01*
X194473426Y-79734331D01*
X194375701Y-79722751D01*
X194346285Y-79714917D01*
X194273052Y-79660136D01*
X194201142Y-79581301D01*
X194172788Y-79536519D01*
X194152883Y-79482369D01*
X194139968Y-79405952D01*
X194132584Y-79294368D01*
X194129274Y-79134718D01*
X194128571Y-78939572D01*
X194128571Y-78395286D01*
X194527714Y-78395286D01*
X194537441Y-78885143D01*
X194542907Y-79101984D01*
X194553859Y-79256737D01*
X194577100Y-79359875D01*
X194619436Y-79421869D01*
X194687670Y-79453193D01*
X194788607Y-79464317D01*
X194914679Y-79465715D01*
X195160774Y-79465715D01*
X195170815Y-78930500D01*
X195180857Y-78395286D01*
X195389500Y-78384404D01*
X195598142Y-78373521D01*
X195598142Y-79756000D01*
G36*
X197145489Y-78497322D02*
G01*
X197231664Y-78589585D01*
X197274885Y-78682909D01*
X197292119Y-78796679D01*
X197292092Y-78940614D01*
X197258058Y-79051160D01*
X197237303Y-79087619D01*
X197153399Y-79188418D01*
X197041937Y-79257649D01*
X196890592Y-79299572D01*
X196687039Y-79318446D01*
X196563302Y-79320572D01*
X196215000Y-79320572D01*
X196215000Y-79756000D01*
X195779571Y-79756000D01*
X195779571Y-78667429D01*
X196215000Y-78667429D01*
X196215000Y-78994000D01*
X196504009Y-78994000D01*
X196652487Y-78991656D01*
X196745001Y-78982255D01*
X196798072Y-78962246D01*
X196828225Y-78928080D01*
X196830580Y-78923814D01*
X196865296Y-78819580D01*
X196840108Y-78743977D01*
X196752391Y-78695061D01*
X196599519Y-78670885D01*
X196484551Y-78667429D01*
X196215000Y-78667429D01*
X195779571Y-78667429D01*
X195779571Y-78377143D01*
X197014351Y-78377143D01*
X197145489Y-78497322D01*
G37*
X197145489Y-78497322D02*
X197231664Y-78589585D01*
X197274885Y-78682909D01*
X197292119Y-78796679D01*
X197292092Y-78940614D01*
X197258058Y-79051160D01*
X197237303Y-79087619D01*
X197153399Y-79188418D01*
X197041937Y-79257649D01*
X196890592Y-79299572D01*
X196687039Y-79318446D01*
X196563302Y-79320572D01*
X196215000Y-79320572D01*
X196215000Y-79756000D01*
X195779571Y-79756000D01*
X195779571Y-78667429D01*
X196215000Y-78667429D01*
X196215000Y-78994000D01*
X196504009Y-78994000D01*
X196652487Y-78991656D01*
X196745001Y-78982255D01*
X196798072Y-78962246D01*
X196828225Y-78928080D01*
X196830580Y-78923814D01*
X196865296Y-78819580D01*
X196840108Y-78743977D01*
X196752391Y-78695061D01*
X196599519Y-78670885D01*
X196484551Y-78667429D01*
X196215000Y-78667429D01*
X195779571Y-78667429D01*
X195779571Y-78377143D01*
X197014351Y-78377143D01*
X197145489Y-78497322D01*
G36*
X198827571Y-78661008D02*
G01*
X198425152Y-78673290D01*
X198247280Y-78679850D01*
X198127052Y-78688678D01*
X198049544Y-78702871D01*
X197999836Y-78725527D01*
X197963002Y-78759746D01*
X197953438Y-78771234D01*
X197903998Y-78842064D01*
X197884142Y-78889163D01*
X197918179Y-78901165D01*
X198011307Y-78911144D01*
X198150056Y-78918176D01*
X198320954Y-78921341D01*
X198355857Y-78921429D01*
X198827571Y-78921429D01*
X198827571Y-79211714D01*
X198355857Y-79211714D01*
X198149744Y-79213242D01*
X198008100Y-79219943D01*
X197922847Y-79234996D01*
X197885911Y-79261580D01*
X197889214Y-79302873D01*
X197924682Y-79362052D01*
X197935524Y-79377136D01*
X197967716Y-79408741D01*
X198019182Y-79430889D01*
X198103690Y-79446218D01*
X198235010Y-79457364D01*
X198398167Y-79465715D01*
X198809428Y-79483857D01*
X198820690Y-79619929D01*
X198831952Y-79756000D01*
X198348976Y-79755777D01*
X198127787Y-79753273D01*
X197966727Y-79745209D01*
X197853485Y-79730402D01*
X197775751Y-79707671D01*
X197757142Y-79698938D01*
X197591097Y-79587012D01*
X197482750Y-79448748D01*
X197427011Y-79273678D01*
X197418790Y-79051335D01*
X197421664Y-79009160D01*
X197462409Y-78786052D01*
X197547098Y-78616336D01*
X197680166Y-78492530D01*
X197751824Y-78452289D01*
X197829334Y-78419806D01*
X197913702Y-78398067D01*
X198021446Y-78385054D01*
X198169082Y-78378752D01*
X198367313Y-78377143D01*
X198827571Y-78377143D01*
X198827571Y-78661008D01*
G37*
X198827571Y-78661008D02*
X198425152Y-78673290D01*
X198247280Y-78679850D01*
X198127052Y-78688678D01*
X198049544Y-78702871D01*
X197999836Y-78725527D01*
X197963002Y-78759746D01*
X197953438Y-78771234D01*
X197903998Y-78842064D01*
X197884142Y-78889163D01*
X197918179Y-78901165D01*
X198011307Y-78911144D01*
X198150056Y-78918176D01*
X198320954Y-78921341D01*
X198355857Y-78921429D01*
X198827571Y-78921429D01*
X198827571Y-79211714D01*
X198355857Y-79211714D01*
X198149744Y-79213242D01*
X198008100Y-79219943D01*
X197922847Y-79234996D01*
X197885911Y-79261580D01*
X197889214Y-79302873D01*
X197924682Y-79362052D01*
X197935524Y-79377136D01*
X197967716Y-79408741D01*
X198019182Y-79430889D01*
X198103690Y-79446218D01*
X198235010Y-79457364D01*
X198398167Y-79465715D01*
X198809428Y-79483857D01*
X198820690Y-79619929D01*
X198831952Y-79756000D01*
X198348976Y-79755777D01*
X198127787Y-79753273D01*
X197966727Y-79745209D01*
X197853485Y-79730402D01*
X197775751Y-79707671D01*
X197757142Y-79698938D01*
X197591097Y-79587012D01*
X197482750Y-79448748D01*
X197427011Y-79273678D01*
X197418790Y-79051335D01*
X197421664Y-79009160D01*
X197462409Y-78786052D01*
X197547098Y-78616336D01*
X197680166Y-78492530D01*
X197751824Y-78452289D01*
X197829334Y-78419806D01*
X197913702Y-78398067D01*
X198021446Y-78385054D01*
X198169082Y-78378752D01*
X198367313Y-78377143D01*
X198827571Y-78377143D01*
X198827571Y-78661008D01*
G36*
X200033872Y-78386316D02*
G01*
X200176797Y-78398377D01*
X200282207Y-78421286D01*
X200361754Y-78457409D01*
X200427091Y-78509112D01*
X200479306Y-78566062D01*
X200552001Y-78703778D01*
X200565944Y-78857714D01*
X200525290Y-79007907D01*
X200434193Y-79134390D01*
X200348389Y-79195217D01*
X200273599Y-79247809D01*
X200268387Y-79293427D01*
X200269940Y-79295617D01*
X200309290Y-79346846D01*
X200376289Y-79433049D01*
X200430167Y-79502000D01*
X200524502Y-79623717D01*
X200572337Y-79698630D01*
X200570669Y-79738026D01*
X200516493Y-79753192D01*
X200406807Y-79755414D01*
X200362784Y-79755245D01*
X200115714Y-79754490D01*
X199806818Y-79284286D01*
X199450204Y-79284286D01*
X199399688Y-79756000D01*
X199195272Y-79755991D01*
X198990857Y-79755983D01*
X198990857Y-78745507D01*
X199427708Y-78745507D01*
X199432845Y-78836418D01*
X199435314Y-78857929D01*
X199452368Y-78994000D01*
X199713606Y-78994000D01*
X199873719Y-78986789D01*
X199991543Y-78966850D01*
X200040153Y-78946245D01*
X200089197Y-78875256D01*
X200076225Y-78794563D01*
X200005613Y-78723770D01*
X199988393Y-78714232D01*
X199912571Y-78692048D01*
X199800104Y-78676639D01*
X199673420Y-78668799D01*
X199554947Y-78669317D01*
X199467114Y-78678987D01*
X199433485Y-78694643D01*
X199427708Y-78745507D01*
X198990857Y-78745507D01*
X198990857Y-78395286D01*
X199588861Y-78385276D01*
X199841777Y-78382737D01*
X200033872Y-78386316D01*
G37*
X200033872Y-78386316D02*
X200176797Y-78398377D01*
X200282207Y-78421286D01*
X200361754Y-78457409D01*
X200427091Y-78509112D01*
X200479306Y-78566062D01*
X200552001Y-78703778D01*
X200565944Y-78857714D01*
X200525290Y-79007907D01*
X200434193Y-79134390D01*
X200348389Y-79195217D01*
X200273599Y-79247809D01*
X200268387Y-79293427D01*
X200269940Y-79295617D01*
X200309290Y-79346846D01*
X200376289Y-79433049D01*
X200430167Y-79502000D01*
X200524502Y-79623717D01*
X200572337Y-79698630D01*
X200570669Y-79738026D01*
X200516493Y-79753192D01*
X200406807Y-79755414D01*
X200362784Y-79755245D01*
X200115714Y-79754490D01*
X199806818Y-79284286D01*
X199450204Y-79284286D01*
X199399688Y-79756000D01*
X199195272Y-79755991D01*
X198990857Y-79755983D01*
X198990857Y-78745507D01*
X199427708Y-78745507D01*
X199432845Y-78836418D01*
X199435314Y-78857929D01*
X199452368Y-78994000D01*
X199713606Y-78994000D01*
X199873719Y-78986789D01*
X199991543Y-78966850D01*
X200040153Y-78946245D01*
X200089197Y-78875256D01*
X200076225Y-78794563D01*
X200005613Y-78723770D01*
X199988393Y-78714232D01*
X199912571Y-78692048D01*
X199800104Y-78676639D01*
X199673420Y-78668799D01*
X199554947Y-78669317D01*
X199467114Y-78678987D01*
X199433485Y-78694643D01*
X199427708Y-78745507D01*
X198990857Y-78745507D01*
X198990857Y-78395286D01*
X199588861Y-78385276D01*
X199841777Y-78382737D01*
X200033872Y-78386316D01*
G36*
X187798350Y-76617229D02*
G01*
X188105946Y-76691320D01*
X188384190Y-76825453D01*
X188625221Y-77015177D01*
X188821178Y-77256045D01*
X188915038Y-77425802D01*
X188960226Y-77530432D01*
X188988909Y-77625753D01*
X189004711Y-77733713D01*
X189011262Y-77876260D01*
X189012285Y-78014286D01*
X189010143Y-78196270D01*
X189001341Y-78327571D01*
X188982318Y-78430011D01*
X188949510Y-78525415D01*
X188916868Y-78598771D01*
X188802261Y-78786932D01*
X188641796Y-78976668D01*
X188457482Y-79145463D01*
X188271326Y-79270798D01*
X188248641Y-79282477D01*
X188109975Y-79336677D01*
X187959164Y-79373150D01*
X187815810Y-79389714D01*
X187699515Y-79384188D01*
X187629884Y-79354390D01*
X187627468Y-79351597D01*
X187598404Y-79286980D01*
X187571994Y-79182917D01*
X187564534Y-79138894D01*
X187491921Y-78878622D01*
X187357794Y-78634522D01*
X187173026Y-78417595D01*
X186948488Y-78238844D01*
X186695053Y-78109270D01*
X186488694Y-78050243D01*
X186340568Y-78015688D01*
X186252543Y-77972162D01*
X186212288Y-77906159D01*
X186207472Y-77804177D01*
X186212948Y-77748244D01*
X186272453Y-77506340D01*
X186394799Y-77274632D01*
X186584477Y-77044822D01*
X186604705Y-77024249D01*
X186847809Y-76820721D01*
X187106060Y-76685797D01*
X187386822Y-76615930D01*
X187469265Y-76607628D01*
X187798350Y-76617229D01*
G37*
X187798350Y-76617229D02*
X188105946Y-76691320D01*
X188384190Y-76825453D01*
X188625221Y-77015177D01*
X188821178Y-77256045D01*
X188915038Y-77425802D01*
X188960226Y-77530432D01*
X188988909Y-77625753D01*
X189004711Y-77733713D01*
X189011262Y-77876260D01*
X189012285Y-78014286D01*
X189010143Y-78196270D01*
X189001341Y-78327571D01*
X188982318Y-78430011D01*
X188949510Y-78525415D01*
X188916868Y-78598771D01*
X188802261Y-78786932D01*
X188641796Y-78976668D01*
X188457482Y-79145463D01*
X188271326Y-79270798D01*
X188248641Y-79282477D01*
X188109975Y-79336677D01*
X187959164Y-79373150D01*
X187815810Y-79389714D01*
X187699515Y-79384188D01*
X187629884Y-79354390D01*
X187627468Y-79351597D01*
X187598404Y-79286980D01*
X187571994Y-79182917D01*
X187564534Y-79138894D01*
X187491921Y-78878622D01*
X187357794Y-78634522D01*
X187173026Y-78417595D01*
X186948488Y-78238844D01*
X186695053Y-78109270D01*
X186488694Y-78050243D01*
X186340568Y-78015688D01*
X186252543Y-77972162D01*
X186212288Y-77906159D01*
X186207472Y-77804177D01*
X186212948Y-77748244D01*
X186272453Y-77506340D01*
X186394799Y-77274632D01*
X186584477Y-77044822D01*
X186604705Y-77024249D01*
X186847809Y-76820721D01*
X187106060Y-76685797D01*
X187386822Y-76615930D01*
X187469265Y-76607628D01*
X187798350Y-76617229D01*
G36*
X213153943Y-78158517D02*
G01*
X213188640Y-78179629D01*
X213249451Y-78261519D01*
X213271571Y-78375272D01*
X213253898Y-78490674D01*
X213202928Y-78571091D01*
X213093250Y-78626507D01*
X212970973Y-78622669D01*
X212861416Y-78562197D01*
X212834439Y-78532928D01*
X212812353Y-78486000D01*
X212968486Y-78486000D01*
X212970134Y-78543851D01*
X213019959Y-78558572D01*
X213068111Y-78548560D01*
X213061497Y-78505531D01*
X213051571Y-78486000D01*
X213016310Y-78429108D01*
X213005331Y-78418489D01*
X213136432Y-78418489D01*
X213142463Y-78450002D01*
X213176058Y-78484010D01*
X213193060Y-78448808D01*
X213195611Y-78386214D01*
X213191213Y-78321770D01*
X213175122Y-78322585D01*
X213157361Y-78350216D01*
X213136432Y-78418489D01*
X213005331Y-78418489D01*
X213000098Y-78413429D01*
X212982077Y-78443325D01*
X212968486Y-78486000D01*
X212812353Y-78486000D01*
X212781126Y-78419654D01*
X212782777Y-78389993D01*
X212849517Y-78389993D01*
X212855824Y-78428453D01*
X212883923Y-78480902D01*
X212900447Y-78461758D01*
X212905350Y-78371078D01*
X212905325Y-78368072D01*
X212903018Y-78332182D01*
X212994737Y-78332182D01*
X213030404Y-78337993D01*
X213077468Y-78331321D01*
X213078029Y-78318935D01*
X213029465Y-78310273D01*
X213008482Y-78316070D01*
X212994737Y-78332182D01*
X212903018Y-78332182D01*
X212900633Y-78295103D01*
X212885412Y-78286959D01*
X212868981Y-78310525D01*
X212849517Y-78389993D01*
X212782777Y-78389993D01*
X212787233Y-78309978D01*
X212821099Y-78250143D01*
X213124142Y-78250143D01*
X213142285Y-78268286D01*
X213160428Y-78250143D01*
X213142285Y-78232000D01*
X213124142Y-78250143D01*
X212821099Y-78250143D01*
X212836278Y-78223325D01*
X212994737Y-78223325D01*
X213030404Y-78229136D01*
X213077468Y-78222464D01*
X213078029Y-78210078D01*
X213029465Y-78201416D01*
X213008482Y-78207213D01*
X212994737Y-78223325D01*
X212836278Y-78223325D01*
X212840163Y-78216462D01*
X212927322Y-78151672D01*
X213036114Y-78128169D01*
X213153943Y-78158517D01*
G37*
X213153943Y-78158517D02*
X213188640Y-78179629D01*
X213249451Y-78261519D01*
X213271571Y-78375272D01*
X213253898Y-78490674D01*
X213202928Y-78571091D01*
X213093250Y-78626507D01*
X212970973Y-78622669D01*
X212861416Y-78562197D01*
X212834439Y-78532928D01*
X212812353Y-78486000D01*
X212968486Y-78486000D01*
X212970134Y-78543851D01*
X213019959Y-78558572D01*
X213068111Y-78548560D01*
X213061497Y-78505531D01*
X213051571Y-78486000D01*
X213016310Y-78429108D01*
X213005331Y-78418489D01*
X213136432Y-78418489D01*
X213142463Y-78450002D01*
X213176058Y-78484010D01*
X213193060Y-78448808D01*
X213195611Y-78386214D01*
X213191213Y-78321770D01*
X213175122Y-78322585D01*
X213157361Y-78350216D01*
X213136432Y-78418489D01*
X213005331Y-78418489D01*
X213000098Y-78413429D01*
X212982077Y-78443325D01*
X212968486Y-78486000D01*
X212812353Y-78486000D01*
X212781126Y-78419654D01*
X212782777Y-78389993D01*
X212849517Y-78389993D01*
X212855824Y-78428453D01*
X212883923Y-78480902D01*
X212900447Y-78461758D01*
X212905350Y-78371078D01*
X212905325Y-78368072D01*
X212903018Y-78332182D01*
X212994737Y-78332182D01*
X213030404Y-78337993D01*
X213077468Y-78331321D01*
X213078029Y-78318935D01*
X213029465Y-78310273D01*
X213008482Y-78316070D01*
X212994737Y-78332182D01*
X212903018Y-78332182D01*
X212900633Y-78295103D01*
X212885412Y-78286959D01*
X212868981Y-78310525D01*
X212849517Y-78389993D01*
X212782777Y-78389993D01*
X212787233Y-78309978D01*
X212821099Y-78250143D01*
X213124142Y-78250143D01*
X213142285Y-78268286D01*
X213160428Y-78250143D01*
X213142285Y-78232000D01*
X213124142Y-78250143D01*
X212821099Y-78250143D01*
X212836278Y-78223325D01*
X212994737Y-78223325D01*
X213030404Y-78229136D01*
X213077468Y-78222464D01*
X213078029Y-78210078D01*
X213029465Y-78201416D01*
X213008482Y-78207213D01*
X212994737Y-78223325D01*
X212836278Y-78223325D01*
X212840163Y-78216462D01*
X212927322Y-78151672D01*
X213036114Y-78128169D01*
X213153943Y-78158517D01*
%TD*%
D12*
%TO.C,REF\u002A\u002A*%
X173990000Y-110490000D03*
%TD*%
%TO.C,REF\u002A\u002A*%
X129540000Y-78105000D03*
%TD*%
%TO.C,REF\u002A\u002A*%
X217805000Y-78105000D03*
%TD*%
%TO.C,PLAYER2*%
X193455000Y-110000000D03*
X197315000Y-110000000D03*
X205035000Y-110000000D03*
X201215000Y-110000000D03*
X211415000Y-110000000D03*
X215265000Y-110000000D03*
X219085000Y-110000000D03*
%TD*%
%TO.C,PLAYER1*%
X128050000Y-110000000D03*
X131910000Y-110000000D03*
X139630000Y-110000000D03*
X135810000Y-110000000D03*
X146010000Y-110000000D03*
X149860000Y-110000000D03*
X153680000Y-110000000D03*
%TD*%
D13*
%TO.C,MCU1*%
X181610000Y-76200000D03*
X181610000Y-78740000D03*
X181610000Y-81280000D03*
X181610000Y-83820000D03*
X181610000Y-86360000D03*
X181610000Y-88900000D03*
X181610000Y-91440000D03*
X181610000Y-93980000D03*
X181610000Y-96520000D03*
X181610000Y-99060000D03*
X181610000Y-101600000D03*
X181610000Y-104140000D03*
X166370000Y-104140000D03*
X166370000Y-101600000D03*
X166370000Y-99060000D03*
X166370000Y-96520000D03*
X166370000Y-93980000D03*
X166370000Y-91440000D03*
X166370000Y-88900000D03*
X166370000Y-86360000D03*
X166370000Y-83820000D03*
X166370000Y-81280000D03*
X166370000Y-78740000D03*
D14*
X166370000Y-76200000D03*
%TD*%
M02*
